<mxfile host="app.diagrams.net" modified="2023-10-07T23:34:19.070Z" agent="Mozilla/5.0 (Windows NT 10.0; Win64; x64) AppleWebKit/537.36 (KHTML, like Gecko) Chrome/117.0.0.0 Safari/537.36" etag="FofIEcTXELOxAPY2KPgf" version="22.0.4" type="github">
  <diagram name="PÃ¡gina-1" id="88nk9wvPJ52uc7ECRAWq">
    <mxGraphModel dx="4002" dy="1967" grid="0" gridSize="10" guides="1" tooltips="1" connect="1" arrows="0" fold="1" page="1" pageScale="1" pageWidth="827" pageHeight="1169" background="none" math="0" shadow="0">
      <root>
        <mxCell id="0" />
        <mxCell id="1" parent="0" />
        <mxCell id="pv9ZLLiu9-7sLAFe4-xA-345" value="" style="rounded=0;whiteSpace=wrap;html=1;dashed=1;strokeWidth=2;perimeterSpacing=2;" vertex="1" parent="1">
          <mxGeometry x="-423.5" y="266" width="386.5" height="83" as="geometry" />
        </mxCell>
        <mxCell id="pv9ZLLiu9-7sLAFe4-xA-344" value="" style="rounded=0;whiteSpace=wrap;html=1;dashed=1;strokeWidth=2;perimeterSpacing=2;" vertex="1" parent="1">
          <mxGeometry x="-431.5" y="1442.5" width="192" height="258" as="geometry" />
        </mxCell>
        <mxCell id="pv9ZLLiu9-7sLAFe4-xA-118" value="" style="rounded=0;whiteSpace=wrap;html=1;dashed=1;strokeWidth=2;perimeterSpacing=2;" vertex="1" parent="1">
          <mxGeometry x="-227" y="901" width="192" height="260" as="geometry" />
        </mxCell>
        <mxCell id="pv9ZLLiu9-7sLAFe4-xA-27" value="" style="rounded=0;whiteSpace=wrap;html=1;dashed=1;strokeWidth=2;perimeterSpacing=2;" vertex="1" parent="1">
          <mxGeometry x="-758" y="267" width="320" height="82" as="geometry" />
        </mxCell>
        <mxCell id="pv9ZLLiu9-7sLAFe4-xA-8" value="" style="verticalLabelPosition=bottom;html=1;verticalAlign=top;align=center;strokeColor=none;fillColor=#00BEF2;shape=mxgraph.azure.git_repository;" vertex="1" parent="1">
          <mxGeometry x="-747.5" y="283.81" width="52.5" height="52" as="geometry" />
        </mxCell>
        <mxCell id="pv9ZLLiu9-7sLAFe4-xA-10" value="Availability Zone" style="fillColor=none;strokeColor=#147EBA;dashed=1;verticalAlign=top;fontStyle=0;fontColor=#147EBA;whiteSpace=wrap;html=1;spacingTop=6;labelBackgroundColor=default;labelBorderColor=default;" vertex="1" parent="1">
          <mxGeometry x="-760" y="366" width="525" height="520" as="geometry" />
        </mxCell>
        <mxCell id="pv9ZLLiu9-7sLAFe4-xA-13" value="" style="shape=image;verticalLabelPosition=bottom;verticalAlign=top;imageAspect=0;aspect=fixed;image=data:image/svg+xml,PHN2ZyB4bWxucz0iaHR0cDovL3d3dy53My5vcmcvMjAwMC9zdmciIGRhdGEtbmFtZT0iZmx1ZW50X2ljb25zIiB2aWV3Qm94PSIwIDAgMTggMTgiPjxkZWZzPjxsaW5lYXJHcmFkaWVudCBpZD0iYSIgeDE9IjguNjciIHkxPSIxNy41NCIgeDI9IjguNjciIHkyPSItMS4xOSIgZ3JhZGllbnRVbml0cz0idXNlclNwYWNlT25Vc2UiPjxzdG9wIG9mZnNldD0iMCIgc3RvcC1jb2xvcj0iIzAwNzhkNCIvPjxzdG9wIG9mZnNldD0iLjE2IiBzdG9wLWNvbG9yPSIjMTM4MGRhIi8+PHN0b3Agb2Zmc2V0PSIuNTMiIHN0b3AtY29sb3I9IiMzYzkxZTUiLz48c3RvcCBvZmZzZXQ9Ii44MiIgc3RvcC1jb2xvcj0iIzU1OWNlYyIvPjxzdG9wIG9mZnNldD0iMSIgc3RvcC1jb2xvcj0iIzVlYTBlZiIvPjwvbGluZWFyR3JhZGllbnQ+PGxpbmVhckdyYWRpZW50IGlkPSJiIiB4MT0iMTIuOTYiIHkxPSIxMC41IiB4Mj0iMTIuOTYiIHkyPSIxMi45MiIgZ3JhZGllbnRVbml0cz0idXNlclNwYWNlT25Vc2UiPjxzdG9wIG9mZnNldD0iMCIgc3RvcC1jb2xvcj0iIzMzMzEzMiIvPjxzdG9wIG9mZnNldD0iMSIgc3RvcC1jb2xvcj0iIzViNWE1YyIvPjwvbGluZWFyR3JhZGllbnQ+PC9kZWZzPjxwYXRoIGQ9Ik0xNi4yMiA3LjQ0QTQuMTkgNC4xOSAwIDAwMTQgNi4zMmE0LjkxIDQuOTEgMCAwMC01LjEtNC43IDUuMDcgNS4wNyAwIDAwLTQuODQgMy4yOUE0LjYyIDQuNjIgMCAwMDAgOS4zOWE0LjczIDQuNzMgMCAwMDQuODkgNC41NGg4LjU2YTQgNCAwIDAwMy45Mi0zLjgxIDMuNjcgMy42NyAwIDAwLTEuMTQtMi42MyIgZmlsbD0idXJsKCNhKSIvPjxwYXRoIGZpbGw9IiM3Njc2NzYiIGQ9Ik0xMC4wNyA2LjIybC4wMSA0LjI4IDcuOTEgMS42OFY5LjJsLTcuOTItMi45OHoiLz48cGF0aCBmaWxsPSIjOTk5IiBkPSJNMTAuMDcgNi4yMmwtMi4xNCAxLjN2My45OGwyLjE1LTEiLz48cGF0aCBmaWxsPSIjYTNhM2EzIiBkPSJNMTMuNjggMTAuNTZsLjcyLjJWOC40M2wtLjcyLS4yNXYyLjM4em0tLjcyLTIuNjFsLS43Mi0uMjZ2Mi40OWwuNzIuMlY3Ljk1em0yLjE2IDNsLjcuMTkuMDItMi4yMi0uNzItLjI0djIuMjd6bS00LjMxLTEuMTRsLjcyLjE4VjcuNDZsLS43Mi0uMjR2Mi41OXptNi40Ni0uNGwtLjcyLS4yNXYyLjE3bC43Mi4yVjkuNDF6Ii8+PHBhdGggZGF0YS1uYW1lPSJQYXRoIDE1ODgiIGQ9Ik04LjY2IDEwLjQzbC0uMzYuMjFWNy44MWwuMzYtLjE5em0uNzEtMy4yMkw5IDcuNDV2Mi43NWwuMzctLjJ6IiBmaWxsPSIjYjNiM2IzIi8+PHBhdGggZmlsbD0idXJsKCNiKSIgZD0iTTE3Ljk5IDEyLjE4bC0yLjE2Ljc0LTcuOS0xLjQyIDIuMTUtMSA3LjkxIDEuNjh6Ii8+PHBhdGggZmlsbD0iIzc2NzY3NiIgZD0iTTE3Ljk5IDE1LjIzbC03Ljk1IDEuNTEuMDQtNS41OSA3LjkxIDEuNDd2Mi42MXoiLz48cGF0aCBmaWxsPSIjYTNhM2EzIiBkPSJNMTAuODEgMTUuODJ2LTMuNTVsLjcyLjA5djMuMzRsLS43Mi4xMnptMi4xNS0uMzZsLS43Mi4xM3YtMy4xNGwuNzIuMTF2Mi45em0uNzItLjExdi0yLjcybC43Mi4wOXYyLjVsLS43Mi4xM3ptMi4xNS0uMzhsLS43MS4xM3YtMi4yOWwuNzEuMTF2Mi4wNXptMS40Ni0uMjNsLS43NC4xM3YtMS44OGwuNjkuMDkuMDUgMS42NnoiLz48cGF0aCBkYXRhLW5hbWU9IlBhdGggMTU4OSIgZD0iTTcuOTMgMTUuNDZWMTIuMmwyLjE2LTF2NS42eiIgZmlsbD0iIzk5OSIvPjxwYXRoIGRhdGEtbmFtZT0iUGF0aCAxNTkwIiBkPSJNOC42MSAxNS40NWwtLjMyLS4xNnYtMi43NmwuMzItLjE1ek05LjM4IDEybC0uMzguMTl2My40OGwuMzcuMTlWMTJ6IiBmaWxsPSIjYjNiM2IzIi8+PC9zdmc+" vertex="1" parent="1">
          <mxGeometry x="-678" y="283.81" width="58.25" height="58.25" as="geometry" />
        </mxCell>
        <mxCell id="pv9ZLLiu9-7sLAFe4-xA-14" style="edgeStyle=orthogonalEdgeStyle;rounded=0;orthogonalLoop=1;jettySize=auto;html=1;exitX=0.5;exitY=1;exitDx=0;exitDy=0;exitPerimeter=0;entryX=0.5;entryY=0.8;entryDx=0;entryDy=0;entryPerimeter=0;" edge="1" parent="1" source="pv9ZLLiu9-7sLAFe4-xA-8" target="pv9ZLLiu9-7sLAFe4-xA-8">
          <mxGeometry relative="1" as="geometry" />
        </mxCell>
        <mxCell id="pv9ZLLiu9-7sLAFe4-xA-16" value="" style="shape=image;verticalLabelPosition=bottom;verticalAlign=top;imageAspect=0;aspect=fixed;image=data:image/svg+xml,PHN2ZyB4bWxucz0iaHR0cDovL3d3dy53My5vcmcvMjAwMC9zdmciIHZlcnNpb249IjEuMSIgaWQ9InN2ZzM3MjAiIHZpZXdCb3g9IjAgMCA2MC4xNSA2MC4xNSI+PGRlZnMgaWQ9ImRlZnMzNjgyIj48c3R5bGUgaWQ9InN0eWxlMzY4MCI+LmNscy0xe2ZpbGw6IzVjNGVlNTtmaWxsLXJ1bGU6ZXZlbm9kZH08L3N0eWxlPjwvZGVmcz48ZyBpZD0iTGF5ZXJfMiIgZGF0YS1uYW1lPSJMYXllciAyIj48ZyBpZD0iTG9nbyI+PHBhdGggY2xhc3M9ImNscy0xIiBpZD0icG9seWdvbjM3MDYiIGZpbGw9IiM1YzRlZTUiIGZpbGwtcnVsZT0iZXZlbm9kZCIgZD0iTTM0LjYgMzkuMTNsLTE2LjQtOS40N1YxMC43MmwxNi40IDkuNDh6Ii8+PHBhdGggaWQ9InBvbHlnb24zNzA4IiBmaWxsPSIjNDA0MGIyIiBmaWxsLXJ1bGU9ImV2ZW5vZGQiIGQ9Ik01Mi44IDI5LjY3VjEwLjcyTDM2LjQgMjAuMnYxOC45M3oiLz48cGF0aCBjbGFzcz0iY2xzLTEiIGlkPSJwb2x5Z29uMzcxMCIgZmlsbD0iIzVjNGVlNSIgZmlsbC1ydWxlPSJldmVub2RkIiBkPSJNMTYuNCAyOC41NlY5LjYyTDAgLjE1djE4Ljk0eiIvPjxwYXRoIGNsYXNzPSJjbHMtMSIgaWQ9InBvbHlnb24zNzEyIiBmaWxsPSIjNWM0ZWU1IiBmaWxsLXJ1bGU9ImV2ZW5vZGQiIGQ9Ik0zNC42IDQxLjM0di0uMTNsLTE2LjQtOS40N3YxOC45NGwxNi40IDkuNDd6Ii8+PC9nPjwvZz48L3N2Zz4=" vertex="1" parent="1">
          <mxGeometry x="-597.37" y="279.19" width="56.62" height="56.62" as="geometry" />
        </mxCell>
        <mxCell id="pv9ZLLiu9-7sLAFe4-xA-21" value="" style="sketch=0;outlineConnect=0;fontColor=#232F3E;gradientColor=none;fillColor=#232F3D;strokeColor=none;dashed=0;verticalLabelPosition=bottom;verticalAlign=top;align=center;html=1;fontSize=12;fontStyle=0;aspect=fixed;pointerEvents=1;shape=mxgraph.aws4.git_repository;" vertex="1" parent="1">
          <mxGeometry x="-258.46000000000004" y="276" width="48.46" height="63" as="geometry" />
        </mxCell>
        <mxCell id="pv9ZLLiu9-7sLAFe4-xA-28" value="" style="image;aspect=fixed;html=1;points=[];align=center;fontSize=12;image=img/lib/azure2/management_governance/User_Privacy.svg;" vertex="1" parent="1">
          <mxGeometry x="-647.37" y="196" width="54.12" height="57.5" as="geometry" />
        </mxCell>
        <mxCell id="pv9ZLLiu9-7sLAFe4-xA-32" value="" style="rounded=0;whiteSpace=wrap;html=1;dashed=1;strokeWidth=2;perimeterSpacing=2;" vertex="1" parent="1">
          <mxGeometry x="-229" y="365" width="194" height="247" as="geometry" />
        </mxCell>
        <mxCell id="pv9ZLLiu9-7sLAFe4-xA-46" value="" style="shape=image;html=1;verticalAlign=top;verticalLabelPosition=bottom;labelBackgroundColor=#ffffff;imageAspect=0;aspect=fixed;image=https://cdn1.iconfinder.com/data/icons/hawcons/32/699114-icon-38-file-yml-128.png" vertex="1" parent="1">
          <mxGeometry x="-539.66" y="263.17" width="88.66" height="88.66" as="geometry" />
        </mxCell>
        <mxCell id="pv9ZLLiu9-7sLAFe4-xA-51" value="" style="shape=image;verticalLabelPosition=bottom;verticalAlign=top;imageAspect=0;aspect=fixed;image=data:image/svg+xml,PHN2ZyB4bWxucz0iaHR0cDovL3d3dy53My5vcmcvMjAwMC9zdmciIHZpZXdCb3g9IjAgMCAxOCAxOCI+PGRlZnM+PGxpbmVhckdyYWRpZW50IGlkPSJhIiB4MT0iMi45NCIgeTE9IjMuNzQiIHgyPSI4LjY3IiB5Mj0iMy43NCIgZ3JhZGllbnRVbml0cz0idXNlclNwYWNlT25Vc2UiPjxzdG9wIG9mZnNldD0iMCIgc3RvcC1jb2xvcj0iI2I3N2FmNCIvPjxzdG9wIG9mZnNldD0iMSIgc3RvcC1jb2xvcj0iIzc3M2FkYyIvPjwvbGluZWFyR3JhZGllbnQ+PGxpbmVhckdyYWRpZW50IGlkPSJiIiB4MT0iOS4xMyIgeTE9IjMuNzkiIHgyPSIxNC44NSIgeTI9IjMuNzkiIGdyYWRpZW50VW5pdHM9InVzZXJTcGFjZU9uVXNlIj48c3RvcCBvZmZzZXQ9IjAiIHN0b3AtY29sb3I9IiNiNzdhZjQiLz48c3RvcCBvZmZzZXQ9IjEiIHN0b3AtY29sb3I9IiM3NzNhZGMiLz48L2xpbmVhckdyYWRpZW50PjxsaW5lYXJHcmFkaWVudCBpZD0iYyIgeDE9Ii4wMSIgeTE9IjkuMTIiIHgyPSI1LjczIiB5Mj0iOS4xMiIgZ3JhZGllbnRVbml0cz0idXNlclNwYWNlT25Vc2UiPjxzdG9wIG9mZnNldD0iMCIgc3RvcC1jb2xvcj0iI2I3N2FmNCIvPjxzdG9wIG9mZnNldD0iMSIgc3RvcC1jb2xvcj0iIzc3M2FkYyIvPjwvbGluZWFyR3JhZGllbnQ+PGxpbmVhckdyYWRpZW50IGlkPSJkIiB4MT0iNi4xOCIgeTE9IjkuMDgiIHgyPSIxMS45IiB5Mj0iOS4wOCIgZ3JhZGllbnRVbml0cz0idXNlclNwYWNlT25Vc2UiPjxzdG9wIG9mZnNldD0iMCIgc3RvcC1jb2xvcj0iI2I3N2FmNCIvPjxzdG9wIG9mZnNldD0iMSIgc3RvcC1jb2xvcj0iIzc3M2FkYyIvPjwvbGluZWFyR3JhZGllbnQ+PGxpbmVhckdyYWRpZW50IGlkPSJlIiB4MT0iMTIuMzUiIHkxPSI5LjEzIiB4Mj0iMTguMDgiIHkyPSI5LjEzIiBncmFkaWVudFVuaXRzPSJ1c2VyU3BhY2VPblVzZSI+PHN0b3Agb2Zmc2V0PSIwIiBzdG9wLWNvbG9yPSIjYjc3YWY0Ii8+PHN0b3Agb2Zmc2V0PSIxIiBzdG9wLWNvbG9yPSIjNzczYWRjIi8+PC9saW5lYXJHcmFkaWVudD48bGluZWFyR3JhZGllbnQgaWQ9ImYiIHgxPSIyLjg3IiB5MT0iMTQuNTYiIHgyPSI4LjYiIHkyPSIxNC41NiIgZ3JhZGllbnRVbml0cz0idXNlclNwYWNlT25Vc2UiPjxzdG9wIG9mZnNldD0iMCIgc3RvcC1jb2xvcj0iI2I3N2FmNCIvPjxzdG9wIG9mZnNldD0iMSIgc3RvcC1jb2xvcj0iIzc3M2FkYyIvPjwvbGluZWFyR3JhZGllbnQ+PGxpbmVhckdyYWRpZW50IGlkPSJnIiB4MT0iOS4wNSIgeTE9IjE0LjYiIHgyPSIxNC43OCIgeTI9IjE0LjYiIGdyYWRpZW50VW5pdHM9InVzZXJTcGFjZU9uVXNlIj48c3RvcCBvZmZzZXQ9IjAiIHN0b3AtY29sb3I9IiNiNzdhZjQiLz48c3RvcCBvZmZzZXQ9IjEiIHN0b3AtY29sb3I9IiM3NzNhZGMiLz48L2xpbmVhckdyYWRpZW50PjwvZGVmcz48cGF0aCBmaWxsPSJ1cmwoI2EpIiBkPSJNNS44IDEuMjJsLTIuODYuNTN2My45bDIuODYuNjEgMi44Ny0xLjE1VjIuMkw1LjggMS4yMnoiLz48cGF0aCBkPSJNNS45MSA2LjJsMi42Mi0xLjA2QS4yLjIgMCAwMDguNjUgNVYyLjM2YS4yMS4yMSAwIDAwLS4xMy0uMThsLTIuNjUtLjloLS4xMmwtMi42LjQ4YS4yLjIgMCAwMC0uMTUuMTh2My41M2EuMTkuMTkgMCAwMC4xNS4xOWwyLjYzLjU1YS4zMi4zMiAwIDAwLjEzLS4wMXoiIGZpbGw9Im5vbmUiLz48cGF0aCBkPSJNMi45NCAxLjc1djMuOWwyLjg5LjYxdi01em0xLjIyIDMuNmwtLjgxLS4xNnYtM2wuODEtLjEzem0xLjI2LjIzbC0uOTMtLjE1VjJsLjkzLS4xNnoiIGZpbGw9IiMzNDFhNmUiLz48cGF0aCBmaWxsPSJ1cmwoI2IpIiBkPSJNMTEuOTkgMS4yN2wtMi44Ni41M3YzLjlsMi44Ni42MSAyLjg2LTEuMTZ2LTIuOWwtMi44Ni0uOTh6Ii8+PHBhdGggZD0iTTkuMTMgMS44djMuOWwyLjg3LjYxdi01em0xLjIxIDMuNmwtLjgxLS4xNnYtM2wuODEtLjEzem0xLjI2LjIzbC0uOTMtLjE1VjIuMDVsLjkzLS4xN3oiIGZpbGw9IiMzNDFhNmUiLz48cGF0aCBmaWxsPSJ1cmwoI2MpIiBkPSJNMi44NyA2LjZsLTIuODYuNTN2My45bDIuODYuNjEgMi44Ny0xLjE1VjcuNThMMi44NyA2LjZ6Ii8+PHBhdGggZD0iTTAgNy4xM1YxMWwyLjg5LjYxdi01em0xLjIxIDMuNjFsLS44MS0uMTd2LTNsLjgxLS4xNHptMS4yNy4yNmwtLjkzLS4xNVY3LjM4bC45My0uMTZ6IiBmaWxsPSIjMzQxYTZlIi8+PHBhdGggZmlsbD0idXJsKCNkKSIgZD0iTTkuMDQgNi41NmwtMi44Ni41M3YzLjlsMi44Ni42MiAyLjg2LTEuMTZWNy41NGwtMi44Ni0uOTh6Ii8+PHBhdGggZD0iTTYuMTggNy4wOVYxMWwyLjg4LjYxdi01em0xLjIxIDMuNjFsLS44MS0uMTd2LTNsLjgxLS4xNHptMS4yNi4yMmwtLjkzLS4xNVY3LjM0bC45My0uMTZ6IiBmaWxsPSIjMzQxYTZlIi8+PHBhdGggZmlsbD0idXJsKCNlKSIgZD0iTTE1LjIxIDYuNjFsLTIuODYuNTN2My45bDIuODYuNjEgMi44Ny0xLjE1VjcuNTlsLTIuODctLjk4eiIvPjxwYXRoIGQ9Ik0xMi4zNSA3LjE0VjExbDIuODkuNjF2LTV6bTEuMjIgMy42MWwtLjgxLS4xN3YtM2wuODEtLjE0em0xLjI2LjIybC0uOTMtLjE1VjcuMzlsLjkzLS4xNnoiIGZpbGw9IiMzNDFhNmUiLz48cGF0aCBmaWxsPSJ1cmwoI2YpIiBkPSJNNS43MyAxMi4wNGwtMi44Ni41MnYzLjlsMi44Ni42MiAyLjg3LTEuMTZ2LTIuOWwtMi44Ny0uOTh6Ii8+PHBhdGggZD0iTTUuODQgMTdsMi42MS0xYS4xOC4xOCAwIDAwLjEyLS4xOHYtMi42YS4yLjIgMCAwMC0uMTMtLjIybC0yLjY0LS45YS4xNy4xNyAwIDAwLS4xMiAwbC0yLjYuNDdhLjE5LjE5IDAgMDAtLjE2LjE5djMuNTRhLjE5LjE5IDAgMDAuMTUuMTlMNS43IDE3YS4yMy4yMyAwIDAwLjE0IDB6IiBmaWxsPSJub25lIi8+PHBhdGggZD0iTTIuODcgMTIuNTZ2My45bDIuODkuNjJWMTJ6bTEuMjIgMy42MUwzLjI4IDE2di0zbC44MS0uMTR6bTEuMjYuMjNsLS45My0uMTV2LTMuNDRsLjkzLS4xNnoiIGZpbGw9IiMzNDFhNmUiLz48cGF0aCBmaWxsPSJ1cmwoI2cpIiBkPSJNMTEuOTEgMTIuMDhsLTIuODYuNTN2My45bDIuODYuNjEgMi44Ny0xLjE1di0yLjkxbC0yLjg3LS45OHoiLz48cGF0aCBkPSJNOS4wNSAxMi42MXYzLjlsMi44OS42MXYtNXptMS4yMiAzLjYxbC0uODEtLjE3di0zbC44MS0uMTR6bTEuMjYuMjJsLS45My0uMTV2LTMuNDNsLjkzLS4xNnoiIGZpbGw9IiMzNDFhNmUiLz48L3N2Zz4=" vertex="1" parent="1">
          <mxGeometry x="-588.75" y="440.75" width="48" height="48" as="geometry" />
        </mxCell>
        <mxCell id="pv9ZLLiu9-7sLAFe4-xA-52" value="" style="shape=image;verticalLabelPosition=bottom;verticalAlign=top;imageAspect=0;aspect=fixed;image=data:image/svg+xml,PHN2ZyB4bWxucz0iaHR0cDovL3d3dy53My5vcmcvMjAwMC9zdmciIHZpZXdCb3g9IjAgMCAxOCAxOCI+PGRlZnM+PGxpbmVhckdyYWRpZW50IGlkPSJhIiB4MT0iMi45NCIgeTE9IjMuNzQiIHgyPSI4LjY3IiB5Mj0iMy43NCIgZ3JhZGllbnRVbml0cz0idXNlclNwYWNlT25Vc2UiPjxzdG9wIG9mZnNldD0iMCIgc3RvcC1jb2xvcj0iI2I3N2FmNCIvPjxzdG9wIG9mZnNldD0iMSIgc3RvcC1jb2xvcj0iIzc3M2FkYyIvPjwvbGluZWFyR3JhZGllbnQ+PGxpbmVhckdyYWRpZW50IGlkPSJiIiB4MT0iOS4xMyIgeTE9IjMuNzkiIHgyPSIxNC44NSIgeTI9IjMuNzkiIGdyYWRpZW50VW5pdHM9InVzZXJTcGFjZU9uVXNlIj48c3RvcCBvZmZzZXQ9IjAiIHN0b3AtY29sb3I9IiNiNzdhZjQiLz48c3RvcCBvZmZzZXQ9IjEiIHN0b3AtY29sb3I9IiM3NzNhZGMiLz48L2xpbmVhckdyYWRpZW50PjxsaW5lYXJHcmFkaWVudCBpZD0iYyIgeDE9Ii4wMSIgeTE9IjkuMTIiIHgyPSI1LjczIiB5Mj0iOS4xMiIgZ3JhZGllbnRVbml0cz0idXNlclNwYWNlT25Vc2UiPjxzdG9wIG9mZnNldD0iMCIgc3RvcC1jb2xvcj0iI2I3N2FmNCIvPjxzdG9wIG9mZnNldD0iMSIgc3RvcC1jb2xvcj0iIzc3M2FkYyIvPjwvbGluZWFyR3JhZGllbnQ+PGxpbmVhckdyYWRpZW50IGlkPSJkIiB4MT0iNi4xOCIgeTE9IjkuMDgiIHgyPSIxMS45IiB5Mj0iOS4wOCIgZ3JhZGllbnRVbml0cz0idXNlclNwYWNlT25Vc2UiPjxzdG9wIG9mZnNldD0iMCIgc3RvcC1jb2xvcj0iI2I3N2FmNCIvPjxzdG9wIG9mZnNldD0iMSIgc3RvcC1jb2xvcj0iIzc3M2FkYyIvPjwvbGluZWFyR3JhZGllbnQ+PGxpbmVhckdyYWRpZW50IGlkPSJlIiB4MT0iMTIuMzUiIHkxPSI5LjEzIiB4Mj0iMTguMDgiIHkyPSI5LjEzIiBncmFkaWVudFVuaXRzPSJ1c2VyU3BhY2VPblVzZSI+PHN0b3Agb2Zmc2V0PSIwIiBzdG9wLWNvbG9yPSIjYjc3YWY0Ii8+PHN0b3Agb2Zmc2V0PSIxIiBzdG9wLWNvbG9yPSIjNzczYWRjIi8+PC9saW5lYXJHcmFkaWVudD48bGluZWFyR3JhZGllbnQgaWQ9ImYiIHgxPSIyLjg3IiB5MT0iMTQuNTYiIHgyPSI4LjYiIHkyPSIxNC41NiIgZ3JhZGllbnRVbml0cz0idXNlclNwYWNlT25Vc2UiPjxzdG9wIG9mZnNldD0iMCIgc3RvcC1jb2xvcj0iI2I3N2FmNCIvPjxzdG9wIG9mZnNldD0iMSIgc3RvcC1jb2xvcj0iIzc3M2FkYyIvPjwvbGluZWFyR3JhZGllbnQ+PGxpbmVhckdyYWRpZW50IGlkPSJnIiB4MT0iOS4wNSIgeTE9IjE0LjYiIHgyPSIxNC43OCIgeTI9IjE0LjYiIGdyYWRpZW50VW5pdHM9InVzZXJTcGFjZU9uVXNlIj48c3RvcCBvZmZzZXQ9IjAiIHN0b3AtY29sb3I9IiNiNzdhZjQiLz48c3RvcCBvZmZzZXQ9IjEiIHN0b3AtY29sb3I9IiM3NzNhZGMiLz48L2xpbmVhckdyYWRpZW50PjwvZGVmcz48cGF0aCBmaWxsPSJ1cmwoI2EpIiBkPSJNNS44IDEuMjJsLTIuODYuNTN2My45bDIuODYuNjEgMi44Ny0xLjE1VjIuMkw1LjggMS4yMnoiLz48cGF0aCBkPSJNNS45MSA2LjJsMi42Mi0xLjA2QS4yLjIgMCAwMDguNjUgNVYyLjM2YS4yMS4yMSAwIDAwLS4xMy0uMThsLTIuNjUtLjloLS4xMmwtMi42LjQ4YS4yLjIgMCAwMC0uMTUuMTh2My41M2EuMTkuMTkgMCAwMC4xNS4xOWwyLjYzLjU1YS4zMi4zMiAwIDAwLjEzLS4wMXoiIGZpbGw9Im5vbmUiLz48cGF0aCBkPSJNMi45NCAxLjc1djMuOWwyLjg5LjYxdi01em0xLjIyIDMuNmwtLjgxLS4xNnYtM2wuODEtLjEzem0xLjI2LjIzbC0uOTMtLjE1VjJsLjkzLS4xNnoiIGZpbGw9IiMzNDFhNmUiLz48cGF0aCBmaWxsPSJ1cmwoI2IpIiBkPSJNMTEuOTkgMS4yN2wtMi44Ni41M3YzLjlsMi44Ni42MSAyLjg2LTEuMTZ2LTIuOWwtMi44Ni0uOTh6Ii8+PHBhdGggZD0iTTkuMTMgMS44djMuOWwyLjg3LjYxdi01em0xLjIxIDMuNmwtLjgxLS4xNnYtM2wuODEtLjEzem0xLjI2LjIzbC0uOTMtLjE1VjIuMDVsLjkzLS4xN3oiIGZpbGw9IiMzNDFhNmUiLz48cGF0aCBmaWxsPSJ1cmwoI2MpIiBkPSJNMi44NyA2LjZsLTIuODYuNTN2My45bDIuODYuNjEgMi44Ny0xLjE1VjcuNThMMi44NyA2LjZ6Ii8+PHBhdGggZD0iTTAgNy4xM1YxMWwyLjg5LjYxdi01em0xLjIxIDMuNjFsLS44MS0uMTd2LTNsLjgxLS4xNHptMS4yNy4yNmwtLjkzLS4xNVY3LjM4bC45My0uMTZ6IiBmaWxsPSIjMzQxYTZlIi8+PHBhdGggZmlsbD0idXJsKCNkKSIgZD0iTTkuMDQgNi41NmwtMi44Ni41M3YzLjlsMi44Ni42MiAyLjg2LTEuMTZWNy41NGwtMi44Ni0uOTh6Ii8+PHBhdGggZD0iTTYuMTggNy4wOVYxMWwyLjg4LjYxdi01em0xLjIxIDMuNjFsLS44MS0uMTd2LTNsLjgxLS4xNHptMS4yNi4yMmwtLjkzLS4xNVY3LjM0bC45My0uMTZ6IiBmaWxsPSIjMzQxYTZlIi8+PHBhdGggZmlsbD0idXJsKCNlKSIgZD0iTTE1LjIxIDYuNjFsLTIuODYuNTN2My45bDIuODYuNjEgMi44Ny0xLjE1VjcuNTlsLTIuODctLjk4eiIvPjxwYXRoIGQ9Ik0xMi4zNSA3LjE0VjExbDIuODkuNjF2LTV6bTEuMjIgMy42MWwtLjgxLS4xN3YtM2wuODEtLjE0em0xLjI2LjIybC0uOTMtLjE1VjcuMzlsLjkzLS4xNnoiIGZpbGw9IiMzNDFhNmUiLz48cGF0aCBmaWxsPSJ1cmwoI2YpIiBkPSJNNS43MyAxMi4wNGwtMi44Ni41MnYzLjlsMi44Ni42MiAyLjg3LTEuMTZ2LTIuOWwtMi44Ny0uOTh6Ii8+PHBhdGggZD0iTTUuODQgMTdsMi42MS0xYS4xOC4xOCAwIDAwLjEyLS4xOHYtMi42YS4yLjIgMCAwMC0uMTMtLjIybC0yLjY0LS45YS4xNy4xNyAwIDAwLS4xMiAwbC0yLjYuNDdhLjE5LjE5IDAgMDAtLjE2LjE5djMuNTRhLjE5LjE5IDAgMDAuMTUuMTlMNS43IDE3YS4yMy4yMyAwIDAwLjE0IDB6IiBmaWxsPSJub25lIi8+PHBhdGggZD0iTTIuODcgMTIuNTZ2My45bDIuODkuNjJWMTJ6bTEuMjIgMy42MUwzLjI4IDE2di0zbC44MS0uMTR6bTEuMjYuMjNsLS45My0uMTV2LTMuNDRsLjkzLS4xNnoiIGZpbGw9IiMzNDFhNmUiLz48cGF0aCBmaWxsPSJ1cmwoI2cpIiBkPSJNMTEuOTEgMTIuMDhsLTIuODYuNTN2My45bDIuODYuNjEgMi44Ny0xLjE1di0yLjkxbC0yLjg3LS45OHoiLz48cGF0aCBkPSJNOS4wNSAxMi42MXYzLjlsMi44OS42MXYtNXptMS4yMiAzLjYxbC0uODEtLjE3di0zbC44MS0uMTR6bTEuMjYuMjJsLS45My0uMTV2LTMuNDNsLjkzLS4xNnoiIGZpbGw9IiMzNDFhNmUiLz48L3N2Zz4=" vertex="1" parent="1">
          <mxGeometry x="-470.5400000000001" y="440.75" width="48" height="48" as="geometry" />
        </mxCell>
        <mxCell id="pv9ZLLiu9-7sLAFe4-xA-53" value="" style="shape=image;verticalLabelPosition=bottom;verticalAlign=top;imageAspect=0;aspect=fixed;image=data:image/svg+xml,PHN2ZyB4bWxucz0iaHR0cDovL3d3dy53My5vcmcvMjAwMC9zdmciIHZpZXdCb3g9IjAgMCAxOCAxOCI+PGRlZnM+PGxpbmVhckdyYWRpZW50IGlkPSJhIiB4MT0iMi45NCIgeTE9IjMuNzQiIHgyPSI4LjY3IiB5Mj0iMy43NCIgZ3JhZGllbnRVbml0cz0idXNlclNwYWNlT25Vc2UiPjxzdG9wIG9mZnNldD0iMCIgc3RvcC1jb2xvcj0iI2I3N2FmNCIvPjxzdG9wIG9mZnNldD0iMSIgc3RvcC1jb2xvcj0iIzc3M2FkYyIvPjwvbGluZWFyR3JhZGllbnQ+PGxpbmVhckdyYWRpZW50IGlkPSJiIiB4MT0iOS4xMyIgeTE9IjMuNzkiIHgyPSIxNC44NSIgeTI9IjMuNzkiIGdyYWRpZW50VW5pdHM9InVzZXJTcGFjZU9uVXNlIj48c3RvcCBvZmZzZXQ9IjAiIHN0b3AtY29sb3I9IiNiNzdhZjQiLz48c3RvcCBvZmZzZXQ9IjEiIHN0b3AtY29sb3I9IiM3NzNhZGMiLz48L2xpbmVhckdyYWRpZW50PjxsaW5lYXJHcmFkaWVudCBpZD0iYyIgeDE9Ii4wMSIgeTE9IjkuMTIiIHgyPSI1LjczIiB5Mj0iOS4xMiIgZ3JhZGllbnRVbml0cz0idXNlclNwYWNlT25Vc2UiPjxzdG9wIG9mZnNldD0iMCIgc3RvcC1jb2xvcj0iI2I3N2FmNCIvPjxzdG9wIG9mZnNldD0iMSIgc3RvcC1jb2xvcj0iIzc3M2FkYyIvPjwvbGluZWFyR3JhZGllbnQ+PGxpbmVhckdyYWRpZW50IGlkPSJkIiB4MT0iNi4xOCIgeTE9IjkuMDgiIHgyPSIxMS45IiB5Mj0iOS4wOCIgZ3JhZGllbnRVbml0cz0idXNlclNwYWNlT25Vc2UiPjxzdG9wIG9mZnNldD0iMCIgc3RvcC1jb2xvcj0iI2I3N2FmNCIvPjxzdG9wIG9mZnNldD0iMSIgc3RvcC1jb2xvcj0iIzc3M2FkYyIvPjwvbGluZWFyR3JhZGllbnQ+PGxpbmVhckdyYWRpZW50IGlkPSJlIiB4MT0iMTIuMzUiIHkxPSI5LjEzIiB4Mj0iMTguMDgiIHkyPSI5LjEzIiBncmFkaWVudFVuaXRzPSJ1c2VyU3BhY2VPblVzZSI+PHN0b3Agb2Zmc2V0PSIwIiBzdG9wLWNvbG9yPSIjYjc3YWY0Ii8+PHN0b3Agb2Zmc2V0PSIxIiBzdG9wLWNvbG9yPSIjNzczYWRjIi8+PC9saW5lYXJHcmFkaWVudD48bGluZWFyR3JhZGllbnQgaWQ9ImYiIHgxPSIyLjg3IiB5MT0iMTQuNTYiIHgyPSI4LjYiIHkyPSIxNC41NiIgZ3JhZGllbnRVbml0cz0idXNlclNwYWNlT25Vc2UiPjxzdG9wIG9mZnNldD0iMCIgc3RvcC1jb2xvcj0iI2I3N2FmNCIvPjxzdG9wIG9mZnNldD0iMSIgc3RvcC1jb2xvcj0iIzc3M2FkYyIvPjwvbGluZWFyR3JhZGllbnQ+PGxpbmVhckdyYWRpZW50IGlkPSJnIiB4MT0iOS4wNSIgeTE9IjE0LjYiIHgyPSIxNC43OCIgeTI9IjE0LjYiIGdyYWRpZW50VW5pdHM9InVzZXJTcGFjZU9uVXNlIj48c3RvcCBvZmZzZXQ9IjAiIHN0b3AtY29sb3I9IiNiNzdhZjQiLz48c3RvcCBvZmZzZXQ9IjEiIHN0b3AtY29sb3I9IiM3NzNhZGMiLz48L2xpbmVhckdyYWRpZW50PjwvZGVmcz48cGF0aCBmaWxsPSJ1cmwoI2EpIiBkPSJNNS44IDEuMjJsLTIuODYuNTN2My45bDIuODYuNjEgMi44Ny0xLjE1VjIuMkw1LjggMS4yMnoiLz48cGF0aCBkPSJNNS45MSA2LjJsMi42Mi0xLjA2QS4yLjIgMCAwMDguNjUgNVYyLjM2YS4yMS4yMSAwIDAwLS4xMy0uMThsLTIuNjUtLjloLS4xMmwtMi42LjQ4YS4yLjIgMCAwMC0uMTUuMTh2My41M2EuMTkuMTkgMCAwMC4xNS4xOWwyLjYzLjU1YS4zMi4zMiAwIDAwLjEzLS4wMXoiIGZpbGw9Im5vbmUiLz48cGF0aCBkPSJNMi45NCAxLjc1djMuOWwyLjg5LjYxdi01em0xLjIyIDMuNmwtLjgxLS4xNnYtM2wuODEtLjEzem0xLjI2LjIzbC0uOTMtLjE1VjJsLjkzLS4xNnoiIGZpbGw9IiMzNDFhNmUiLz48cGF0aCBmaWxsPSJ1cmwoI2IpIiBkPSJNMTEuOTkgMS4yN2wtMi44Ni41M3YzLjlsMi44Ni42MSAyLjg2LTEuMTZ2LTIuOWwtMi44Ni0uOTh6Ii8+PHBhdGggZD0iTTkuMTMgMS44djMuOWwyLjg3LjYxdi01em0xLjIxIDMuNmwtLjgxLS4xNnYtM2wuODEtLjEzem0xLjI2LjIzbC0uOTMtLjE1VjIuMDVsLjkzLS4xN3oiIGZpbGw9IiMzNDFhNmUiLz48cGF0aCBmaWxsPSJ1cmwoI2MpIiBkPSJNMi44NyA2LjZsLTIuODYuNTN2My45bDIuODYuNjEgMi44Ny0xLjE1VjcuNThMMi44NyA2LjZ6Ii8+PHBhdGggZD0iTTAgNy4xM1YxMWwyLjg5LjYxdi01em0xLjIxIDMuNjFsLS44MS0uMTd2LTNsLjgxLS4xNHptMS4yNy4yNmwtLjkzLS4xNVY3LjM4bC45My0uMTZ6IiBmaWxsPSIjMzQxYTZlIi8+PHBhdGggZmlsbD0idXJsKCNkKSIgZD0iTTkuMDQgNi41NmwtMi44Ni41M3YzLjlsMi44Ni42MiAyLjg2LTEuMTZWNy41NGwtMi44Ni0uOTh6Ii8+PHBhdGggZD0iTTYuMTggNy4wOVYxMWwyLjg4LjYxdi01em0xLjIxIDMuNjFsLS44MS0uMTd2LTNsLjgxLS4xNHptMS4yNi4yMmwtLjkzLS4xNVY3LjM0bC45My0uMTZ6IiBmaWxsPSIjMzQxYTZlIi8+PHBhdGggZmlsbD0idXJsKCNlKSIgZD0iTTE1LjIxIDYuNjFsLTIuODYuNTN2My45bDIuODYuNjEgMi44Ny0xLjE1VjcuNTlsLTIuODctLjk4eiIvPjxwYXRoIGQ9Ik0xMi4zNSA3LjE0VjExbDIuODkuNjF2LTV6bTEuMjIgMy42MWwtLjgxLS4xN3YtM2wuODEtLjE0em0xLjI2LjIybC0uOTMtLjE1VjcuMzlsLjkzLS4xNnoiIGZpbGw9IiMzNDFhNmUiLz48cGF0aCBmaWxsPSJ1cmwoI2YpIiBkPSJNNS43MyAxMi4wNGwtMi44Ni41MnYzLjlsMi44Ni42MiAyLjg3LTEuMTZ2LTIuOWwtMi44Ny0uOTh6Ii8+PHBhdGggZD0iTTUuODQgMTdsMi42MS0xYS4xOC4xOCAwIDAwLjEyLS4xOHYtMi42YS4yLjIgMCAwMC0uMTMtLjIybC0yLjY0LS45YS4xNy4xNyAwIDAwLS4xMiAwbC0yLjYuNDdhLjE5LjE5IDAgMDAtLjE2LjE5djMuNTRhLjE5LjE5IDAgMDAuMTUuMTlMNS43IDE3YS4yMy4yMyAwIDAwLjE0IDB6IiBmaWxsPSJub25lIi8+PHBhdGggZD0iTTIuODcgMTIuNTZ2My45bDIuODkuNjJWMTJ6bTEuMjIgMy42MUwzLjI4IDE2di0zbC44MS0uMTR6bTEuMjYuMjNsLS45My0uMTV2LTMuNDRsLjkzLS4xNnoiIGZpbGw9IiMzNDFhNmUiLz48cGF0aCBmaWxsPSJ1cmwoI2cpIiBkPSJNMTEuOTEgMTIuMDhsLTIuODYuNTN2My45bDIuODYuNjEgMi44Ny0xLjE1di0yLjkxbC0yLjg3LS45OHoiLz48cGF0aCBkPSJNOS4wNSAxMi42MXYzLjlsMi44OS42MXYtNXptMS4yMiAzLjYxbC0uODEtLjE3di0zbC44MS0uMTR6bTEuMjYuMjJsLS45My0uMTV2LTMuNDNsLjkzLS4xNnoiIGZpbGw9IiMzNDFhNmUiLz48L3N2Zz4=" vertex="1" parent="1">
          <mxGeometry x="-530.17" y="440.75" width="48" height="48" as="geometry" />
        </mxCell>
        <mxCell id="pv9ZLLiu9-7sLAFe4-xA-59" value="" style="shape=image;verticalLabelPosition=bottom;verticalAlign=top;imageAspect=0;aspect=fixed;image=data:image/svg+xml,PHN2ZyB4bWxucz0iaHR0cDovL3d3dy53My5vcmcvMjAwMC9zdmciIHZpZXdCb3g9IjAgMCAxOCAxOCI+PGRlZnM+PGxpbmVhckdyYWRpZW50IGlkPSJhIiB4MT0iNS41MSIgeTE9IjgwMi41IiB4Mj0iMTIuOTQiIHkyPSI4MTAuNTgiIGdyYWRpZW50VHJhbnNmb3JtPSJtYXRyaXgoMSAwIDAgMS41OSAwIC0xMjc4Ljc2KSIgZ3JhZGllbnRVbml0cz0idXNlclNwYWNlT25Vc2UiPjxzdG9wIG9mZnNldD0iMCIgc3RvcC1jb2xvcj0iIzAwNzhkNCIvPjxzdG9wIG9mZnNldD0iLjAyIiBzdG9wLWNvbG9yPSIjMGQ3ZWQ4Ii8+PHN0b3Agb2Zmc2V0PSIuMDgiIHN0b3AtY29sb3I9IiMyYjhhZTAiLz48c3RvcCBvZmZzZXQ9Ii4xNSIgc3RvcC1jb2xvcj0iIzQxOTRlNyIvPjxzdG9wIG9mZnNldD0iLjIyIiBzdG9wLWNvbG9yPSIjNTE5YmViIi8+PHN0b3Agb2Zmc2V0PSIuMjkiIHN0b3AtY29sb3I9IiM1YjlmZWUiLz48c3RvcCBvZmZzZXQ9Ii40IiBzdG9wLWNvbG9yPSIjNWVhMGVmIi8+PHN0b3Agb2Zmc2V0PSIuNTUiIHN0b3AtY29sb3I9IiM1YjlmZWUiLz48c3RvcCBvZmZzZXQ9Ii42OCIgc3RvcC1jb2xvcj0iIzUwOWFlYiIvPjxzdG9wIG9mZnNldD0iLjgiIHN0b3AtY29sb3I9IiMzZjkyZTYiLz48c3RvcCBvZmZzZXQ9Ii45MSIgc3RvcC1jb2xvcj0iIzI2ODhkZiIvPjxzdG9wIG9mZnNldD0iLjk5IiBzdG9wLWNvbG9yPSIjMTI3ZmQ5Ii8+PC9saW5lYXJHcmFkaWVudD48L2RlZnM+PGVsbGlwc2UgY3g9IjguOTYiIGN5PSIxMS44MiIgcng9IjcuNSIgcnk9IjMuMDgiIGZpbGw9IiM3NmJjMmQiLz48ZWxsaXBzZSBjeD0iOS4xNSIgY3k9IjExLjc5IiByeD0iMi40OSIgcnk9Ii42OCIgZmlsbD0iIzVlOTYyNCIvPjxlbGxpcHNlIGN4PSI4Ljk2IiBjeT0iNC45OSIgcng9IjcuNSIgcnk9IjMuMDgiIGZpbGw9InVybCgjYSkiLz48ZWxsaXBzZSBjeD0iOS4xNSIgY3k9IjQuOTUiIHJ4PSIyLjQ5IiByeT0iLjY4IiBmaWxsPSIjMDA1YmExIi8+PHBhdGggZD0iTTkgMTQuODRjNC4xNSAwIDcuNS0xLjM4IDcuNS0zLjA4djEuODJjLS4xNCAxLjY1LTMuNDQgMy03LjUgM1MxLjUgMTUuMiAxLjUgMTMuNXYtMS43NGMtLjA0IDEuNyAzLjMyIDMuMDggNy41IDMuMDh6IiBmaWxsPSIjNWU5NjI0Ii8+PHBhdGggZD0iTTkgOGM0LjE1IDAgNy41LTEuMzggNy41LTMuMDh2MS44MmMtLjE0IDEuNjUtMy40NCAzLTcuNSAzUzEuNSA4LjM2IDEuNSA2LjY2VjQuOTJDMS40NiA2LjYyIDQuODIgOCA5IDh6IiBmaWxsPSIjMDA3OGQ0Ii8+PC9zdmc+" vertex="1" parent="1">
          <mxGeometry x="-293.05999999999995" y="467.4" width="44.71" height="44.71" as="geometry" />
        </mxCell>
        <mxCell id="pv9ZLLiu9-7sLAFe4-xA-242" style="edgeStyle=orthogonalEdgeStyle;rounded=0;orthogonalLoop=1;jettySize=auto;html=1;" edge="1" parent="1" source="pv9ZLLiu9-7sLAFe4-xA-60" target="pv9ZLLiu9-7sLAFe4-xA-145">
          <mxGeometry relative="1" as="geometry" />
        </mxCell>
        <mxCell id="pv9ZLLiu9-7sLAFe4-xA-60" value="" style="shape=image;verticalLabelPosition=bottom;verticalAlign=top;imageAspect=0;aspect=fixed;image=data:image/svg+xml,PHN2ZyB4bWxucz0iaHR0cDovL3d3dy53My5vcmcvMjAwMC9zdmciIHZpZXdCb3g9IjAgMCA2NCA2NCI+PHN0eWxlLz48cGF0aCBmaWxsPSJub25lIiBpZD0iY2FudmFzX2JhY2tncm91bmQiIGQ9Ik0tMS0xaDY2djY2SC0xeiIvPjxwYXRoIGQ9Ik02MS45IDMyLjhjMCAxNi44OTctMTMuMjU1IDMwLjYtMjkuNiAzMC42UzIuNyA0OS42OTcgMi43IDMyLjhjMC0xNi44OTcgMTMuMjU1LTMwLjYgMjkuNi0zMC42czI5LjYgMTMuNzAzIDI5LjYgMzAuNiIgaWQ9InN2Z18yMyIgZmlsbD0iI2MwMCIvPjxwYXRoIGQ9Ik00Ny4zNTMgNDUuMTFMMzMuOTM5IDEyLjA2NGMtLjM4NS0uOTU3LTEuMTU1LTEuNDY0LTIuMDktMS40NjQtLjkzNCAwLTEuNzU4LjUwNy0yLjE0MyAxLjQ2NEwxNSA0OC4zMTloNS4wM2w1LjgyOC0xNC45NDcgMTcuMzk5IDE0LjM4NGMuNjg3LjU5IDEuMjEuODQ0IDEuODcuODQ0IDEuMzE5IDAgMi40NzMtMS4wMTMgMi40NzMtMi40NzcgMC0uMjI1LS4wODItLjU5MS0uMjQ3LTEuMDEzTTMxLjg3NyAxOC4wMDNsOC43MTQgMjIuMDQtMTMuMTY3LTEwLjY0IDQuNDUzLTExLjR6IiBpZD0ic3ZnXzI0IiBmaWxsPSIjZmZmIi8+PC9zdmc+" vertex="1" parent="1">
          <mxGeometry x="-391.31" y="432" width="98.25" height="98.25" as="geometry" />
        </mxCell>
        <mxCell id="pv9ZLLiu9-7sLAFe4-xA-69" value="" style="rounded=0;whiteSpace=wrap;html=1;dashed=1;strokeWidth=2;perimeterSpacing=2;" vertex="1" parent="1">
          <mxGeometry x="-759.46" y="1175" width="519.46" height="253" as="geometry" />
        </mxCell>
        <mxCell id="pv9ZLLiu9-7sLAFe4-xA-73" value="" style="verticalLabelPosition=bottom;html=1;verticalAlign=top;align=center;strokeColor=none;fillColor=#00BEF2;shape=mxgraph.azure.git_repository;" vertex="1" parent="1">
          <mxGeometry x="-202.5" y="434" width="127" height="108" as="geometry" />
        </mxCell>
        <mxCell id="pv9ZLLiu9-7sLAFe4-xA-81" value="&lt;span style=&quot;font-size: 20px;&quot;&gt;Bastion&lt;/span&gt;" style="rounded=1;whiteSpace=wrap;html=1;strokeWidth=2;fillWeight=4;hachureGap=8;hachureAngle=45;fillColor=#1ba1e2;sketch=1;" vertex="1" parent="1">
          <mxGeometry x="-402.46000000000004" y="377" width="138" height="35" as="geometry" />
        </mxCell>
        <mxCell id="pv9ZLLiu9-7sLAFe4-xA-82" value="&lt;span style=&quot;font-size: 20px;&quot;&gt;Aks Cluster&lt;/span&gt;" style="rounded=1;whiteSpace=wrap;html=1;strokeWidth=2;fillWeight=4;hachureGap=8;hachureAngle=45;fillColor=#1ba1e2;sketch=1;" vertex="1" parent="1">
          <mxGeometry x="-571" y="396" width="138" height="35" as="geometry" />
        </mxCell>
        <mxCell id="pv9ZLLiu9-7sLAFe4-xA-84" value="&lt;span style=&quot;font-size: 20px;&quot;&gt;Stage 1&lt;/span&gt;" style="rounded=1;whiteSpace=wrap;html=1;strokeWidth=2;fillWeight=4;hachureGap=8;hachureAngle=45;fillColor=#1ba1e2;sketch=1;" vertex="1" parent="1">
          <mxGeometry x="-212" y="374" width="163" height="35" as="geometry" />
        </mxCell>
        <mxCell id="pv9ZLLiu9-7sLAFe4-xA-85" value="" style="rounded=0;whiteSpace=wrap;html=1;dashed=1;strokeWidth=2;perimeterSpacing=2;" vertex="1" parent="1">
          <mxGeometry x="-227" y="1174" width="192" height="257" as="geometry" />
        </mxCell>
        <mxCell id="pv9ZLLiu9-7sLAFe4-xA-86" value="" style="shape=image;html=1;verticalAlign=top;verticalLabelPosition=bottom;labelBackgroundColor=#ffffff;imageAspect=0;aspect=fixed;image=https://cdn1.iconfinder.com/data/icons/hawcons/32/699266-icon-38-file-yml-128.png" vertex="1" parent="1">
          <mxGeometry x="-180.76" y="1237" width="98.51" height="98.51" as="geometry" />
        </mxCell>
        <mxCell id="pv9ZLLiu9-7sLAFe4-xA-88" value="&lt;span style=&quot;font-size: 20px;&quot;&gt;Git Action&lt;/span&gt;" style="rounded=1;whiteSpace=wrap;html=1;strokeWidth=2;fillWeight=4;hachureGap=8;hachureAngle=45;fillColor=#1ba1e2;sketch=1;" vertex="1" parent="1">
          <mxGeometry x="-295.24" y="208" width="138" height="35" as="geometry" />
        </mxCell>
        <mxCell id="pv9ZLLiu9-7sLAFe4-xA-287" style="edgeStyle=orthogonalEdgeStyle;rounded=0;orthogonalLoop=1;jettySize=auto;html=1;" edge="1" parent="1" source="pv9ZLLiu9-7sLAFe4-xA-92" target="pv9ZLLiu9-7sLAFe4-xA-60">
          <mxGeometry relative="1" as="geometry" />
        </mxCell>
        <mxCell id="pv9ZLLiu9-7sLAFe4-xA-290" style="edgeStyle=orthogonalEdgeStyle;rounded=0;orthogonalLoop=1;jettySize=auto;html=1;" edge="1" parent="1" source="pv9ZLLiu9-7sLAFe4-xA-92">
          <mxGeometry relative="1" as="geometry">
            <mxPoint x="-792.7333068847656" y="615.625" as="targetPoint" />
          </mxGeometry>
        </mxCell>
        <mxCell id="pv9ZLLiu9-7sLAFe4-xA-313" style="edgeStyle=orthogonalEdgeStyle;rounded=0;orthogonalLoop=1;jettySize=auto;html=1;entryX=0.5;entryY=0;entryDx=0;entryDy=0;" edge="1" parent="1" source="pv9ZLLiu9-7sLAFe4-xA-92" target="pv9ZLLiu9-7sLAFe4-xA-189">
          <mxGeometry relative="1" as="geometry">
            <Array as="points">
              <mxPoint x="-446" y="734" />
              <mxPoint x="-372" y="734" />
            </Array>
          </mxGeometry>
        </mxCell>
        <mxCell id="pv9ZLLiu9-7sLAFe4-xA-92" value="" style="shape=image;verticalLabelPosition=bottom;verticalAlign=top;imageAspect=0;aspect=fixed;image=data:image/svg+xml,PHN2ZyB4bWxucz0iaHR0cDovL3d3dy53My5vcmcvMjAwMC9zdmciIHhtbG5zOnhsaW5rPSJodHRwOi8vd3d3LnczLm9yZy8xOTk5L3hsaW5rIiBkYXRhLW5hbWU9ImZsdWVudF9pY29ucyIgdmlld0JveD0iMCAwIDE4IDE4Ij48ZGVmcz48bGluZWFyR3JhZGllbnQgaWQ9ImEiIHgxPSI5Ljg4IiB5MT0iOC41OSIgeDI9IjExLjUyIiB5Mj0iMTAuMjMiIGdyYWRpZW50VHJhbnNmb3JtPSJyb3RhdGUoLS4wOCAtMjg1LjQ2NCAtMTQ1NC4wOCkiIGdyYWRpZW50VW5pdHM9InVzZXJTcGFjZU9uVXNlIj48c3RvcCBvZmZzZXQ9IjAiIHN0b3AtY29sb3I9IiM4NmQ2MzMiLz48c3RvcCBvZmZzZXQ9Ii4yNCIgc3RvcC1jb2xvcj0iIzgzZDIzMiIvPjxzdG9wIG9mZnNldD0iLjUiIHN0b3AtY29sb3I9IiM3Y2M1MmYiLz48c3RvcCBvZmZzZXQ9Ii43NiIgc3RvcC1jb2xvcj0iIzZmYjAyYSIvPjxzdG9wIG9mZnNldD0iMSIgc3RvcC1jb2xvcj0iIzVlOTYyNCIvPjwvbGluZWFyR3JhZGllbnQ+PGxpbmVhckdyYWRpZW50IGlkPSJiIiB4MT0iNi4xOCIgeTE9IjguNTkiIHgyPSI3LjgxIiB5Mj0iMTAuMjMiIHhsaW5rOmhyZWY9IiNhIi8+PGxpbmVhckdyYWRpZW50IGlkPSJjIiB4MT0iMi40OCIgeTE9IjguNTkiIHgyPSI0LjExIiB5Mj0iMTAuMjMiIHhsaW5rOmhyZWY9IiNhIi8+PC9kZWZzPjxjaXJjbGUgY3g9IjEyLjc0IiBjeT0iOC45OSIgcj0iMS4xNiIgZmlsbD0idXJsKCNhKSIvPjxjaXJjbGUgY3g9IjkuMDQiIGN5PSI5IiByPSIxLjE2IiBmaWxsPSJ1cmwoI2IpIi8+PGNpcmNsZSBjeD0iNS4zNCIgY3k9IjkiIHI9IjEuMTYiIGZpbGw9InVybCgjYykiLz48cGF0aCBkPSJNNi4xODIgMTMuNjM4bC0uNjY0LjY2NWEuMy4zIDAgMDEtLjQyNCAwTC4xOCA5LjQwNGEuNi42IDAgMDEtLjAwMS0uODQ4bC42NjMtLjY2NiA1LjM0IDUuMzI0YS4zLjMgMCAwMTAgLjQyNXoiIGZpbGw9IiM1MGU2ZmYiLz48cGF0aCBkPSJNNS40MTggMy43MDhsLjY2Ni42NjRhLjMuMyAwIDAxMCAuNDI0TC44MzggMTAuMDU3bC0uNjY2LS42NjNhLjYuNiAwIDAxLS4wMDEtLjg0OUw0Ljk5NCAzLjcxYS4zLjMgMCAwMS40MjQgMHoiIGZpbGw9IiMxNDkwZGYiLz48cGF0aCBkPSJNMTcuMTU3IDcuODhsLjY2My42NjZhLjYuNiAwIDAxMCAuODQ4bC00LjkxNSA0LjlhLjMuMyAwIDAxLS40MjQgMGwtLjY2NC0uNjY2YS4zLjMgMCAwMTAtLjQyNGw1LjM0LTUuMzI0eiIgZmlsbD0iIzUwZTZmZiIvPjxwYXRoIGQ9Ik0xNy44MTggOS4zODdsLS42NjUuNjY0LTUuMjQ3LTUuMjYxYS4zLjMgMCAwMTAtLjQyNWwuNjc0LS42N2EuMy4zIDAgMDEuNDI0IDBsNC44MjMgNC44MzZhLjYuNiAwIDAxLS4wMDIuODQ5eiIgZmlsbD0iIzE0OTBkZiIvPjwvc3ZnPg==" vertex="1" parent="1">
          <mxGeometry x="-492.17" y="570" width="91.25" height="91.25" as="geometry" />
        </mxCell>
        <mxCell id="pv9ZLLiu9-7sLAFe4-xA-96" value="" style="shape=image;html=1;verticalAlign=top;verticalLabelPosition=bottom;labelBackgroundColor=#ffffff;imageAspect=0;aspect=fixed;image=https://cdn1.iconfinder.com/data/icons/hawcons/32/699266-icon-38-file-yml-128.png" vertex="1" parent="1">
          <mxGeometry x="-181.42000000000002" y="1290" width="96.92" height="96.92" as="geometry" />
        </mxCell>
        <mxCell id="pv9ZLLiu9-7sLAFe4-xA-97" value="" style="rounded=0;whiteSpace=wrap;html=1;dashed=1;strokeWidth=2;perimeterSpacing=2;" vertex="1" parent="1">
          <mxGeometry x="-433" y="900" width="192" height="265" as="geometry" />
        </mxCell>
        <mxCell id="pv9ZLLiu9-7sLAFe4-xA-98" value="" style="rounded=0;whiteSpace=wrap;html=1;dashed=1;strokeWidth=2;perimeterSpacing=2;" vertex="1" parent="1">
          <mxGeometry x="-228" y="621" width="193" height="263" as="geometry" />
        </mxCell>
        <mxCell id="pv9ZLLiu9-7sLAFe4-xA-100" value="Availability Zone" style="fillColor=none;strokeColor=#147EBA;dashed=1;verticalAlign=top;fontStyle=0;fontColor=#147EBA;whiteSpace=wrap;html=1;labelBackgroundColor=default;labelBorderColor=default;spacing=5;" vertex="1" parent="1">
          <mxGeometry x="-760" y="900" width="319.54" height="264" as="geometry" />
        </mxCell>
        <mxCell id="pv9ZLLiu9-7sLAFe4-xA-102" value="" style="shape=image;verticalLabelPosition=bottom;verticalAlign=top;imageAspect=0;aspect=fixed;image=data:image/svg+xml,PHN2ZyB4bWxucz0iaHR0cDovL3d3dy53My5vcmcvMjAwMC9zdmciIGRhdGEtbmFtZT0iZmx1ZW50X2ljb25zIiB2aWV3Qm94PSIwIDAgMTggMTgiPjxkZWZzPjxsaW5lYXJHcmFkaWVudCBpZD0iYSIgeDE9IjguNjciIHkxPSIxNy41NCIgeDI9IjguNjciIHkyPSItMS4xOSIgZ3JhZGllbnRVbml0cz0idXNlclNwYWNlT25Vc2UiPjxzdG9wIG9mZnNldD0iMCIgc3RvcC1jb2xvcj0iIzAwNzhkNCIvPjxzdG9wIG9mZnNldD0iLjE2IiBzdG9wLWNvbG9yPSIjMTM4MGRhIi8+PHN0b3Agb2Zmc2V0PSIuNTMiIHN0b3AtY29sb3I9IiMzYzkxZTUiLz48c3RvcCBvZmZzZXQ9Ii44MiIgc3RvcC1jb2xvcj0iIzU1OWNlYyIvPjxzdG9wIG9mZnNldD0iMSIgc3RvcC1jb2xvcj0iIzVlYTBlZiIvPjwvbGluZWFyR3JhZGllbnQ+PGxpbmVhckdyYWRpZW50IGlkPSJiIiB4MT0iMTIuOTYiIHkxPSIxMC41IiB4Mj0iMTIuOTYiIHkyPSIxMi45MiIgZ3JhZGllbnRVbml0cz0idXNlclNwYWNlT25Vc2UiPjxzdG9wIG9mZnNldD0iMCIgc3RvcC1jb2xvcj0iIzMzMzEzMiIvPjxzdG9wIG9mZnNldD0iMSIgc3RvcC1jb2xvcj0iIzViNWE1YyIvPjwvbGluZWFyR3JhZGllbnQ+PC9kZWZzPjxwYXRoIGQ9Ik0xNi4yMiA3LjQ0QTQuMTkgNC4xOSAwIDAwMTQgNi4zMmE0LjkxIDQuOTEgMCAwMC01LjEtNC43IDUuMDcgNS4wNyAwIDAwLTQuODQgMy4yOUE0LjYyIDQuNjIgMCAwMDAgOS4zOWE0LjczIDQuNzMgMCAwMDQuODkgNC41NGg4LjU2YTQgNCAwIDAwMy45Mi0zLjgxIDMuNjcgMy42NyAwIDAwLTEuMTQtMi42MyIgZmlsbD0idXJsKCNhKSIvPjxwYXRoIGZpbGw9IiM3Njc2NzYiIGQ9Ik0xMC4wNyA2LjIybC4wMSA0LjI4IDcuOTEgMS42OFY5LjJsLTcuOTItMi45OHoiLz48cGF0aCBmaWxsPSIjOTk5IiBkPSJNMTAuMDcgNi4yMmwtMi4xNCAxLjN2My45OGwyLjE1LTEiLz48cGF0aCBmaWxsPSIjYTNhM2EzIiBkPSJNMTMuNjggMTAuNTZsLjcyLjJWOC40M2wtLjcyLS4yNXYyLjM4em0tLjcyLTIuNjFsLS43Mi0uMjZ2Mi40OWwuNzIuMlY3Ljk1em0yLjE2IDNsLjcuMTkuMDItMi4yMi0uNzItLjI0djIuMjd6bS00LjMxLTEuMTRsLjcyLjE4VjcuNDZsLS43Mi0uMjR2Mi41OXptNi40Ni0uNGwtLjcyLS4yNXYyLjE3bC43Mi4yVjkuNDF6Ii8+PHBhdGggZGF0YS1uYW1lPSJQYXRoIDE1ODgiIGQ9Ik04LjY2IDEwLjQzbC0uMzYuMjFWNy44MWwuMzYtLjE5em0uNzEtMy4yMkw5IDcuNDV2Mi43NWwuMzctLjJ6IiBmaWxsPSIjYjNiM2IzIi8+PHBhdGggZmlsbD0idXJsKCNiKSIgZD0iTTE3Ljk5IDEyLjE4bC0yLjE2Ljc0LTcuOS0xLjQyIDIuMTUtMSA3LjkxIDEuNjh6Ii8+PHBhdGggZmlsbD0iIzc2NzY3NiIgZD0iTTE3Ljk5IDE1LjIzbC03Ljk1IDEuNTEuMDQtNS41OSA3LjkxIDEuNDd2Mi42MXoiLz48cGF0aCBmaWxsPSIjYTNhM2EzIiBkPSJNMTAuODEgMTUuODJ2LTMuNTVsLjcyLjA5djMuMzRsLS43Mi4xMnptMi4xNS0uMzZsLS43Mi4xM3YtMy4xNGwuNzIuMTF2Mi45em0uNzItLjExdi0yLjcybC43Mi4wOXYyLjVsLS43Mi4xM3ptMi4xNS0uMzhsLS43MS4xM3YtMi4yOWwuNzEuMTF2Mi4wNXptMS40Ni0uMjNsLS43NC4xM3YtMS44OGwuNjkuMDkuMDUgMS42NnoiLz48cGF0aCBkYXRhLW5hbWU9IlBhdGggMTU4OSIgZD0iTTcuOTMgMTUuNDZWMTIuMmwyLjE2LTF2NS42eiIgZmlsbD0iIzk5OSIvPjxwYXRoIGRhdGEtbmFtZT0iUGF0aCAxNTkwIiBkPSJNOC42MSAxNS40NWwtLjMyLS4xNnYtMi43NmwuMzItLjE1ek05LjM4IDEybC0uMzguMTl2My40OGwuMzcuMTlWMTJ6IiBmaWxsPSIjYjNiM2IzIi8+PC9zdmc+" vertex="1" parent="1">
          <mxGeometry x="-723.8299999999999" y="1063" width="62" height="62" as="geometry" />
        </mxCell>
        <mxCell id="pv9ZLLiu9-7sLAFe4-xA-103" value="&lt;font style=&quot;font-size: 20px;&quot;&gt;Docker Push&lt;/font&gt;" style="rounded=1;whiteSpace=wrap;html=1;strokeWidth=2;fillWeight=4;hachureGap=8;hachureAngle=45;fillColor=#1ba1e2;sketch=1;" vertex="1" parent="1">
          <mxGeometry x="-639" y="1070" width="190" height="35" as="geometry" />
        </mxCell>
        <mxCell id="pv9ZLLiu9-7sLAFe4-xA-104" value="&lt;font style=&quot;font-size: 20px;&quot;&gt;Docker Build&lt;/font&gt;" style="rounded=1;whiteSpace=wrap;html=1;strokeWidth=2;fillWeight=4;hachureGap=8;hachureAngle=45;fillColor=#1ba1e2;sketch=1;" vertex="1" parent="1">
          <mxGeometry x="-639" y="1008" width="188" height="35" as="geometry" />
        </mxCell>
        <mxCell id="pv9ZLLiu9-7sLAFe4-xA-113" value="&lt;span style=&quot;font-size: 20px;&quot;&gt;Deployment Version&lt;/span&gt;" style="rounded=1;whiteSpace=wrap;html=1;strokeWidth=2;fillWeight=4;hachureGap=8;hachureAngle=45;fillColor=#1ba1e2;sketch=1;" vertex="1" parent="1">
          <mxGeometry x="-695" y="1204" width="414" height="35" as="geometry" />
        </mxCell>
        <mxCell id="pv9ZLLiu9-7sLAFe4-xA-114" value="&lt;span style=&quot;font-size: 20px;&quot;&gt;Stage 6&lt;/span&gt;" style="rounded=1;whiteSpace=wrap;html=1;strokeWidth=2;fillWeight=4;hachureGap=8;hachureAngle=45;fillColor=#1ba1e2;sketch=1;" vertex="1" parent="1">
          <mxGeometry x="-213" y="1204" width="163" height="35" as="geometry" />
        </mxCell>
        <mxCell id="pv9ZLLiu9-7sLAFe4-xA-117" value="&lt;span style=&quot;font-size: 20px;&quot;&gt;Stage 2&lt;/span&gt;" style="rounded=1;whiteSpace=wrap;html=1;strokeWidth=2;fillWeight=4;hachureGap=8;hachureAngle=45;fillColor=#1ba1e2;sketch=1;" vertex="1" parent="1">
          <mxGeometry x="-217" y="632" width="163" height="35" as="geometry" />
        </mxCell>
        <mxCell id="pv9ZLLiu9-7sLAFe4-xA-122" value="" style="shape=image;verticalLabelPosition=bottom;verticalAlign=top;imageAspect=0;aspect=fixed;image=data:image/svg+xml,PHN2ZyB4bWxucz0iaHR0cDovL3d3dy53My5vcmcvMjAwMC9zdmciIHZlcnNpb249IjEuMSIgaWQ9InN2ZzM3MjAiIHZpZXdCb3g9IjAgMCA2MC4xNSA2MC4xNSI+PGRlZnMgaWQ9ImRlZnMzNjgyIj48c3R5bGUgaWQ9InN0eWxlMzY4MCI+LmNscy0xe2ZpbGw6IzVjNGVlNTtmaWxsLXJ1bGU6ZXZlbm9kZH08L3N0eWxlPjwvZGVmcz48ZyBpZD0iTGF5ZXJfMiIgZGF0YS1uYW1lPSJMYXllciAyIj48ZyBpZD0iTG9nbyI+PHBhdGggY2xhc3M9ImNscy0xIiBpZD0icG9seWdvbjM3MDYiIGZpbGw9IiM1YzRlZTUiIGZpbGwtcnVsZT0iZXZlbm9kZCIgZD0iTTM0LjYgMzkuMTNsLTE2LjQtOS40N1YxMC43MmwxNi40IDkuNDh6Ii8+PHBhdGggaWQ9InBvbHlnb24zNzA4IiBmaWxsPSIjNDA0MGIyIiBmaWxsLXJ1bGU9ImV2ZW5vZGQiIGQ9Ik01Mi44IDI5LjY3VjEwLjcyTDM2LjQgMjAuMnYxOC45M3oiLz48cGF0aCBjbGFzcz0iY2xzLTEiIGlkPSJwb2x5Z29uMzcxMCIgZmlsbD0iIzVjNGVlNSIgZmlsbC1ydWxlPSJldmVub2RkIiBkPSJNMTYuNCAyOC41NlY5LjYyTDAgLjE1djE4Ljk0eiIvPjxwYXRoIGNsYXNzPSJjbHMtMSIgaWQ9InBvbHlnb24zNzEyIiBmaWxsPSIjNWM0ZWU1IiBmaWxsLXJ1bGU9ImV2ZW5vZGQiIGQ9Ik0zNC42IDQxLjM0di0uMTNsLTE2LjQtOS40N3YxOC45NGwxNi40IDkuNDd6Ii8+PC9nPjwvZz48L3N2Zz4=" vertex="1" parent="1">
          <mxGeometry x="-191.5" y="692.76" width="107" height="107" as="geometry" />
        </mxCell>
        <mxCell id="pv9ZLLiu9-7sLAFe4-xA-126" value="&lt;span style=&quot;font-size: 20px;&quot;&gt;Terraform Files&lt;/span&gt;" style="rounded=1;whiteSpace=wrap;html=1;strokeWidth=2;fillWeight=4;hachureGap=8;hachureAngle=45;fillColor=#1ba1e2;sketch=1;" vertex="1" parent="1">
          <mxGeometry x="-210" y="837" width="163" height="35" as="geometry" />
        </mxCell>
        <mxCell id="pv9ZLLiu9-7sLAFe4-xA-128" value="" style="shape=image;verticalLabelPosition=bottom;verticalAlign=top;imageAspect=0;aspect=fixed;image=data:image/svg+xml,PHN2ZyB4bWxucz0iaHR0cDovL3d3dy53My5vcmcvMjAwMC9zdmciIHZpZXdCb3g9IjAgMCAxOCAxOCI+PGRlZnM+PGxpbmVhckdyYWRpZW50IGlkPSJhIiB4MT0iOS4wMSIgeTE9IjE2LjUiIHgyPSI5LjAxIiB5Mj0iMS41IiBncmFkaWVudFVuaXRzPSJ1c2VyU3BhY2VPblVzZSI+PHN0b3Agb2Zmc2V0PSIwIiBzdG9wLWNvbG9yPSIjNWU5NjQxIi8+PHN0b3Agb2Zmc2V0PSIuMzQiIHN0b3AtY29sb3I9IiM2YmFhNDIiLz48c3RvcCBvZmZzZXQ9Ii42NyIgc3RvcC1jb2xvcj0iIzczYjc0MyIvPjxzdG9wIG9mZnNldD0iMSIgc3RvcC1jb2xvcj0iIzc2YmI0MyIvPjwvbGluZWFyR3JhZGllbnQ+PC9kZWZzPjxwYXRoIGQ9Ik0xNS44OSAyLjkxaDEuMjdhLjM0LjM0IDAgMDEuMzQuMzR2My41YS4zNC4zNCAwIDAxLS4zNC4zNGgtMS4yN1YyLjkxek0xNS44OSA5aDEuMjdhLjM0LjM0IDAgMDEuMzQuMzR2NS44NmEuMzQuMzQgMCAwMS0uMzQuMzRoLTEuMjdWOXoiIGZpbGw9IiNmZmNhMDAiLz48cmVjdCB4PSIyLjEzIiB5PSIxLjUiIHdpZHRoPSIxMy43NiIgaGVpZ2h0PSIxNSIgcng9Ii42OSIgZmlsbD0idXJsKCNhKSIvPjxwYXRoIGQ9Ik01LjkgMTIuOWgtLjcxYS4yLjIgMCAwMS0uMTktLjIxVjQuMzRhLjE5LjE5IDAgMDEuMTktLjJoMS45M2EuMTkuMTkgMCAwMS4xOS4yLjIuMiAwIDAxLS4xOS4yMUg1LjM4djcuOTNoLjUyYS4yLjIgMCAwMS4xOS4yMS4yMS4yMSAwIDAxLS4xOS4yMXoiIGZpbGw9IiNiNGVjMzYiLz48cGF0aCBkPSJNNiAxMy45Mkg0LjRhLjIuMiAwIDAxLS4xOS0uMjFMNC4wOCAzLjM4YS4yLjIgMCAwMS4wNi0uMTUuMTYuMTYgMCAwMS4xMy0uMDZoMi44NXYuNDFINC40N2wuMTIgOS45Mkg2ek0xMiAxM2gtMS41OWEuMTkuMTkgMCAwMS0uMTQtLjA3LjE4LjE4IDAgMDEtLjA2LS4xNFY3LjlhLjE5LjE5IDAgMDEuMTktLjJoLjkxVjUuNDVoLjM4djIuNDRhLjIuMiAwIDAxLS4xOC4yMWgtLjkxdjQuNDJIMTJ6IiBmaWxsPSIjYjRlYzM2Ii8+PHJlY3QgeD0iNy4wNyIgeT0iMi4yOSIgd2lkdGg9IjYuMTQiIGhlaWdodD0iMy4xMSIgcng9Ii4yNiIgZmlsbD0iIzM2NTYxNSIvPjxyZWN0IHg9IjUuODYiIHk9IjEyLjY5IiB3aWR0aD0iNC45IiBoZWlnaHQ9IjEuMDkiIHJ4PSIuMjYiIHRyYW5zZm9ybT0icm90YXRlKDkwIDguMzA1IDEzLjIzNSkiIGZpbGw9IiMzNjU2MTUiLz48cmVjdCB4PSIzLjk5IiB5PSIxMi43MSIgd2lkdGg9IjQuOSIgaGVpZ2h0PSIxLjA5IiByeD0iLjI2IiB0cmFuc2Zvcm09InJvdGF0ZSg5MCA2LjQ0IDEzLjI2KSIgZmlsbD0iIzM2NTYxNSIvPjxyZWN0IHg9IjkuOTgiIHk9IjEyLjcxIiB3aWR0aD0iNC45IiBoZWlnaHQ9IjEuMDkiIHJ4PSIuMjYiIHRyYW5zZm9ybT0icm90YXRlKDkwIDEyLjQyNSAxMy4yNTUpIiBmaWxsPSIjZjJmMmYyIi8+PGVsbGlwc2UgY3g9IjguMTEiIGN5PSI4LjA2IiByeD0iMS4wNCIgcnk9IjEuMTIiIGZpbGw9IiNmMmYyZjIiLz48cGF0aCBkPSJNMi4xMSAxMi4yNUguODRhLjM0LjM0IDAgMDEtLjM0LS4zVjYuMDlhLjM0LjM0IDAgMDEuMzQtLjM0aDEuMjd2Ni41eiIgZmlsbD0iIzNiM2IzYiIvPjwvc3ZnPg==" vertex="1" parent="1">
          <mxGeometry x="-623" y="781.5699999999999" width="38" height="38" as="geometry" />
        </mxCell>
        <mxCell id="pv9ZLLiu9-7sLAFe4-xA-131" value="" style="shape=image;verticalLabelPosition=bottom;verticalAlign=top;imageAspect=0;aspect=fixed;image=data:image/svg+xml,PHN2ZyB4bWxucz0iaHR0cDovL3d3dy53My5vcmcvMjAwMC9zdmciIHZpZXdCb3g9IjAgMCAxOCAxOCI+PGRlZnM+PGxpbmVhckdyYWRpZW50IGlkPSJhIiB4MT0iNS41MSIgeTE9IjgwMi41IiB4Mj0iMTIuOTQiIHkyPSI4MTAuNTgiIGdyYWRpZW50VHJhbnNmb3JtPSJtYXRyaXgoMSAwIDAgMS41OSAwIC0xMjc4Ljc2KSIgZ3JhZGllbnRVbml0cz0idXNlclNwYWNlT25Vc2UiPjxzdG9wIG9mZnNldD0iMCIgc3RvcC1jb2xvcj0iIzAwNzhkNCIvPjxzdG9wIG9mZnNldD0iLjAyIiBzdG9wLWNvbG9yPSIjMGQ3ZWQ4Ii8+PHN0b3Agb2Zmc2V0PSIuMDgiIHN0b3AtY29sb3I9IiMyYjhhZTAiLz48c3RvcCBvZmZzZXQ9Ii4xNSIgc3RvcC1jb2xvcj0iIzQxOTRlNyIvPjxzdG9wIG9mZnNldD0iLjIyIiBzdG9wLWNvbG9yPSIjNTE5YmViIi8+PHN0b3Agb2Zmc2V0PSIuMjkiIHN0b3AtY29sb3I9IiM1YjlmZWUiLz48c3RvcCBvZmZzZXQ9Ii40IiBzdG9wLWNvbG9yPSIjNWVhMGVmIi8+PHN0b3Agb2Zmc2V0PSIuNTUiIHN0b3AtY29sb3I9IiM1YjlmZWUiLz48c3RvcCBvZmZzZXQ9Ii42OCIgc3RvcC1jb2xvcj0iIzUwOWFlYiIvPjxzdG9wIG9mZnNldD0iLjgiIHN0b3AtY29sb3I9IiMzZjkyZTYiLz48c3RvcCBvZmZzZXQ9Ii45MSIgc3RvcC1jb2xvcj0iIzI2ODhkZiIvPjxzdG9wIG9mZnNldD0iLjk5IiBzdG9wLWNvbG9yPSIjMTI3ZmQ5Ii8+PC9saW5lYXJHcmFkaWVudD48L2RlZnM+PGVsbGlwc2UgY3g9IjguOTYiIGN5PSIxMS44MiIgcng9IjcuNSIgcnk9IjMuMDgiIGZpbGw9IiM3NmJjMmQiLz48ZWxsaXBzZSBjeD0iOS4xNSIgY3k9IjExLjc5IiByeD0iMi40OSIgcnk9Ii42OCIgZmlsbD0iIzVlOTYyNCIvPjxlbGxpcHNlIGN4PSI4Ljk2IiBjeT0iNC45OSIgcng9IjcuNSIgcnk9IjMuMDgiIGZpbGw9InVybCgjYSkiLz48ZWxsaXBzZSBjeD0iOS4xNSIgY3k9IjQuOTUiIHJ4PSIyLjQ5IiByeT0iLjY4IiBmaWxsPSIjMDA1YmExIi8+PHBhdGggZD0iTTkgMTQuODRjNC4xNSAwIDcuNS0xLjM4IDcuNS0zLjA4djEuODJjLS4xNCAxLjY1LTMuNDQgMy03LjUgM1MxLjUgMTUuMiAxLjUgMTMuNXYtMS43NGMtLjA0IDEuNyAzLjMyIDMuMDggNy41IDMuMDh6IiBmaWxsPSIjNWU5NjI0Ii8+PHBhdGggZD0iTTkgOGM0LjE1IDAgNy41LTEuMzggNy41LTMuMDh2MS44MmMtLjE0IDEuNjUtMy40NCAzLTcuNSAzUzEuNSA4LjM2IDEuNSA2LjY2VjQuOTJDMS40NiA2LjYyIDQuODIgOCA5IDh6IiBmaWxsPSIjMDA3OGQ0Ii8+PC9zdmc+" vertex="1" parent="1">
          <mxGeometry x="-743.5999999999999" y="779.5" width="44.71" height="44.71" as="geometry" />
        </mxCell>
        <mxCell id="pv9ZLLiu9-7sLAFe4-xA-132" value="" style="shape=image;verticalLabelPosition=bottom;verticalAlign=top;imageAspect=0;aspect=fixed;image=data:image/svg+xml,PHN2ZyB4bWxucz0iaHR0cDovL3d3dy53My5vcmcvMjAwMC9zdmciIGRhdGEtbmFtZT0iTGF5ZXIgMSIgdmlld0JveD0iMCAwIDY0IDY0Ij48cGF0aCBkPSJNMTQuNjIgNTVINjRMMzcuNCA4LjkxbC04LjEgMjIuMjUgMTUuNTYgMTguNUwxNC42MiA1NXpNMzUuMjggNC44NGwtMTkgMTUuOTVMMCA0OC45OGgxNC42OGwyMC42LTQ0LjE0eiIgZmlsbD0iIzAwNzJjNiIvPjwvc3ZnPg==" vertex="1" parent="1">
          <mxGeometry x="-704" y="-4" width="192" height="192" as="geometry" />
        </mxCell>
        <mxCell id="pv9ZLLiu9-7sLAFe4-xA-134" value="&lt;span style=&quot;font-size: 20px;&quot;&gt;DNS&lt;/span&gt;" style="rounded=1;whiteSpace=wrap;html=1;strokeWidth=2;fillWeight=4;hachureGap=8;hachureAngle=45;fillColor=#1ba1e2;sketch=1;" vertex="1" parent="1">
          <mxGeometry x="-753.5" y="377" width="138" height="35" as="geometry" />
        </mxCell>
        <mxCell id="pv9ZLLiu9-7sLAFe4-xA-203" style="edgeStyle=orthogonalEdgeStyle;rounded=0;orthogonalLoop=1;jettySize=auto;html=1;" edge="1" parent="1" source="pv9ZLLiu9-7sLAFe4-xA-136" target="pv9ZLLiu9-7sLAFe4-xA-180">
          <mxGeometry relative="1" as="geometry" />
        </mxCell>
        <mxCell id="pv9ZLLiu9-7sLAFe4-xA-136" value="" style="shape=image;verticalLabelPosition=bottom;verticalAlign=top;imageAspect=0;aspect=fixed;image=data:image/svg+xml,PHN2ZyB4bWxucz0iaHR0cDovL3d3dy53My5vcmcvMjAwMC9zdmciIHZpZXdCb3g9IjAgMCAxOCAxOCI+PGRlZnM+PGxpbmVhckdyYWRpZW50IGlkPSJhIiB4MT0iOSIgeTE9IjE1LjgzIiB4Mj0iOSIgeTI9IjUuNzkiIGdyYWRpZW50VW5pdHM9InVzZXJTcGFjZU9uVXNlIj48c3RvcCBvZmZzZXQ9IjAiIHN0b3AtY29sb3I9IiMzMmJlZGQiLz48c3RvcCBvZmZzZXQ9Ii4xOCIgc3RvcC1jb2xvcj0iIzMyY2FlYSIvPjxzdG9wIG9mZnNldD0iLjQxIiBzdG9wLWNvbG9yPSIjMzJkMmYyIi8+PHN0b3Agb2Zmc2V0PSIuNzgiIHN0b3AtY29sb3I9IiMzMmQ0ZjUiLz48L2xpbmVhckdyYWRpZW50PjwvZGVmcz48cGF0aCBkPSJNLjUgNS43OWgxN3Y5LjQ4YS41Ny41NyAwIDAxLS41Ny41N0gxLjA3YS41Ny41NyAwIDAxLS41Ny0uNTdWNS43OXoiIGZpbGw9InVybCgjYSkiLz48cGF0aCBkPSJNMS4wNyAyLjE3aDE1Ljg2YS41Ny41NyAwIDAxLjU3LjU3djMuMDVILjVWMi43M2EuNTcuNTcgMCAwMS41Ny0uNTZ6IiBmaWxsPSIjMDA1YmExIi8+PHJlY3QgeD0iMi43OSIgeT0iMy4yNSIgd2lkdGg9IjEyLjQzIiBoZWlnaHQ9IjEuNDYiIHJ4PSIuMjgiIGZpbGw9IiNmMmYyZjIiLz48cGF0aCBkPSJNNi42OCA5bC0uOSAzaC0uNzJsLS41NS0yYTEuMSAxLjEgMCAwMTAtLjI3IDEgMSAwIDAxMCAuMjZMMy44IDEyaC0uNzFMMi4yIDloLjcxbC41NSAyLjE5YTEuNDMgMS40MyAwIDAxMCAuMjYgMS4zMiAxLjMyIDAgMDEwLS4yNkw0LjE4IDloLjY1bC41NSAyLjJhMS41OSAxLjU5IDAgMDEwIC4yNiAxLjUxIDEuNTEgMCAwMTAtLjI2TDYgOXpNMTEuMjggOWwtLjkgM2gtLjcybC0uNTUtMmExLjEgMS4xIDAgMDEwLS4yN0ExLjg1IDEuODUgMCAwMTkgMTBsLS42IDJoLS43bC0uOS0zaC43MWwuNTYgMi4xOWExLjU2IDEuNTYgMCAwMTAgLjI2YzAtLjA4IDAtLjE3LjA1LS4yNkw4Ljc5IDloLjY0bC41NSAyLjJhMS41OSAxLjU5IDAgMDEwIC4yNiAxLjUxIDEuNTEgMCAwMTAtLjI2bC42NS0yLjJ6TTE1Ljg5IDlMMTUgMTJoLS43MmwtLjU3LTJhMS45MyAxLjkzIDAgMDEwLS4yNyAxIDEgMCAwMS0uMDUuMjZMMTMgMTJoLS43bC0uOS0zaC43MmwuNTUgMi4xOWExLjQzIDEuNDMgMCAwMTAgLjI2IDEuMjcgMS4yNyAwIDAxMC0uMjZMMTMuMzkgOUgxNGwuNTQgMi4yYTEuNTkgMS41OSAwIDAxMCAuMjYgMS42NiAxLjY2IDAgMDEwLS4yNmwuNjktMi4yeiIgZmlsbD0iI2ZmZiIvPjwvc3ZnPg==" vertex="1" parent="1">
          <mxGeometry x="-727.34" y="537.06" width="64.44" height="64.44" as="geometry" />
        </mxCell>
        <mxCell id="pv9ZLLiu9-7sLAFe4-xA-315" style="edgeStyle=orthogonalEdgeStyle;rounded=0;orthogonalLoop=1;jettySize=auto;html=1;" edge="1" parent="1" source="pv9ZLLiu9-7sLAFe4-xA-141" target="pv9ZLLiu9-7sLAFe4-xA-146">
          <mxGeometry relative="1" as="geometry">
            <Array as="points">
              <mxPoint x="-549" y="720" />
              <mxPoint x="-655" y="720" />
            </Array>
          </mxGeometry>
        </mxCell>
        <mxCell id="pv9ZLLiu9-7sLAFe4-xA-316" style="edgeStyle=orthogonalEdgeStyle;rounded=0;orthogonalLoop=1;jettySize=auto;html=1;entryX=0.5;entryY=0;entryDx=0;entryDy=0;" edge="1" parent="1">
          <mxGeometry relative="1" as="geometry">
            <mxPoint x="-549.0999999999999" y="698.8599999999998" as="sourcePoint" />
            <mxPoint x="-480.145" y="784.12" as="targetPoint" />
            <Array as="points">
              <mxPoint x="-549" y="720.62" />
              <mxPoint x="-480" y="720.62" />
            </Array>
          </mxGeometry>
        </mxCell>
        <mxCell id="pv9ZLLiu9-7sLAFe4-xA-141" value="" style="shape=image;verticalLabelPosition=bottom;verticalAlign=top;imageAspect=0;aspect=fixed;image=data:image/svg+xml,PHN2ZyB4bWxucz0iaHR0cDovL3d3dy53My5vcmcvMjAwMC9zdmciIHhtbG5zOnhsaW5rPSJodHRwOi8vd3d3LnczLm9yZy8xOTk5L3hsaW5rIiBkYXRhLW5hbWU9ImZsdWVudF9pY29ucyIgdmlld0JveD0iMCAwIDE4IDE4Ij48ZGVmcz48bGluZWFyR3JhZGllbnQgaWQ9ImIiIHgxPSI5IiB5MT0iMTkuMjUiIHgyPSI5IiB5Mj0iLS40NiIgZ3JhZGllbnRUcmFuc2Zvcm09InJvdGF0ZSg0NSA5LjAwMyA4Ljk5OSkiIGdyYWRpZW50VW5pdHM9InVzZXJTcGFjZU9uVXNlIj48c3RvcCBvZmZzZXQ9IjAiIHN0b3AtY29sb3I9IiM1ZTk2MjQiLz48c3RvcCBvZmZzZXQ9Ii41NSIgc3RvcC1jb2xvcj0iIzZkYWQyYSIvPjxzdG9wIG9mZnNldD0iMSIgc3RvcC1jb2xvcj0iIzc2YmMyZCIvPjwvbGluZWFyR3JhZGllbnQ+PGxpbmVhckdyYWRpZW50IGlkPSJhIiB4MT0iNy41NCIgeTE9IjYuNDQiIHgyPSI3LjUzIiB5Mj0iNS4xOCIgZ3JhZGllbnRVbml0cz0idXNlclNwYWNlT25Vc2UiPjxzdG9wIG9mZnNldD0iMCIgc3RvcC1jb2xvcj0iI2NjYyIvPjxzdG9wIG9mZnNldD0iLjEyIiBzdG9wLWNvbG9yPSIjZDdkN2Q3Ii8+PHN0b3Agb2Zmc2V0PSIuNDIiIHN0b3AtY29sb3I9IiNlYmViZWIiLz48c3RvcCBvZmZzZXQ9Ii43MiIgc3RvcC1jb2xvcj0iI2Y4ZjhmOCIvPjxzdG9wIG9mZnNldD0iMSIgc3RvcC1jb2xvcj0iI2ZjZmNmYyIvPjwvbGluZWFyR3JhZGllbnQ+PGxpbmVhckdyYWRpZW50IGlkPSJjIiB4MT0iOS4zNiIgeTE9IjcuNjkiIHgyPSI5LjM2IiB5Mj0iNi41NyIgeGxpbms6aHJlZj0iI2EiLz48L2RlZnM+PHJlY3QgeD0iMi44MiIgeT0iMi44MiIgd2lkdGg9IjEyLjM1IiBoZWlnaHQ9IjEyLjM1IiByeD0iLjU3IiB0cmFuc2Zvcm09InJvdGF0ZSgtNDUgOC45OTkgOS4wMDMpIiBmaWxsPSJ1cmwoI2IpIi8+PGcgZmlsbD0iI2ZmZiI+PHBhdGggZD0iTTEwLjg5IDEwLjUxaDIuODRhLjExLjExIDAgMDAuMS0uMTFWNy41N2EuMS4xIDAgMDAtLjE4LS4wN2wtLjc4Ljc4di4wNWEuMS4xIDAgMDEtLjE0IDBMOS4yNiA0LjkxYS4xLjEgMCAwMC0uMTQgMGwtLjg4Ljg4YS4xMS4xMSAwIDAwMCAuMTVsMy40MSAzLjQxYS4xMS4xMSAwIDAxMCAuMTVsLS4wNS4wNS0uNzguNzhhLjExLjExIDAgMDAuMDcuMTh6Ii8+PHBhdGggZD0iTTYuOTIgMTAuNTFINC4wOEEuMTEuMTEgMCAwMTQgMTAuNFY3LjU3YS4xLjEgMCAwMS4xNy0uMDdsLjc5Ljc4di4wNWEuMS4xIDAgMDAuMTQgMGwzLjQ1LTMuNDJhLjEuMSAwIDAxLjE0IDBsLjg4Ljg4YS4xMS4xMSAwIDAxMCAuMTVMNi4xNiA5LjM1YS4xMS4xMSAwIDAwMCAuMTV2LjA1bC43OC43OGEuMTEuMTEgMCAwMS0uMDIuMTh6Ii8+PHBhdGggZD0iTTYuODIgMTMuMDdsMiAyYS4xLjEgMCAwMC4xNCAwbDItMmEuMS4xIDAgMDAtLjA3LS4xN0g5LjcyYS4xMS4xMSAwIDAxLS4xLS4xVjhhLjEuMSAwIDAwLS4xLS4xMUg4LjI4YS4xMS4xMSAwIDAwLS4xMS4xMXY0LjhhLjEuMSAwIDAxLS4xLjFINi44OWEuMS4xIDAgMDAtLjA3LjE3eiIvPjwvZz48cGF0aCBkYXRhLW5hbWU9IlBhdGggMTIzNyIgZD0iTTEwLjY1IDcuNzhBMi43MSAyLjcxIDAgMDE3LjMzIDMuNWEyLjcxIDIuNzEgMCAwMTMuMjkgNC4zIiBmaWxsPSIjMDA3OGQ0Ii8+PGNpcmNsZSBjeD0iNy41MyIgY3k9IjUuNTUiIHI9Ii44NyIgZmlsbD0idXJsKCNhKSIvPjxwYXRoIGQ9Ik02LjY3IDdsLjE5LjMuMTQuMmE1Ljk0IDUuOTQgMCAwMS4zNC0xLjEuODUuODUgMCAwMS0uNDUtLjIzIDYuNzEgNi43MSAwIDAwLS4yMi44M3ptLjU3LTIuMjdBNCA0IDAgMDE3IDMuOGEyLjQ4IDIuNDggMCAwMC0uMzQuNDYgMy41MSAzLjUxIDAgMDAuMi43NCAxIDEgMCAwMS4zOC0uMjd6bS45MyAxLjQxYS44Ny44NyAwIDAxLS40OC4yNiA0LjYyIDQuNjIgMCAwMC40Ni40MSA0LjE0IDQuMTQgMCAwMC42NS4zOXYtLjA3YS41My41MyAwIDAxLjItLjQgMy42IDMuNiAwIDAxLS44My0uNTl6bTIuNjIgMS4wNmE0LjE0IDQuMTQgMCAwMS0uODctLjEuNTUuNTUgMCAwMS0uMTYuMzkgMy44NCAzLjg0IDAgMDAxLjA4LjA4IDIuOTMgMi45MyAwIDAwLjM3LS40MnoiIG9wYWNpdHk9Ii41NSIgc3R5bGU9Imlzb2xhdGlvbjppc29sYXRlIiBmaWxsPSIjZjJmMmYyIi8+PGNpcmNsZSBjeD0iOS4zNiIgY3k9IjcuMTMiIHI9Ii41NiIgZmlsbD0idXJsKCNjKSIvPjxjaXJjbGUgY3g9IjEwLjY0IiBjeT0iNS43NCIgcj0iLjYiIGZpbGw9IiNmMmYyZjIiLz48cGF0aCBkPSJNOS4yMSA0LjQyQTQuMjkgNC4yOSAwIDAxMTEuMDkgNGEyLjI0IDIuMjQgMCAwMC0uNDctLjQ1IDQuNSA0LjUgMCAwMC0xLjQ5LjM1Yy0uMSAwLS4xOS4xMS0uMjkuMTZhNS44NSA1Ljg1IDAgMDEtLjYzLS45M2wtLjM0LjEzYTUuMzUgNS4zNSAwIDAwLjY1IDEgMy45MiAzLjkyIDAgMDAtLjY3LjU1Ljg3Ljg3IDAgMDEuNDMuMzUgMy4yOSAzLjI5IDAgMDEuNjEtLjQ4IDkuMTYgOS4xNiAwIDAwMS4xNyAxIC41Ny41NyAwIDAxLjItLjMyIDguNDQgOC40NCAwIDAxLTEuMDUtLjk0em0yLjM0IDEuNjdoLS4xOGwtLjEtLjA2YS42MS42MSAwIDAxLS4yLjNsLjEyLjA3LjExLjA2LjI4LjE0YTMuNTggMy41OCAwIDAwLjA5LS4zNXoiIG9wYWNpdHk9Ii41NSIgc3R5bGU9Imlzb2xhdGlvbjppc29sYXRlIiBmaWxsPSIjZjJmMmYyIi8+PGNpcmNsZSBjeD0iNy41MyIgY3k9IjUuNTUiIHI9Ii44NyIgZmlsbD0iI2YyZjJmMiIvPjxjaXJjbGUgY3g9IjkuMzYiIGN5PSI3LjEzIiByPSIuNTYiIGZpbGw9IiNmMmYyZjIiLz48L3N2Zz4=" vertex="1" parent="1">
          <mxGeometry x="-587.24" y="621" width="76.24" height="76.24" as="geometry" />
        </mxCell>
        <mxCell id="pv9ZLLiu9-7sLAFe4-xA-144" value="" style="image;aspect=fixed;html=1;points=[];align=center;fontSize=12;image=img/lib/azure2/other/SSH_Keys.svg;" vertex="1" parent="1">
          <mxGeometry x="-295.24" y="653.8299999999999" width="45.37" height="40.05" as="geometry" />
        </mxCell>
        <mxCell id="pv9ZLLiu9-7sLAFe4-xA-145" value="" style="shape=image;verticalLabelPosition=bottom;verticalAlign=top;imageAspect=0;aspect=fixed;image=data:image/svg+xml,PHN2ZyB4bWxucz0iaHR0cDovL3d3dy53My5vcmcvMjAwMC9zdmciIHZpZXdCb3g9IjAgMCAxOCAxOCI+PGRlZnM+PGxpbmVhckdyYWRpZW50IGlkPSJhIiB4MT0iOS4wMSIgeTE9Ii43NSIgeDI9IjkuMDEiIHkyPSIxNy4yNSIgZ3JhZGllbnRVbml0cz0idXNlclNwYWNlT25Vc2UiPjxzdG9wIG9mZnNldD0iMCIgc3RvcC1jb2xvcj0iIzVlYTBlZiIvPjxzdG9wIG9mZnNldD0iLjE4IiBzdG9wLWNvbG9yPSIjNTU5Y2VjIi8+PHN0b3Agb2Zmc2V0PSIuNDciIHN0b3AtY29sb3I9IiMzYzkxZTUiLz48c3RvcCBvZmZzZXQ9Ii44NCIgc3RvcC1jb2xvcj0iIzEzODBkYSIvPjxzdG9wIG9mZnNldD0iMSIgc3RvcC1jb2xvcj0iIzAwNzhkNCIvPjwvbGluZWFyR3JhZGllbnQ+PC9kZWZzPjxwYXRoIGQ9Ik0xNi4zNiA4LjRjMCA0Ljg0LTUuODUgOC43NC03LjEyIDkuNTNhLjQ2LjQ2IDAgMDEtLjQ4IDBjLTEuMjctLjc5LTcuMTItNC42OS03LjEyLTkuNTNWMi41OGEuNDYuNDYgMCAwMS40NS0uNDZDNi42NCAyIDUuNTkgMCA5IDBzMi4zNiAyIDYuOTEgMi4xMmEuNDYuNDYgMCAwMS40NS40NnoiIGZpbGw9IiMwMDc4ZDQiLz48cGF0aCBkPSJNMTUuNzUgOC40NWMwIDQuNDQtNS4zNiA4LTYuNTMgOC43NGEuNDMuNDMgMCAwMS0uNDQgMGMtMS4xNy0uNzItNi41My00LjMtNi41My04Ljc0VjMuMTFhLjQyLjQyIDAgMDEuNDEtLjQyQzYuODMgMi41OCA1Ljg3Ljc1IDkgLjc1czIuMTcgMS44MyA2LjM0IDEuOTRhLjQyLjQyIDAgMDEuNDEuNDJ6IiBmaWxsPSIjNmJiOWYyIi8+PHBhdGggZD0iTTkgOVYuNzVjMy4xMyAwIDIuMTcgMS44MyA2LjM0IDEuOTRhLjQzLjQzIDAgMDEuNDEuNDN2NS4zNGE0Ljg5IDQuODkgMCAwMTAgLjU0em0wIDBIMi4yOGMuNCA0LjE4IDUuMzggNy41IDYuNSA4LjE5YS4zOS4zOSAwIDAwLjE4LjA2SDl6IiBmaWxsPSJ1cmwoI2EpIi8+PHBhdGggZD0iTTIuNjYgMi42OUM2LjgzIDIuNTggNS44Ny43NSA5IC43NVY5SDIuMjhhNC44OSA0Ljg5IDAgMDEwLS41NFYzLjEyYS40My40MyAwIDAxLjM4LS40M3pNMTUuNzIgOUg5djguMjVhLjM5LjM5IDAgMDAuMTgtLjA2YzEuMTYtLjY5IDYuMTQtNC4wMSA2LjU0LTguMTl6IiBmaWxsPSIjNTBlNmZmIi8+PC9zdmc+" vertex="1" parent="1">
          <mxGeometry x="-380.18000000000006" y="572.5" width="76" height="76" as="geometry" />
        </mxCell>
        <mxCell id="pv9ZLLiu9-7sLAFe4-xA-146" value="" style="image;aspect=fixed;html=1;points=[];align=center;fontSize=12;image=img/lib/azure2/other/Grafana.svg;" vertex="1" parent="1">
          <mxGeometry x="-684.7900000000001" y="778.5800000000002" width="52.06" height="40.42" as="geometry" />
        </mxCell>
        <mxCell id="pv9ZLLiu9-7sLAFe4-xA-150" value="&lt;span style=&quot;font-size: 20px;&quot;&gt;Observablity Server&lt;/span&gt;" style="rounded=1;whiteSpace=wrap;html=1;strokeWidth=2;fillWeight=4;hachureGap=8;hachureAngle=45;fillColor=#1ba1e2;sketch=1;arcSize=42;" vertex="1" parent="1">
          <mxGeometry x="-758" y="828" width="191" height="35" as="geometry" />
        </mxCell>
        <mxCell id="pv9ZLLiu9-7sLAFe4-xA-156" value="&lt;span style=&quot;font-size: 20px;&quot;&gt;Stage 3&lt;/span&gt;" style="rounded=1;whiteSpace=wrap;html=1;strokeWidth=2;fillWeight=4;hachureGap=8;hachureAngle=45;fillColor=#1ba1e2;sketch=1;" vertex="1" parent="1">
          <mxGeometry x="-209.50000000000003" y="936" width="163" height="35" as="geometry" />
        </mxCell>
        <mxCell id="pv9ZLLiu9-7sLAFe4-xA-157" value="&lt;span style=&quot;font-size: 20px;&quot;&gt;SonarCloud&lt;/span&gt;" style="rounded=1;whiteSpace=wrap;html=1;strokeWidth=2;fillWeight=4;hachureGap=8;hachureAngle=45;fillColor=#1ba1e2;sketch=1;" vertex="1" parent="1">
          <mxGeometry x="-210.00000000000003" y="1112" width="163" height="35" as="geometry" />
        </mxCell>
        <mxCell id="pv9ZLLiu9-7sLAFe4-xA-159" value="&lt;span style=&quot;font-size: 20px;&quot;&gt;POSTGTRES&lt;/span&gt;" style="rounded=1;whiteSpace=wrap;html=1;strokeWidth=2;fillWeight=4;hachureGap=8;hachureAngle=45;fillColor=#1ba1e2;sketch=1;arcSize=42;" vertex="1" parent="1">
          <mxGeometry x="-396" y="829" width="147" height="36" as="geometry" />
        </mxCell>
        <mxCell id="pv9ZLLiu9-7sLAFe4-xA-160" value="" style="shape=image;verticalLabelPosition=bottom;verticalAlign=top;imageAspect=0;aspect=fixed;image=data:image/svg+xml,PHN2ZyB4bWxucz0iaHR0cDovL3d3dy53My5vcmcvMjAwMC9zdmciIHZpZXdCb3g9IjAgMCAxOCAxOCI+PGRlZnM+PGxpbmVhckdyYWRpZW50IGlkPSJhIiB4MT0iOS4wMSIgeTE9IjE2LjUiIHgyPSI5LjAxIiB5Mj0iMS41IiBncmFkaWVudFVuaXRzPSJ1c2VyU3BhY2VPblVzZSI+PHN0b3Agb2Zmc2V0PSIwIiBzdG9wLWNvbG9yPSIjNWU5NjQxIi8+PHN0b3Agb2Zmc2V0PSIuMzQiIHN0b3AtY29sb3I9IiM2YmFhNDIiLz48c3RvcCBvZmZzZXQ9Ii42NyIgc3RvcC1jb2xvcj0iIzczYjc0MyIvPjxzdG9wIG9mZnNldD0iMSIgc3RvcC1jb2xvcj0iIzc2YmI0MyIvPjwvbGluZWFyR3JhZGllbnQ+PC9kZWZzPjxwYXRoIGQ9Ik0xNS44OSAyLjkxaDEuMjdhLjM0LjM0IDAgMDEuMzQuMzR2My41YS4zNC4zNCAwIDAxLS4zNC4zNGgtMS4yN1YyLjkxek0xNS44OSA5aDEuMjdhLjM0LjM0IDAgMDEuMzQuMzR2NS44NmEuMzQuMzQgMCAwMS0uMzQuMzRoLTEuMjdWOXoiIGZpbGw9IiNmZmNhMDAiLz48cmVjdCB4PSIyLjEzIiB5PSIxLjUiIHdpZHRoPSIxMy43NiIgaGVpZ2h0PSIxNSIgcng9Ii42OSIgZmlsbD0idXJsKCNhKSIvPjxwYXRoIGQ9Ik01LjkgMTIuOWgtLjcxYS4yLjIgMCAwMS0uMTktLjIxVjQuMzRhLjE5LjE5IDAgMDEuMTktLjJoMS45M2EuMTkuMTkgMCAwMS4xOS4yLjIuMiAwIDAxLS4xOS4yMUg1LjM4djcuOTNoLjUyYS4yLjIgMCAwMS4xOS4yMS4yMS4yMSAwIDAxLS4xOS4yMXoiIGZpbGw9IiNiNGVjMzYiLz48cGF0aCBkPSJNNiAxMy45Mkg0LjRhLjIuMiAwIDAxLS4xOS0uMjFMNC4wOCAzLjM4YS4yLjIgMCAwMS4wNi0uMTUuMTYuMTYgMCAwMS4xMy0uMDZoMi44NXYuNDFINC40N2wuMTIgOS45Mkg2ek0xMiAxM2gtMS41OWEuMTkuMTkgMCAwMS0uMTQtLjA3LjE4LjE4IDAgMDEtLjA2LS4xNFY3LjlhLjE5LjE5IDAgMDEuMTktLjJoLjkxVjUuNDVoLjM4djIuNDRhLjIuMiAwIDAxLS4xOC4yMWgtLjkxdjQuNDJIMTJ6IiBmaWxsPSIjYjRlYzM2Ii8+PHJlY3QgeD0iNy4wNyIgeT0iMi4yOSIgd2lkdGg9IjYuMTQiIGhlaWdodD0iMy4xMSIgcng9Ii4yNiIgZmlsbD0iIzM2NTYxNSIvPjxyZWN0IHg9IjUuODYiIHk9IjEyLjY5IiB3aWR0aD0iNC45IiBoZWlnaHQ9IjEuMDkiIHJ4PSIuMjYiIHRyYW5zZm9ybT0icm90YXRlKDkwIDguMzA1IDEzLjIzNSkiIGZpbGw9IiMzNjU2MTUiLz48cmVjdCB4PSIzLjk5IiB5PSIxMi43MSIgd2lkdGg9IjQuOSIgaGVpZ2h0PSIxLjA5IiByeD0iLjI2IiB0cmFuc2Zvcm09InJvdGF0ZSg5MCA2LjQ0IDEzLjI2KSIgZmlsbD0iIzM2NTYxNSIvPjxyZWN0IHg9IjkuOTgiIHk9IjEyLjcxIiB3aWR0aD0iNC45IiBoZWlnaHQ9IjEuMDkiIHJ4PSIuMjYiIHRyYW5zZm9ybT0icm90YXRlKDkwIDEyLjQyNSAxMy4yNTUpIiBmaWxsPSIjZjJmMmYyIi8+PGVsbGlwc2UgY3g9IjguMTEiIGN5PSI4LjA2IiByeD0iMS4wNCIgcnk9IjEuMTIiIGZpbGw9IiNmMmYyZjIiLz48cGF0aCBkPSJNMi4xMSAxMi4yNUguODRhLjM0LjM0IDAgMDEtLjM0LS4zVjYuMDlhLjM0LjM0IDAgMDEuMzQtLjM0aDEuMjd2Ni41eiIgZmlsbD0iIzNiM2IzYiIvPjwvc3ZnPg==" vertex="1" parent="1">
          <mxGeometry x="-545.54" y="781" width="38" height="38" as="geometry" />
        </mxCell>
        <mxCell id="pv9ZLLiu9-7sLAFe4-xA-161" value="" style="shape=image;verticalLabelPosition=bottom;verticalAlign=top;imageAspect=0;aspect=fixed;image=data:image/svg+xml,PHN2ZyB4bWxucz0iaHR0cDovL3d3dy53My5vcmcvMjAwMC9zdmciIHZpZXdCb3g9IjAgMCAxOCAxOCI+PGRlZnM+PGxpbmVhckdyYWRpZW50IGlkPSJhIiB4MT0iNS41MSIgeTE9IjgwMi41IiB4Mj0iMTIuOTQiIHkyPSI4MTAuNTgiIGdyYWRpZW50VHJhbnNmb3JtPSJtYXRyaXgoMSAwIDAgMS41OSAwIC0xMjc4Ljc2KSIgZ3JhZGllbnRVbml0cz0idXNlclNwYWNlT25Vc2UiPjxzdG9wIG9mZnNldD0iMCIgc3RvcC1jb2xvcj0iIzAwNzhkNCIvPjxzdG9wIG9mZnNldD0iLjAyIiBzdG9wLWNvbG9yPSIjMGQ3ZWQ4Ii8+PHN0b3Agb2Zmc2V0PSIuMDgiIHN0b3AtY29sb3I9IiMyYjhhZTAiLz48c3RvcCBvZmZzZXQ9Ii4xNSIgc3RvcC1jb2xvcj0iIzQxOTRlNyIvPjxzdG9wIG9mZnNldD0iLjIyIiBzdG9wLWNvbG9yPSIjNTE5YmViIi8+PHN0b3Agb2Zmc2V0PSIuMjkiIHN0b3AtY29sb3I9IiM1YjlmZWUiLz48c3RvcCBvZmZzZXQ9Ii40IiBzdG9wLWNvbG9yPSIjNWVhMGVmIi8+PHN0b3Agb2Zmc2V0PSIuNTUiIHN0b3AtY29sb3I9IiM1YjlmZWUiLz48c3RvcCBvZmZzZXQ9Ii42OCIgc3RvcC1jb2xvcj0iIzUwOWFlYiIvPjxzdG9wIG9mZnNldD0iLjgiIHN0b3AtY29sb3I9IiMzZjkyZTYiLz48c3RvcCBvZmZzZXQ9Ii45MSIgc3RvcC1jb2xvcj0iIzI2ODhkZiIvPjxzdG9wIG9mZnNldD0iLjk5IiBzdG9wLWNvbG9yPSIjMTI3ZmQ5Ii8+PC9saW5lYXJHcmFkaWVudD48L2RlZnM+PGVsbGlwc2UgY3g9IjguOTYiIGN5PSIxMS44MiIgcng9IjcuNSIgcnk9IjMuMDgiIGZpbGw9IiM3NmJjMmQiLz48ZWxsaXBzZSBjeD0iOS4xNSIgY3k9IjExLjc5IiByeD0iMi40OSIgcnk9Ii42OCIgZmlsbD0iIzVlOTYyNCIvPjxlbGxpcHNlIGN4PSI4Ljk2IiBjeT0iNC45OSIgcng9IjcuNSIgcnk9IjMuMDgiIGZpbGw9InVybCgjYSkiLz48ZWxsaXBzZSBjeD0iOS4xNSIgY3k9IjQuOTUiIHJ4PSIyLjQ5IiByeT0iLjY4IiBmaWxsPSIjMDA1YmExIi8+PHBhdGggZD0iTTkgMTQuODRjNC4xNSAwIDcuNS0xLjM4IDcuNS0zLjA4djEuODJjLS4xNCAxLjY1LTMuNDQgMy03LjUgM1MxLjUgMTUuMiAxLjUgMTMuNXYtMS43NGMtLjA0IDEuNyAzLjMyIDMuMDggNy41IDMuMDh6IiBmaWxsPSIjNWU5NjI0Ii8+PHBhdGggZD0iTTkgOGM0LjE1IDAgNy41LTEuMzggNy41LTMuMDh2MS44MmMtLjE0IDEuNjUtMy40NCAzLTcuNSAzUzEuNSA4LjM2IDEuNSA2LjY2VjQuOTJDMS40NiA2LjYyIDQuODIgOCA5IDh6IiBmaWxsPSIjMDA3OGQ0Ii8+PC9zdmc+" vertex="1" parent="1">
          <mxGeometry x="-457.78999999999996" y="779.57" width="42" height="42" as="geometry" />
        </mxCell>
        <mxCell id="pv9ZLLiu9-7sLAFe4-xA-263" style="edgeStyle=orthogonalEdgeStyle;rounded=0;orthogonalLoop=1;jettySize=auto;html=1;entryX=0;entryY=0.5;entryDx=0;entryDy=0;" edge="1" parent="1" source="pv9ZLLiu9-7sLAFe4-xA-168" target="pv9ZLLiu9-7sLAFe4-xA-141">
          <mxGeometry relative="1" as="geometry" />
        </mxCell>
        <mxCell id="pv9ZLLiu9-7sLAFe4-xA-168" value="" style="shape=image;verticalLabelPosition=bottom;verticalAlign=top;imageAspect=0;aspect=fixed;image=data:image/svg+xml,PHN2ZyB4bWxucz0iaHR0cDovL3d3dy53My5vcmcvMjAwMC9zdmciIHZpZXdCb3g9IjAgMCAxOCAxOCI+PGRlZnM+PGxpbmVhckdyYWRpZW50IGlkPSJhIiB4MT0iOSIgeTE9IjE1LjgzIiB4Mj0iOSIgeTI9IjUuNzkiIGdyYWRpZW50VW5pdHM9InVzZXJTcGFjZU9uVXNlIj48c3RvcCBvZmZzZXQ9IjAiIHN0b3AtY29sb3I9IiMzMmJlZGQiLz48c3RvcCBvZmZzZXQ9Ii4xOCIgc3RvcC1jb2xvcj0iIzMyY2FlYSIvPjxzdG9wIG9mZnNldD0iLjQxIiBzdG9wLWNvbG9yPSIjMzJkMmYyIi8+PHN0b3Agb2Zmc2V0PSIuNzgiIHN0b3AtY29sb3I9IiMzMmQ0ZjUiLz48L2xpbmVhckdyYWRpZW50PjwvZGVmcz48cGF0aCBkPSJNLjUgNS43OWgxN3Y5LjQ4YS41Ny41NyAwIDAxLS41Ny41N0gxLjA3YS41Ny41NyAwIDAxLS41Ny0uNTdWNS43OXoiIGZpbGw9InVybCgjYSkiLz48cGF0aCBkPSJNMS4wNyAyLjE3aDE1Ljg2YS41Ny41NyAwIDAxLjU3LjU3djMuMDVILjVWMi43M2EuNTcuNTcgMCAwMS41Ny0uNTZ6IiBmaWxsPSIjMDA1YmExIi8+PHJlY3QgeD0iMi43OSIgeT0iMy4yNSIgd2lkdGg9IjEyLjQzIiBoZWlnaHQ9IjEuNDYiIHJ4PSIuMjgiIGZpbGw9IiNmMmYyZjIiLz48cGF0aCBkPSJNNi42OCA5bC0uOSAzaC0uNzJsLS41NS0yYTEuMSAxLjEgMCAwMTAtLjI3IDEgMSAwIDAxMCAuMjZMMy44IDEyaC0uNzFMMi4yIDloLjcxbC41NSAyLjE5YTEuNDMgMS40MyAwIDAxMCAuMjYgMS4zMiAxLjMyIDAgMDEwLS4yNkw0LjE4IDloLjY1bC41NSAyLjJhMS41OSAxLjU5IDAgMDEwIC4yNiAxLjUxIDEuNTEgMCAwMTAtLjI2TDYgOXpNMTEuMjggOWwtLjkgM2gtLjcybC0uNTUtMmExLjEgMS4xIDAgMDEwLS4yN0ExLjg1IDEuODUgMCAwMTkgMTBsLS42IDJoLS43bC0uOS0zaC43MWwuNTYgMi4xOWExLjU2IDEuNTYgMCAwMTAgLjI2YzAtLjA4IDAtLjE3LjA1LS4yNkw4Ljc5IDloLjY0bC41NSAyLjJhMS41OSAxLjU5IDAgMDEwIC4yNiAxLjUxIDEuNTEgMCAwMTAtLjI2bC42NS0yLjJ6TTE1Ljg5IDlMMTUgMTJoLS43MmwtLjU3LTJhMS45MyAxLjkzIDAgMDEwLS4yNyAxIDEgMCAwMS0uMDUuMjZMMTMgMTJoLS43bC0uOS0zaC43MmwuNTUgMi4xOWExLjQzIDEuNDMgMCAwMTAgLjI2IDEuMjcgMS4yNyAwIDAxMC0uMjZMMTMuMzkgOUgxNGwuNTQgMi4yYTEuNTkgMS41OSAwIDAxMCAuMjYgMS42NiAxLjY2IDAgMDEwLS4yNmwuNjktMi4yeiIgZmlsbD0iI2ZmZiIvPjwvc3ZnPg==" vertex="1" parent="1">
          <mxGeometry x="-734.4699999999999" y="625.49" width="67.27" height="67.27" as="geometry" />
        </mxCell>
        <mxCell id="pv9ZLLiu9-7sLAFe4-xA-169" value="" style="shape=image;verticalLabelPosition=bottom;verticalAlign=top;imageAspect=0;aspect=fixed;image=data:image/svg+xml,PHN2ZyB4bWxucz0iaHR0cDovL3d3dy53My5vcmcvMjAwMC9zdmciIHZpZXdCb3g9IjAgMCAxOCAxOCI+PGRlZnM+PHJhZGlhbEdyYWRpZW50IGlkPSJhIiBjeD0iLTY4MTEuNCIgY3k9IjY3MjkuNjkiIHI9IjE3IiBncmFkaWVudFRyYW5zZm9ybT0ibWF0cml4KC41IDAgMCAtLjUgMzQxNC45MSAzMzc0LjA1KSIgZ3JhZGllbnRVbml0cz0idXNlclNwYWNlT25Vc2UiPjxzdG9wIG9mZnNldD0iLjE4IiBzdG9wLWNvbG9yPSIjNWVhMGVmIi8+PHN0b3Agb2Zmc2V0PSIxIiBzdG9wLWNvbG9yPSIjMDA3OGQ0Ii8+PC9yYWRpYWxHcmFkaWVudD48L2RlZnM+PHBhdGggZD0iTTE0LjIxIDE1LjcyQTguNSA4LjUgMCAwMTMuNzkgMi4yOGwuMDktLjA2YTguNSA4LjUgMCAwMTEwLjMzIDEzLjUiIGZpbGw9InVybCgjYSkiLz48cGF0aCBkPSJNOSAxLjMxQTcuNjkgNy42OSAwIDEwMTYuNjkgOSA3LjcgNy43IDAgMDA5IDEuMzF6bTUuMTUgMi41OWE3LjM3IDcuMzcgMCAwMS0yLjE1LjhBOC44MyA4LjgzIDAgMDAxMC43NSAyYTcuMiA3LjIgMCAwMTMuNCAxLjl6TTkgMS43NGE2LjU5IDYuNTkgMCAwMTEuMDkuMDkgNy40OCA3LjQ4IDAgMDExLjUzIDMgMTUuMTIgMTUuMTIgMCAwMS01LjQ1IDAgNy4zOCA3LjM4IDAgMDExLjUxLTIuOTRBNy4zNCA3LjM0IDAgMDE5IDEuNzR6TTcgMmE4LjcyIDguNzIgMCAwMC0xLjI3IDIuNjggNS41OCA1LjU4IDAgMDEtMS45LS43N0E3LjM1IDcuMzUgMCAwMTcgMnpNMy43MiAxNGE1LjI3IDUuMjcgMCAwMTEuNzgtLjc2IDcuMDggNy4wOCAwIDAwMS4zNSAyLjcyQTcuMjUgNy4yNSAwIDAxMy43MiAxNHptNi40MSAyLjJhNy4wOCA3LjA4IDAgMDEtMS4xMy4wNiA2LjgzIDYuODMgMCAwMS0xLjQ0LS4xNSA2IDYgMCAwMS0xLjY3LTMgMTQuNzMgMTQuNzMgMCAwMTUuODggMCA2IDYgMCAwMS0xLjY5IDN6bS43My0uMTZhNy4xMyA3LjEzIDAgMDAxLjM4LTIuOCA2LjY4IDYuNjggMCAwMTIgLjgzQTcuMTMgNy4xMyAwIDAxMTAuODYgMTZ6bTEuNDgtMy4yMmMuMDgtLjM2LjE1LS43My4yLTEuMTJsLS40Ni4xMWMtLjA1LjMxLS4xLjYyLS4xNy45MWExNS4yMyAxNS4yMyAwIDAwLTYuMDkgMGMtLjA3LS4yNy0uMTItLjU2LS4xNy0uODZhLjI4LjI4IDAgMDEwLS4wOWwtLjQ2LS4xM2EyLjM2IDIuMzYgMCAwMDAgLjI4YzAgLjMyLjExLjYyLjE3LjkxYTUuOSA1LjkgMCAwMC0yIC44NSA3LjI0IDcuMjQgMCAwMS4xMS05LjQgNi4yOSA2LjI5IDAgMDAyLjA4Ljg2Yy0uMDcuMjQtLjEzLjUtLjE4Ljc2czAgLjI1LS4wOC4zN2wuNDctLjExdi0uMTdjLjA2LS4yNi4xMi0uNTEuMTktLjc1QTE0Ljg5IDE0Ljg5IDAgMDA5IDUuNDhhMTUgMTUgMCAwMDIuNzgtLjI2Yy4wNy4yNy4xNC41Ni4yLjg1bC40Ni4xMXEtLjExLS41NC0uMjQtMWE3LjczIDcuNzMgMCAwMDIuMy0uOTEgNy4yMiA3LjIyIDAgMDEuMDYgOS40OSA3LjI4IDcuMjggMCAwMC0yLjIyLS45N3oiIGZpbGw9IiM1ZWEwZWYiLz48cGF0aCBkPSJNMy42OSA3YTcuOTIgNy45MiAwIDAxMS4xNi0uMDggMi40NCAyLjQ0IDAgMDExLjcxLjUyIDIgMiAwIDAxLjU5IDEuNDYgMi4yMSAyLjIxIDAgMDEtLjYxIDEuNjQgMi42IDIuNiAwIDAxLTEuODYuNjEgOS4xNyA5LjE3IDAgMDEtMS0uMDV6bS41NSAzLjczYTQgNCAwIDAwLjU1IDAgMS42MiAxLjYyIDAgMDAxLjc5LTEuODFBMS41IDEuNSAwIDAwNC44NyA3LjNhMy4xNyAzLjE3IDAgMDAtLjYzIDB6TTcuODYgMTEuMTFWNi45aC41OUw5LjggOWExMi4xOCAxMi4xOCAwIDAxLjc2IDEuMzdjLS4wNS0uNTYtLjA2LTEuMDctLjA2LTEuNzNWNi45aC41djQuMjFoLS41NUw5LjEzIDljLS4yOS0uNDctLjU3LTEtLjc5LTEuNHYzLjU0ek0xMS44OSAxMC40NWEyIDIgMCAwMDEgLjI3Yy41NiAwIC44OC0uMjkuODgtLjcycy0uMjItLjYyLS43OS0uODMtMS4xMi0uNi0xLjEyLTEuMmExLjIyIDEuMjIgMCAwMTEuMzctMS4xNCAyIDIgMCAwMS45My4ybC0uMTYuNDVhMS42MyAxLjYzIDAgMDAtLjgtLjJjLS41OCAwLS44LjM0LS44LjYzcy4yNi41OS44NC44MSAxLjA4LjYyIDEuMDggMS4yNC0uNDggMS4yMS0xLjQ4IDEuMjFhMi4xNiAyLjE2IDAgMDEtMS4wNy0uMjd6IiBmaWxsPSIjZmZmIi8+PC9zdmc+" vertex="1" parent="1">
          <mxGeometry x="-734.55" y="431.11" width="81" height="81" as="geometry" />
        </mxCell>
        <mxCell id="pv9ZLLiu9-7sLAFe4-xA-321" style="edgeStyle=orthogonalEdgeStyle;rounded=0;orthogonalLoop=1;jettySize=auto;html=1;entryX=0.25;entryY=1;entryDx=0;entryDy=0;" edge="1" parent="1" source="pv9ZLLiu9-7sLAFe4-xA-180" target="pv9ZLLiu9-7sLAFe4-xA-51">
          <mxGeometry relative="1" as="geometry" />
        </mxCell>
        <mxCell id="pv9ZLLiu9-7sLAFe4-xA-180" value="" style="shape=image;verticalLabelPosition=bottom;verticalAlign=top;imageAspect=0;aspect=fixed;image=data:image/svg+xml,PHN2ZyB4bWxucz0iaHR0cDovL3d3dy53My5vcmcvMjAwMC9zdmciIHhtbG5zOnhsaW5rPSJodHRwOi8vd3d3LnczLm9yZy8xOTk5L3hsaW5rIiBkYXRhLW5hbWU9ImZsdWVudF9pY29ucyIgdmlld0JveD0iMCAwIDE4IDE4Ij48ZGVmcz48bGluZWFyR3JhZGllbnQgaWQ9ImIiIHgxPSI5IiB5MT0iMTkuMjUiIHgyPSI5IiB5Mj0iLS40NiIgZ3JhZGllbnRUcmFuc2Zvcm09InJvdGF0ZSg0NSA5LjAwMyA4Ljk5OSkiIGdyYWRpZW50VW5pdHM9InVzZXJTcGFjZU9uVXNlIj48c3RvcCBvZmZzZXQ9IjAiIHN0b3AtY29sb3I9IiM1ZTk2MjQiLz48c3RvcCBvZmZzZXQ9Ii41NSIgc3RvcC1jb2xvcj0iIzZkYWQyYSIvPjxzdG9wIG9mZnNldD0iMSIgc3RvcC1jb2xvcj0iIzc2YmMyZCIvPjwvbGluZWFyR3JhZGllbnQ+PGxpbmVhckdyYWRpZW50IGlkPSJhIiB4MT0iNy41NCIgeTE9IjYuNDQiIHgyPSI3LjUzIiB5Mj0iNS4xOCIgZ3JhZGllbnRVbml0cz0idXNlclNwYWNlT25Vc2UiPjxzdG9wIG9mZnNldD0iMCIgc3RvcC1jb2xvcj0iI2NjYyIvPjxzdG9wIG9mZnNldD0iLjEyIiBzdG9wLWNvbG9yPSIjZDdkN2Q3Ii8+PHN0b3Agb2Zmc2V0PSIuNDIiIHN0b3AtY29sb3I9IiNlYmViZWIiLz48c3RvcCBvZmZzZXQ9Ii43MiIgc3RvcC1jb2xvcj0iI2Y4ZjhmOCIvPjxzdG9wIG9mZnNldD0iMSIgc3RvcC1jb2xvcj0iI2ZjZmNmYyIvPjwvbGluZWFyR3JhZGllbnQ+PGxpbmVhckdyYWRpZW50IGlkPSJjIiB4MT0iOS4zNiIgeTE9IjcuNjkiIHgyPSI5LjM2IiB5Mj0iNi41NyIgeGxpbms6aHJlZj0iI2EiLz48L2RlZnM+PHJlY3QgeD0iMi44MiIgeT0iMi44MiIgd2lkdGg9IjEyLjM1IiBoZWlnaHQ9IjEyLjM1IiByeD0iLjU3IiB0cmFuc2Zvcm09InJvdGF0ZSgtNDUgOC45OTkgOS4wMDMpIiBmaWxsPSJ1cmwoI2IpIi8+PGcgZmlsbD0iI2ZmZiI+PHBhdGggZD0iTTEwLjg5IDEwLjUxaDIuODRhLjExLjExIDAgMDAuMS0uMTFWNy41N2EuMS4xIDAgMDAtLjE4LS4wN2wtLjc4Ljc4di4wNWEuMS4xIDAgMDEtLjE0IDBMOS4yNiA0LjkxYS4xLjEgMCAwMC0uMTQgMGwtLjg4Ljg4YS4xMS4xMSAwIDAwMCAuMTVsMy40MSAzLjQxYS4xMS4xMSAwIDAxMCAuMTVsLS4wNS4wNS0uNzguNzhhLjExLjExIDAgMDAuMDcuMTh6Ii8+PHBhdGggZD0iTTYuOTIgMTAuNTFINC4wOEEuMTEuMTEgMCAwMTQgMTAuNFY3LjU3YS4xLjEgMCAwMS4xNy0uMDdsLjc5Ljc4di4wNWEuMS4xIDAgMDAuMTQgMGwzLjQ1LTMuNDJhLjEuMSAwIDAxLjE0IDBsLjg4Ljg4YS4xMS4xMSAwIDAxMCAuMTVMNi4xNiA5LjM1YS4xMS4xMSAwIDAwMCAuMTV2LjA1bC43OC43OGEuMTEuMTEgMCAwMS0uMDIuMTh6Ii8+PHBhdGggZD0iTTYuODIgMTMuMDdsMiAyYS4xLjEgMCAwMC4xNCAwbDItMmEuMS4xIDAgMDAtLjA3LS4xN0g5LjcyYS4xMS4xMSAwIDAxLS4xLS4xVjhhLjEuMSAwIDAwLS4xLS4xMUg4LjI4YS4xMS4xMSAwIDAwLS4xMS4xMXY0LjhhLjEuMSAwIDAxLS4xLjFINi44OWEuMS4xIDAgMDAtLjA3LjE3eiIvPjwvZz48cGF0aCBkYXRhLW5hbWU9IlBhdGggMTIzNyIgZD0iTTEwLjY1IDcuNzhBMi43MSAyLjcxIDAgMDE3LjMzIDMuNWEyLjcxIDIuNzEgMCAwMTMuMjkgNC4zIiBmaWxsPSIjMDA3OGQ0Ii8+PGNpcmNsZSBjeD0iNy41MyIgY3k9IjUuNTUiIHI9Ii44NyIgZmlsbD0idXJsKCNhKSIvPjxwYXRoIGQ9Ik02LjY3IDdsLjE5LjMuMTQuMmE1Ljk0IDUuOTQgMCAwMS4zNC0xLjEuODUuODUgMCAwMS0uNDUtLjIzIDYuNzEgNi43MSAwIDAwLS4yMi44M3ptLjU3LTIuMjdBNCA0IDAgMDE3IDMuOGEyLjQ4IDIuNDggMCAwMC0uMzQuNDYgMy41MSAzLjUxIDAgMDAuMi43NCAxIDEgMCAwMS4zOC0uMjd6bS45MyAxLjQxYS44Ny44NyAwIDAxLS40OC4yNiA0LjYyIDQuNjIgMCAwMC40Ni40MSA0LjE0IDQuMTQgMCAwMC42NS4zOXYtLjA3YS41My41MyAwIDAxLjItLjQgMy42IDMuNiAwIDAxLS44My0uNTl6bTIuNjIgMS4wNmE0LjE0IDQuMTQgMCAwMS0uODctLjEuNTUuNTUgMCAwMS0uMTYuMzkgMy44NCAzLjg0IDAgMDAxLjA4LjA4IDIuOTMgMi45MyAwIDAwLjM3LS40MnoiIG9wYWNpdHk9Ii41NSIgc3R5bGU9Imlzb2xhdGlvbjppc29sYXRlIiBmaWxsPSIjZjJmMmYyIi8+PGNpcmNsZSBjeD0iOS4zNiIgY3k9IjcuMTMiIHI9Ii41NiIgZmlsbD0idXJsKCNjKSIvPjxjaXJjbGUgY3g9IjEwLjY0IiBjeT0iNS43NCIgcj0iLjYiIGZpbGw9IiNmMmYyZjIiLz48cGF0aCBkPSJNOS4yMSA0LjQyQTQuMjkgNC4yOSAwIDAxMTEuMDkgNGEyLjI0IDIuMjQgMCAwMC0uNDctLjQ1IDQuNSA0LjUgMCAwMC0xLjQ5LjM1Yy0uMSAwLS4xOS4xMS0uMjkuMTZhNS44NSA1Ljg1IDAgMDEtLjYzLS45M2wtLjM0LjEzYTUuMzUgNS4zNSAwIDAwLjY1IDEgMy45MiAzLjkyIDAgMDAtLjY3LjU1Ljg3Ljg3IDAgMDEuNDMuMzUgMy4yOSAzLjI5IDAgMDEuNjEtLjQ4IDkuMTYgOS4xNiAwIDAwMS4xNyAxIC41Ny41NyAwIDAxLjItLjMyIDguNDQgOC40NCAwIDAxLTEuMDUtLjk0em0yLjM0IDEuNjdoLS4xOGwtLjEtLjA2YS42MS42MSAwIDAxLS4yLjNsLjEyLjA3LjExLjA2LjI4LjE0YTMuNTggMy41OCAwIDAwLjA5LS4zNXoiIG9wYWNpdHk9Ii41NSIgc3R5bGU9Imlzb2xhdGlvbjppc29sYXRlIiBmaWxsPSIjZjJmMmYyIi8+PGNpcmNsZSBjeD0iNy41MyIgY3k9IjUuNTUiIHI9Ii44NyIgZmlsbD0iI2YyZjJmMiIvPjxjaXJjbGUgY3g9IjkuMzYiIGN5PSI3LjEzIiByPSIuNTYiIGZpbGw9IiNmMmYyZjIiLz48L3N2Zz4=" vertex="1" parent="1">
          <mxGeometry x="-614.41" y="533.46" width="74.75" height="74.75" as="geometry" />
        </mxCell>
        <mxCell id="pv9ZLLiu9-7sLAFe4-xA-184" value="&lt;span style=&quot;font-size: 20px;&quot;&gt;SSO&lt;/span&gt;" style="rounded=1;whiteSpace=wrap;html=1;strokeWidth=2;fillWeight=4;hachureGap=8;hachureAngle=45;fillColor=#1ba1e2;sketch=1;arcSize=42;" vertex="1" parent="1">
          <mxGeometry x="-556" y="828" width="139" height="36" as="geometry" />
        </mxCell>
        <mxCell id="pv9ZLLiu9-7sLAFe4-xA-185" value="" style="shape=image;verticalLabelPosition=bottom;verticalAlign=top;imageAspect=0;aspect=fixed;image=data:image/svg+xml,PHN2ZyB4bWxucz0iaHR0cDovL3d3dy53My5vcmcvMjAwMC9zdmciIGRhdGEtbmFtZT0iZmx1ZW50X2ljb25zIiB2aWV3Qm94PSIwIDAgMTggMTgiPjxkZWZzPjxsaW5lYXJHcmFkaWVudCBpZD0iYSIgeDE9IjguODgiIHkxPSIxMi4yMSIgeDI9IjguODgiIHkyPSIuMjEiIGdyYWRpZW50VW5pdHM9InVzZXJTcGFjZU9uVXNlIj48c3RvcCBvZmZzZXQ9IjAiIHN0b3AtY29sb3I9IiMwMDc4ZDQiLz48c3RvcCBvZmZzZXQ9Ii44MiIgc3RvcC1jb2xvcj0iIzVlYTBlZiIvPjwvbGluZWFyR3JhZGllbnQ+PGxpbmVhckdyYWRpZW50IGlkPSJiIiB4MT0iOC44OCIgeTE9IjE2Ljg0IiB4Mj0iOC44OCIgeTI9IjEyLjIxIiBncmFkaWVudFVuaXRzPSJ1c2VyU3BhY2VPblVzZSI+PHN0b3Agb2Zmc2V0PSIuMTUiIHN0b3AtY29sb3I9IiNjY2MiLz48c3RvcCBvZmZzZXQ9IjEiIHN0b3AtY29sb3I9IiM3MDcwNzAiLz48L2xpbmVhckdyYWRpZW50PjwvZGVmcz48cmVjdCB4PSItLjEyIiB5PSIuMjEiIHdpZHRoPSIxOCIgaGVpZ2h0PSIxMiIgcng9Ii42IiBmaWxsPSJ1cmwoI2EpIi8+PHBhdGggZmlsbD0iIzUwZTZmZiIgZD0iTTExLjg4IDQuNDZ2My40OWwtMyAxLjc2di0zLjVsMy0xLjc1eiIvPjxwYXRoIGZpbGw9IiNjM2YxZmYiIGQ9Ik0xMS44OCA0LjQ2bC0zIDEuNzYtMy0xLjc2IDMtMS43NSAzIDEuNzV6Ii8+PHBhdGggZmlsbD0iIzljZWJmZiIgZD0iTTguODggNi4yMnYzLjQ5bC0zLTEuNzZWNC40NmwzIDEuNzZ6Ii8+PHBhdGggZmlsbD0iI2MzZjFmZiIgZD0iTTUuODggNy45NWwzLTEuNzR2My41bC0zLTEuNzZ6Ii8+PHBhdGggZmlsbD0iIzljZWJmZiIgZD0iTTExLjg4IDcuOTVsLTMtMS43NHYzLjVsMy0xLjc2eiIvPjxwYXRoIGQ9Ik0xMi40OSAxNS44NGMtMS43OC0uMjgtMS44NS0xLjU2LTEuODUtMy42M0g3LjExYzAgMi4wNy0uMDYgMy4zNS0xLjg0IDMuNjNhMSAxIDAgMDAtLjg5IDFoOWExIDEgMCAwMC0uODktMXoiIGZpbGw9InVybCgjYikiLz48L3N2Zz4=" vertex="1" parent="1">
          <mxGeometry x="-501" y="782.5" width="41.71" height="41.71" as="geometry" />
        </mxCell>
        <mxCell id="pv9ZLLiu9-7sLAFe4-xA-186" value="" style="shape=image;verticalLabelPosition=bottom;verticalAlign=top;imageAspect=0;aspect=fixed;image=data:image/svg+xml,PHN2ZyB4bWxucz0iaHR0cDovL3d3dy53My5vcmcvMjAwMC9zdmciIHZpZXdCb3g9IjAgMCAxOCAxOCI+PGRlZnM+PGxpbmVhckdyYWRpZW50IGlkPSJhIiB4MT0iNS41MSIgeTE9IjgwMi41IiB4Mj0iMTIuOTQiIHkyPSI4MTAuNTgiIGdyYWRpZW50VHJhbnNmb3JtPSJtYXRyaXgoMSAwIDAgMS41OSAwIC0xMjc4Ljc2KSIgZ3JhZGllbnRVbml0cz0idXNlclNwYWNlT25Vc2UiPjxzdG9wIG9mZnNldD0iMCIgc3RvcC1jb2xvcj0iIzAwNzhkNCIvPjxzdG9wIG9mZnNldD0iLjAyIiBzdG9wLWNvbG9yPSIjMGQ3ZWQ4Ii8+PHN0b3Agb2Zmc2V0PSIuMDgiIHN0b3AtY29sb3I9IiMyYjhhZTAiLz48c3RvcCBvZmZzZXQ9Ii4xNSIgc3RvcC1jb2xvcj0iIzQxOTRlNyIvPjxzdG9wIG9mZnNldD0iLjIyIiBzdG9wLWNvbG9yPSIjNTE5YmViIi8+PHN0b3Agb2Zmc2V0PSIuMjkiIHN0b3AtY29sb3I9IiM1YjlmZWUiLz48c3RvcCBvZmZzZXQ9Ii40IiBzdG9wLWNvbG9yPSIjNWVhMGVmIi8+PHN0b3Agb2Zmc2V0PSIuNTUiIHN0b3AtY29sb3I9IiM1YjlmZWUiLz48c3RvcCBvZmZzZXQ9Ii42OCIgc3RvcC1jb2xvcj0iIzUwOWFlYiIvPjxzdG9wIG9mZnNldD0iLjgiIHN0b3AtY29sb3I9IiMzZjkyZTYiLz48c3RvcCBvZmZzZXQ9Ii45MSIgc3RvcC1jb2xvcj0iIzI2ODhkZiIvPjxzdG9wIG9mZnNldD0iLjk5IiBzdG9wLWNvbG9yPSIjMTI3ZmQ5Ii8+PC9saW5lYXJHcmFkaWVudD48L2RlZnM+PGVsbGlwc2UgY3g9IjguOTYiIGN5PSIxMS44MiIgcng9IjcuNSIgcnk9IjMuMDgiIGZpbGw9IiM3NmJjMmQiLz48ZWxsaXBzZSBjeD0iOS4xNSIgY3k9IjExLjc5IiByeD0iMi40OSIgcnk9Ii42OCIgZmlsbD0iIzVlOTYyNCIvPjxlbGxpcHNlIGN4PSI4Ljk2IiBjeT0iNC45OSIgcng9IjcuNSIgcnk9IjMuMDgiIGZpbGw9InVybCgjYSkiLz48ZWxsaXBzZSBjeD0iOS4xNSIgY3k9IjQuOTUiIHJ4PSIyLjQ5IiByeT0iLjY4IiBmaWxsPSIjMDA1YmExIi8+PHBhdGggZD0iTTkgMTQuODRjNC4xNSAwIDcuNS0xLjM4IDcuNS0zLjA4djEuODJjLS4xNCAxLjY1LTMuNDQgMy03LjUgM1MxLjUgMTUuMiAxLjUgMTMuNXYtMS43NGMtLjA0IDEuNyAzLjMyIDMuMDggNy41IDMuMDh6IiBmaWxsPSIjNWU5NjI0Ii8+PHBhdGggZD0iTTkgOGM0LjE1IDAgNy41LTEuMzggNy41LTMuMDh2MS44MmMtLjE0IDEuNjUtMy40NCAzLTcuNSAzUzEuNSA4LjM2IDEuNSA2LjY2VjQuOTJDMS40NiA2LjYyIDQuODIgOCA5IDh6IiBmaWxsPSIjMDA3OGQ0Ii8+PC9zdmc+" vertex="1" parent="1">
          <mxGeometry x="-292.0799999999999" y="776.8599999999999" width="44.71" height="44.71" as="geometry" />
        </mxCell>
        <mxCell id="pv9ZLLiu9-7sLAFe4-xA-189" value="" style="shape=image;verticalLabelPosition=bottom;verticalAlign=top;imageAspect=0;aspect=fixed;image=data:image/svg+xml,PHN2ZyB4bWxucz0iaHR0cDovL3d3dy53My5vcmcvMjAwMC9zdmciIHZpZXdCb3g9IjAgMCAxOCAxOCI+PGRlZnM+PGxpbmVhckdyYWRpZW50IGlkPSJhIiB4MT0iOS4wMSIgeTE9IjE2LjUiIHgyPSI5LjAxIiB5Mj0iMS41IiBncmFkaWVudFVuaXRzPSJ1c2VyU3BhY2VPblVzZSI+PHN0b3Agb2Zmc2V0PSIwIiBzdG9wLWNvbG9yPSIjNWU5NjQxIi8+PHN0b3Agb2Zmc2V0PSIuMzQiIHN0b3AtY29sb3I9IiM2YmFhNDIiLz48c3RvcCBvZmZzZXQ9Ii42NyIgc3RvcC1jb2xvcj0iIzczYjc0MyIvPjxzdG9wIG9mZnNldD0iMSIgc3RvcC1jb2xvcj0iIzc2YmI0MyIvPjwvbGluZWFyR3JhZGllbnQ+PC9kZWZzPjxwYXRoIGQ9Ik0xNS44OSAyLjkxaDEuMjdhLjM0LjM0IDAgMDEuMzQuMzR2My41YS4zNC4zNCAwIDAxLS4zNC4zNGgtMS4yN1YyLjkxek0xNS44OSA5aDEuMjdhLjM0LjM0IDAgMDEuMzQuMzR2NS44NmEuMzQuMzQgMCAwMS0uMzQuMzRoLTEuMjdWOXoiIGZpbGw9IiNmZmNhMDAiLz48cmVjdCB4PSIyLjEzIiB5PSIxLjUiIHdpZHRoPSIxMy43NiIgaGVpZ2h0PSIxNSIgcng9Ii42OSIgZmlsbD0idXJsKCNhKSIvPjxwYXRoIGQ9Ik01LjkgMTIuOWgtLjcxYS4yLjIgMCAwMS0uMTktLjIxVjQuMzRhLjE5LjE5IDAgMDEuMTktLjJoMS45M2EuMTkuMTkgMCAwMS4xOS4yLjIuMiAwIDAxLS4xOS4yMUg1LjM4djcuOTNoLjUyYS4yLjIgMCAwMS4xOS4yMS4yMS4yMSAwIDAxLS4xOS4yMXoiIGZpbGw9IiNiNGVjMzYiLz48cGF0aCBkPSJNNiAxMy45Mkg0LjRhLjIuMiAwIDAxLS4xOS0uMjFMNC4wOCAzLjM4YS4yLjIgMCAwMS4wNi0uMTUuMTYuMTYgMCAwMS4xMy0uMDZoMi44NXYuNDFINC40N2wuMTIgOS45Mkg2ek0xMiAxM2gtMS41OWEuMTkuMTkgMCAwMS0uMTQtLjA3LjE4LjE4IDAgMDEtLjA2LS4xNFY3LjlhLjE5LjE5IDAgMDEuMTktLjJoLjkxVjUuNDVoLjM4djIuNDRhLjIuMiAwIDAxLS4xOC4yMWgtLjkxdjQuNDJIMTJ6IiBmaWxsPSIjYjRlYzM2Ii8+PHJlY3QgeD0iNy4wNyIgeT0iMi4yOSIgd2lkdGg9IjYuMTQiIGhlaWdodD0iMy4xMSIgcng9Ii4yNiIgZmlsbD0iIzM2NTYxNSIvPjxyZWN0IHg9IjUuODYiIHk9IjEyLjY5IiB3aWR0aD0iNC45IiBoZWlnaHQ9IjEuMDkiIHJ4PSIuMjYiIHRyYW5zZm9ybT0icm90YXRlKDkwIDguMzA1IDEzLjIzNSkiIGZpbGw9IiMzNjU2MTUiLz48cmVjdCB4PSIzLjk5IiB5PSIxMi43MSIgd2lkdGg9IjQuOSIgaGVpZ2h0PSIxLjA5IiByeD0iLjI2IiB0cmFuc2Zvcm09InJvdGF0ZSg5MCA2LjQ0IDEzLjI2KSIgZmlsbD0iIzM2NTYxNSIvPjxyZWN0IHg9IjkuOTgiIHk9IjEyLjcxIiB3aWR0aD0iNC45IiBoZWlnaHQ9IjEuMDkiIHJ4PSIuMjYiIHRyYW5zZm9ybT0icm90YXRlKDkwIDEyLjQyNSAxMy4yNTUpIiBmaWxsPSIjZjJmMmYyIi8+PGVsbGlwc2UgY3g9IjguMTEiIGN5PSI4LjA2IiByeD0iMS4wNCIgcnk9IjEuMTIiIGZpbGw9IiNmMmYyZjIiLz48cGF0aCBkPSJNMi4xMSAxMi4yNUguODRhLjM0LjM0IDAgMDEtLjM0LS4zVjYuMDlhLjM0LjM0IDAgMDEuMzQtLjM0aDEuMjd2Ni41eiIgZmlsbD0iIzNiM2IzYiIvPjwvc3ZnPg==" vertex="1" parent="1">
          <mxGeometry x="-391.31" y="780.2099999999998" width="38" height="38" as="geometry" />
        </mxCell>
        <mxCell id="pv9ZLLiu9-7sLAFe4-xA-208" value="" style="shape=image;verticalLabelPosition=bottom;verticalAlign=top;imageAspect=0;aspect=fixed;image=data:image/svg+xml,PHN2ZyB4bWxucz0iaHR0cDovL3d3dy53My5vcmcvMjAwMC9zdmciIGRhdGEtbmFtZT0iZmx1ZW50X2ljb25zIiB2aWV3Qm94PSIwIDAgMTggMTgiPjxkZWZzPjxsaW5lYXJHcmFkaWVudCBpZD0iYSIgeDE9IjIuNDQiIHkxPSIxMC42NyIgeDI9IjE1LjI3IiB5Mj0iMTAuNjciIGdyYWRpZW50VHJhbnNmb3JtPSJyb3RhdGUoLS4wMSAtMjg2NC43MTkgLTgwMi4zOSkiIGdyYWRpZW50VW5pdHM9InVzZXJTcGFjZU9uVXNlIj48c3RvcCBvZmZzZXQ9IjAiIHN0b3AtY29sb3I9IiMwMDViYTEiLz48c3RvcCBvZmZzZXQ9Ii4wNyIgc3RvcC1jb2xvcj0iIzAwNjBhOSIvPjxzdG9wIG9mZnNldD0iLjM2IiBzdG9wLWNvbG9yPSIjMDA3MWM4Ii8+PHN0b3Agb2Zmc2V0PSIuNTIiIHN0b3AtY29sb3I9IiMwMDc4ZDQiLz48c3RvcCBvZmZzZXQ9Ii42NCIgc3RvcC1jb2xvcj0iIzAwNzRjZCIvPjxzdG9wIG9mZnNldD0iLjgyIiBzdG9wLWNvbG9yPSIjMDA2YWJiIi8+PHN0b3Agb2Zmc2V0PSIxIiBzdG9wLWNvbG9yPSIjMDA1YmExIi8+PC9saW5lYXJHcmFkaWVudD48L2RlZnM+PHBhdGggZD0iTTkgNS4xNGMtMy41NCAwLTYuNDEtMS02LjQxLTIuMzJ2MTIuMzZjMCAxLjI3IDIuODIgMi4zIDYuMzIgMi4zMkg5YzMuNTQgMCA2LjQxLTEgNi40MS0yLjMyVjIuODJjMCAxLjI4LTIuODcgMi4zMi02LjQxIDIuMzJ6IiBmaWxsPSJ1cmwoI2EpIi8+PHBhdGggZD0iTTE1LjQxIDIuODJjMCAxLjI4LTIuODcgMi4zMi02LjQxIDIuMzJzLTYuNDEtMS02LjQxLTIuMzJTNS40Ni41IDkgLjVzNi40MSAxIDYuNDEgMi4zMiIgZmlsbD0iI2U4ZThlOCIvPjxwYXRoIGQ9Ik0xMy45MSAyLjYzYzAgLjgyLTIuMiAxLjQ4LTQuOTEgMS40OHMtNC45Mi0uNjYtNC45Mi0xLjQ3UzYuMjggMS4xNiA5IDEuMTZzNC45MS42NiA0LjkxIDEuNDciIGZpbGw9IiM1MGU2ZmYiLz48cGF0aCBkPSJNOSAzYTExLjY1IDExLjY1IDAgMDAtMy45LjU3IDExLjUzIDExLjUzIDAgMDAzLjkuNTQgMTEuNDcgMTEuNDcgMCAwMDMuODktLjU4QTExLjkzIDExLjkzIDAgMDA5IDN6IiBmaWxsPSIjMTk4YWIzIi8+PHBhdGggZD0iTTEyIDl2LjQyYTUuMTIgNS4xMiAwIDAwLS4wOC42M2MwIC4xMiAwIC4zLjA1LjQ2czAgLjI3IDAgLjM2YTEuNjggMS42OCAwIDAxLS4yNS44Ni40My40MyAwIDAwMCAuMDdsLjEuMTJhMTAuNTUgMTAuNTUgMCAwMDEuMDYtMi4zOGMuMjgtLjk1LjMxLTEuNjMuMDktMS45MmEyLjU4IDIuNTggMCAwMC0yLjY4LS44NiAzLjI5IDMuMjkgMCAwMS45MS42N0EyLjI4IDIuMjggMCAwMTEyIDl6bS0uMzEuMDhhMS4xNSAxLjE1IDAgMDAtLjc5LjA5Yy0uMjkuMTgtLjIuNTUgMCAxYTcuNzcgNy43NyAwIDAwLjM1Ljg1bC4wOS4xNmMuMDUuMDguMDguMTUuMTEuMmwuMDguMTNhMS4yOCAxLjI4IDAgMDAuMTgtLjY1IDIuODYgMi44NiAwIDAwMC0uMzNjMC0uMTcgMC0uMzYtLjA1LS40OWE2LjEgNi4xIDAgMDEuMDgtLjY5Ljc3My43NzMgMCAwMS0uMDEtLjN6bS0uMy40MWEuNC40IDAgMDEtLjE4LjEuMzMuMzMgMCAwMS0uMTQgMEEuMjMuMjMgMCAwMTExIDkuNGMwLS4wNy4xMS0uMTMuMjQtLjE1aC4xOXMuMDkgMCAuMDkuMDhhLjIuMiAwIDAxLS4wOS4xM3ptLTQuNjkuODl2LS4xN2ExIDEgMCAwMDAtLjE3IDUuNTUgNS41NSAwIDAxMC0xIDUuMjIgNS4yMiAwIDAxLjMtMS4xQTIuNDEgMi40MSAwIDAxNy41OCA3YTQuNzggNC43OCAwIDAwLTEuMzUtLjIgMS44NyAxLjg3IDAgMDAtMS4xLjMgMiAyIDAgMDAtLjYzIDEuODIgMTIuMjcgMTIuMjcgMCAwMC41IDIuMjRjLjM0IDEuMTQuNzMgMS44NCAxLjA3IDEuOTUuMTUuMDUuMzEgMCAuNDctLjIxLjI4LS4zNC41NC0uNjMuNjktLjhhMS44OCAxLjg4IDAgMDEtLjQ5LTEuNzV6bS4yNi40YTIuMTggMi4xOCAwIDAwLjA2LjU2IDEuNSAxLjUgMCAwMC4yNi40NCAxLjA3IDEuMDcgMCAwMC4zNS4yNSAxLjA5IDEuMDkgMCAwMC4zOS4wOGMwLS4xNy4xNC0uMzguMjMtLjZhNC4zNSA0LjM1IDAgMDAuMjEtLjU5IDYuNjEgNi42MSAwIDAwMC0xLjExYzAtLjA5IDAtLjE5LS4wNi0uM2EuNDUuNDUgMCAwMC0uMTItLjI3LjY2LjY2IDAgMDAtLjI4LS4xNmgtLjJhMS41NiAxLjU2IDAgMDAtLjQ4LjE0IDIgMiAwIDAwLS4zMi4xOXYuNzJhLjg2Ljg2IDAgMDEwIC4xNXYuMzl6bS42Ni0xLjM0YS40Ni40NiAwIDAxLjI4IDAgLjYuNiAwIDAxLjE5LjA2Yy4wOSAwIC4xLjExLjA5LjE0YS4zNy4zNyAwIDAxLS4xMi4xMy4zLjMgMCAwMS0uMDYtLjA0LjM0LjM0IDAgMDEtLjI4LS4yOHptLjc0IDNhLjIzLjIzIDAgMDAtLjEzLjA2bC0uMTQuMTdjLS4xNy4yMS0uMjQuMjgtLjczLjM4YS41Mi41MiAwIDAwLS4yNi4xLjU4LjU4IDAgMDAuMjQuMTEgMS4xOCAxLjE4IDAgMDAuNzIgMCAxLjcgMS43IDAgMDAuMzktLjI2LjYxLjYxIDAgMDAuMi0uMzEuMzYuMzYgMCAwMC0uMS0uMjguMTUuMTUgMCAwMC0uMTUtLjAyem00LjYxIDBhMS42MyAxLjYzIDAgMDEtMS4xMyAwIC4yMi4yMiAwIDAwLS4xNCAwIC4zLjMgMCAwMC0uMTcuMTQgMS4wOSAxLjA5IDAgMDAwIC4zMSAxLjggMS44IDAgMDAxLjEtLjEgMS4zNiAxLjM2IDAgMDAuNDgtLjM0em0tMi40LTIuMTRjLS4xNC0uNDEtLjM0LTEgLjE4LTEuMzZhMS4zNSAxLjM1IDAgMDEuODktLjE1QTMuMTggMy4xOCAwIDAwMTEgNy42NGwtLjEtLjEtLjA2LS4wNmEuMzQuMzQgMCAwMC0uMDYtLjA2IDIuMzQgMi4zNCAwIDAwLS42Ny0uNDJBMi42MyAyLjYzIDAgMDA5IDYuNzhhMS41MiAxLjUyIDAgMDAtLjcuMTFBMS43NyAxLjc3IDAgMDA4IDdhMi4xIDIuMSAwIDAwLS43NCAxIDUuODQgNS44NCAwIDAwLS4yMSAxIDEuNjYgMS42NiAwIDAxMS0uMjMuODQuODQgMCAwMS43Ny45MSA3LjI2IDcuMjYgMCAwMTAgMS4yNyAzLjg3IDMuODcgMCAwMS0uMjMuNjNjLS4wNi4xNy0uMTQuMzUtLjE4LjQ5YS41LjUgMCAwMS4zOC4xNC42Ni42NiAwIDAxLjE5LjUzSDl2LjI0YTYuNTUgNi41NSAwIDAwLjI0IDIuNDQuNTQuNTQgMCAwMC4yNC4yMS42LjYgMCAwMC4zMS4xIDEuMyAxLjMgMCAwMDEtLjM0IDEuMDUgMS4wNSAwIDAwLjI5LS42NmMuMDctLjQ1LjIyLTEuNy4yNC0yYS43Mi43MiAwIDAxLjA5LS40NC42My42MyAwIDAxLjI3LS4yNCA1LjM2IDUuMzYgMCAwMS0xLjA3LTEuODF6IiBmaWxsPSIjZjJmMmYyIi8+PC9zdmc+" vertex="1" parent="1">
          <mxGeometry x="-346" y="772.31" width="50.76" height="50.76" as="geometry" />
        </mxCell>
        <mxCell id="pv9ZLLiu9-7sLAFe4-xA-238" style="edgeStyle=orthogonalEdgeStyle;rounded=0;orthogonalLoop=1;jettySize=auto;html=1;" edge="1" parent="1" source="pv9ZLLiu9-7sLAFe4-xA-236" target="pv9ZLLiu9-7sLAFe4-xA-28">
          <mxGeometry relative="1" as="geometry" />
        </mxCell>
        <mxCell id="pv9ZLLiu9-7sLAFe4-xA-236" value="&lt;span style=&quot;font-size: 20px;&quot;&gt;SSO&lt;/span&gt;" style="rounded=1;whiteSpace=wrap;html=1;strokeWidth=2;fillWeight=4;hachureGap=8;hachureAngle=45;fillColor=#1ba1e2;sketch=1;" vertex="1" parent="1">
          <mxGeometry x="-523" y="208" width="78.75" height="35" as="geometry" />
        </mxCell>
        <mxCell id="pv9ZLLiu9-7sLAFe4-xA-240" value="" style="verticalLabelPosition=bottom;html=1;verticalAlign=top;align=center;strokeColor=none;fillColor=#00BEF2;shape=mxgraph.azure.github_code;pointerEvents=1;" vertex="1" parent="1">
          <mxGeometry x="-757" y="199" width="50" height="53" as="geometry" />
        </mxCell>
        <mxCell id="pv9ZLLiu9-7sLAFe4-xA-241" style="edgeStyle=orthogonalEdgeStyle;rounded=0;orthogonalLoop=1;jettySize=auto;html=1;entryX=1;entryY=0.5;entryDx=0;entryDy=0;entryPerimeter=0;" edge="1" parent="1" source="pv9ZLLiu9-7sLAFe4-xA-28" target="pv9ZLLiu9-7sLAFe4-xA-240">
          <mxGeometry relative="1" as="geometry" />
        </mxCell>
        <mxCell id="pv9ZLLiu9-7sLAFe4-xA-251" value="" style="shape=image;imageAspect=0;aspect=fixed;verticalLabelPosition=bottom;verticalAlign=top;image=data:image/png,iVBORw0KGgoAAAANSUhEUgAAARMAAAC3CAMAAAAGjUrGAAABSlBMVEX////+cz7i9fzN7PYlJSUAAAD+azwhISH+cTv39/ccHBw8PDwfHx/+bjUZGRlwcHAQEBC00fNmZmaZmZnp8fvo6Ojx8fHQ0NDKysoNDQ3f8vvW1tbT7vfz8/O/v79QUFC1tbX+d0SmpqZ4eHg/Pz/3+v671vT+YEAxMTG61fTC3PXK8f3/aiv/9vNYWFiHh4fU5fj+p3f+rqH+4t3+WTf+gFD/2s3/zr6hoaEtLS3c6fn+iGH+bU/+npD+dlD5fmj8Zkn+7On+jHn+l3D/uJ/eysfd0dDrrp31mXv7glzptanxpIr/ZC/lv7XhyMH+r4j+n3j3jm/+fV3+0cr+xbz/Uyz5hG7tnpTzjn/+tqv+o5TptK3+c1r+dk/7gVD1nnzEppyHVEAvREjgbUFPPDTCYT1cNymNUjwpGBE6KiW5ZkfMwtP+war+YBQGLGNWAAAMJ0lEQVR4nO2c+1fiSBaAEyUSHgkRCBCCQHgTEBh5tYCtCDraTk/3aLsz2na7s7O7M7tr//+/7q1U5QG2M2fbsVmT+s7pVgv0pD7vvXWrCDIMhUKhUCgUCoVCoVAoFAqFQqFQKBQKhUKhPAHlchxTLq/6Uv4/iI86eqVeAer1eqUziq/6glZNuVOp651R2gT8gBcPR0s5rlc66bVl0npFj3tTS3mk66N7QrCVjq57MYXiFf1+iNhWRnXPZVBZr/yOEQN901uhAkFCZl5+WErHU8V2VOmYShgGZUrGZCF40rruGSmjujX1MlPOrC/i1KLXPSKlY5aScnktvbasBMg4pXiiqIwsJZA394UsWdErHoiUeH1kGnEqaTyUQXpl1Vf85JRJeQUldiVpZNSj74+Oj9WMrcYKlUpn1df81HT0e3nTUL896TebrMaenrxSG8tS0pujVV/00xLHzatTSeasLwg8y7L9jY3vNl6eZZaldFy++OBi4lRyhIUAfF/bAC3a0bIU3dXZM8KZ41DySuN5Uwr7YQPx4fWSlPSmiwOlXCGZUzZLySue52e3YyLFCBTge7OopN1fZnGYwC+d1IzG901Q8s033xApfB87+U5dlJJ2b+dWxgXWzhz1lGeFN+DkLXHykTg5ySxmT8W1Sw9edOzMWX8lgAdHnLDsBuH1YqCMXLsZ7HSWwkQzVMzeWEr4UxIoPywGSrri1uQxjhrtnXDjdROLsNYdlh+bgXK82OTrLk2ecgVXWDNMGm8FdgnLyXevFpOn48pdT7yj6zh10qaT5rISh5MfGgvJM6q7scxubm52FitspslCd8J/1slG39r3kIKy6cLjWXCSXnbSPz0/P+3zi07OgQ8b7KKTNd2lThbLyfrRpGpw88F20n+JByfn5rPMIutqJ6ScZL7tVQ/3dnb2DqsHLzWiRLvpTX7au947nFzuqwsFxd1O8Erc+LE3udhGD2y/u6kSKaBkr2uMXRxaUrCTjoudMAzpTXr7XfOh6c2BkT7aeW/Hev7e5V+84qSMnWRubgwlcgL9P63eoEB52dsznipvwX/bh5fvG3aRdb+TxuuqERH5ViSFPu70IFD4yQR5CrRzERk+Xhzsr3vFiVFPfuyh6Sd9HBcKwCfd3jnP9nvX6Il5juOKDAqUg2P3O0lba3Hmpyoay3OKwiEn0/0J9Ca9KzTY5hSuhQZ/qhq7Y3evO/ecyDkcEigmLCcqxEkBfbLnBSd2b0+cMHI+i4ssipNT7IRR8ykUJmacuLtnw3vAMu5Ops4HjXqi4XpiQeqJi/c7sC3WrSMlc90xwesOWZ8Jg8m+sz3RXXkzSll3FJSbiWP+0+oE9yfOQNnD/Qlx4taTe/PsEVbjxlFv38oeq4+9IRUFsXO5b28B3Xv2GLeTZ73xvnpg73fIzlib9K5x+HT3yH6HnMe69ozaTB7c3r8/6B1e7+xcH/Ym1mEBRMoN7JWv924uD1XnSYFbU8dOHnyspJ4f9KrV3sG5Zh8qaS8naKx38KNzA7jm3te8mHJ9zXEk22jyWv+0zy6cPrJs//T0tN88cuz/1nR91Vf+hOBAIS9nNMAGvyTEOFmCweaRI0xc/Ro6w9TT1tKz3vj4GSGE5rEjc1wdJtbNFsbdjg375T87RpxOiBK335PD6B1LSmNGXvPSZuSVHl4wD/ENJ/iZLn4BnVA27wTNrDduiRN+Om8KUEUEdnhHhpqqdfOJyzMHETdvos40zkwBU2Z6Ox6P5wwz4y0nJEo8cC+o457hzJw4Ef5qHMDCP9WsK4JKlHRc29Uv0KmQ+ZqJwv5cNE5RmOTfzFLbl8366gkl9g33F+aL6L9wXFtVs1Hu76aTmewtJVb6dK0bC37mDKR/mKlzG8e1xDNKzDfwHFtOfvmn4eRXzXRyZmyGvfWmwLgOe2TbCav9+ttv//q39SU4SXfq7t0MP0Cn0jleuClHc3wunI0qXsobk3jnP/dvVDKdvK+PXN7QP8DFw05OtlZ9cSvi+t49fia81v3jb3cj3QPtISfsxuGqr24VbF/dTPoPHqBsVA8Hq77Cr8z0av+yV52cPujkQ7V32TvEB/seYXrx7mrn6go5+awW/uzdztW7i66XnGC2TwSWv/1sURmu+tpWxpnACvPPOOE1rxUTmzk4uXM6QYmk9Vm+72knGjjhzcNqfoze1zTm+Y8ebU+AO4HvDzVesA7cIJH42VuvOxkjJ3eWk4/oLZMwOv3jb3Yp7wR+Bk74oeVkzAu3c087GfL8+E6D/LGczMAJRM/Me42JyRCqx6KTW0G4HYKTVV/Z6hhqwlvIHQ05Qa+mC/M3gvBm0BTervrKVsdAE04GOE74PizIwnwuCPNuUzhZ9ZWtjjksw12NHw+aKIlQnNwhJ5ow82iNnQ5v0ZIzBQPgRDgb9MHQsCnMt8cCO7vzYCc7mGnNT83mnOmywi1ycjeFdXg+bQq3zKDfbH5ix3MPLj5oytvdmSAMkZMBA+swihH+DiXO9rYHjTBMdzA8+9iEwNgegpNt2CXDejPsNz9pt8OBB1OHQSEyGAyHwwFsbSBWPsLK3OTZATM1BgcDT4YJYbs71wSBRXExFgRhfDf1sg1gcHfS/9Tk+ydGqkznY1R4x/OhR5diA0gfoGudu07xgKcTh0KhUCgUCoVCoXgDNZlNqfbtfipBDqzwmh6HXIy05Ud8fyGSK/lqpWgMv0OBCbRKBrlWtJ3/My5wBcQ40Zf94u9OlcSg3+/z+4OiaPztDyYQggFEGIZKX/6TV0nI75faX/rNBV/QZ+IPxtBQIOS3hnxhf+wZZlCK8+eCpaXkSViffWZG9oOMCiHi80vozRroE1+eIU6CnDkmvXiSy35SilIrr3BmiOdbUUZu+6KGo0Q+WqvVotnAVrEVw4/L7VxttxbNY1WBlgizrsVkRi7UwkgKg50Eo3IgIL8oGWPJFczqUcghJcaUxBb5MsaF1RLHtZATNadIyu4ux0XUkBJBjwYKnMLt7koK11LR13mUMSU852RJkSQuZjoxliE5ClLE4gqm9SgK/lqSiUkcWUpjkq/FtWKFLfRnlEQpmk0m8zmuVRKRk0AsKOUKyWSqyEko2wJtCBOlQH5SKgYUTCc4weSa3xfOqSuZ2ZdTVODy1aA5s5jkr+HECBSlIK6PW23JZzhJBaWIMddAfleKbEEYQIENL/9EpxOmCNZ2U19lJn8aakiEGrgVkUjyxKQgqRypXdFajXJhw0lLrJkl90UQZoqiIBhd/pELTvKKz8fln3ACT0BB2kWloyCGcFUAJ6QkFhT795vlkBOZsy0ZZQg5uV8tFpxkwYmSf8IJ/PkEolIOfVRLZMmMSWE8m0BbKllPk43cyXKcXRlyUiTgTicyRy4YVmRj+YV6gh8JREXbSSKEnLyQOLuNiSjRgJwL+/y7yz9zwQmqwuLz6mWheqoykChIYSNTIE7wI1Bil51AG2M7iUpRaFtgxpzZfsh5ILXoJFCCtj/0vBqUUNiXw4Rxf285YWJKzTKQkJCTJKfYv/GSVAxANYKOtUX6twh0rajgOPoTJgYLkxh9Vu+Qy4d9IULNr6C52U6yot/sPCADjHUnKFqLTNYnFVALg3qyXCqRSKg5CTXyqt3HbiXUKIz5gs8tdXLQlBkURKO/t53ILclstmBXYzhpKyJZimSoNuhBtNT6gmIr2gqjvaCC1nHkxF9qtyOtoIjGIl99Wo9BzinW4pqAhYRxOoH1OZgzfsX5nFQznMDqVMqjETUqSjiIIhzaBIeDYbQJVowqYuwB/aJojPmV1mPOZr4+edHRYsakkLrgBIqBGAwVIzXFX8C9PZMqKWItUiyFpTDp7AIvaiI+GvCLfvx3L+yzAn9YrLUTzHNiK8qV7KOAlJ97gfaAnP2EQk5ROE6MZrdC2AmjRnbRIUA4mreelCyWRA52haEIGQvs4j/1wCm1Vvt5LTlw8cmUY3e2ZXwlp5ybExn2dS+SMlmLjWepedjoJZ35EFCT2VjecSCbTBHU55U2/xuJ0JefxLmJLUcUqcoz68+figiXM2O/KHLPq1Q+FVl/EB9BwqosPbuzsieiLUpSsZCP5SQxSsOEUCjhNVV51GtiLiORLeZyrZj6DF+ioVAoFAqFQqFQKBQKhUKhUCgUCoVCoVAoFAqFQqFQfp//AlqOh5TMiw9tAAAAAElFTkSuQmCC;" vertex="1" parent="1">
          <mxGeometry x="-688" y="1258.9" width="230.21" height="153.19" as="geometry" />
        </mxCell>
        <mxCell id="pv9ZLLiu9-7sLAFe4-xA-271" value="&lt;span style=&quot;font-size: 20px;&quot;&gt;Git Checkout&lt;/span&gt;" style="rounded=1;whiteSpace=wrap;html=1;strokeWidth=2;fillWeight=4;hachureGap=8;hachureAngle=45;fillColor=#1ba1e2;sketch=1;arcSize=50;" vertex="1" parent="1">
          <mxGeometry x="-212.5" y="564" width="147" height="35" as="geometry" />
        </mxCell>
        <mxCell id="pv9ZLLiu9-7sLAFe4-xA-272" value="" style="rounded=0;whiteSpace=wrap;html=1;dashed=1;strokeWidth=2;perimeterSpacing=2;" vertex="1" parent="1">
          <mxGeometry x="-224" y="1447" width="192" height="255" as="geometry" />
        </mxCell>
        <mxCell id="pv9ZLLiu9-7sLAFe4-xA-274" value="&lt;span style=&quot;font-size: 20px;&quot;&gt;OWASP&lt;/span&gt;" style="rounded=1;whiteSpace=wrap;html=1;strokeWidth=2;fillWeight=4;hachureGap=8;hachureAngle=45;fillColor=#1ba1e2;sketch=1;" vertex="1" parent="1">
          <mxGeometry x="-209.50000000000003" y="1654" width="163" height="35" as="geometry" />
        </mxCell>
        <mxCell id="pv9ZLLiu9-7sLAFe4-xA-276" value="&lt;span style=&quot;font-size: 20px;&quot;&gt;Stage 7&lt;/span&gt;" style="rounded=1;whiteSpace=wrap;html=1;strokeWidth=2;fillWeight=4;hachureGap=8;hachureAngle=45;fillColor=#1ba1e2;sketch=1;" vertex="1" parent="1">
          <mxGeometry x="-213" y="1462" width="162.99" height="35" as="geometry" />
        </mxCell>
        <mxCell id="pv9ZLLiu9-7sLAFe4-xA-277" value="" style="rounded=0;whiteSpace=wrap;html=1;dashed=0;strokeWidth=2;perimeterSpacing=2;sketch=0;outlineConnect=0;fontColor=#232F3E;gradientColor=none;fillColor=#DD344C;strokeColor=none;verticalLabelPosition=bottom;verticalAlign=top;fontStyle=0;aspect=fixed;shape=mxgraph.aws4.email;" vertex="1" parent="1">
          <mxGeometry x="-364.63" y="1525.38" width="69.59" height="94.23" as="geometry" />
        </mxCell>
        <mxCell id="pv9ZLLiu9-7sLAFe4-xA-279" value="&lt;span style=&quot;font-size: 20px;&quot;&gt;&amp;nbsp; &amp;nbsp;Pass ou Fail&lt;/span&gt;" style="rounded=1;whiteSpace=wrap;html=1;strokeWidth=2;fillWeight=4;hachureGap=8;hachureAngle=45;fillColor=#1ba1e2;sketch=1;" vertex="1" parent="1">
          <mxGeometry x="-414.96000000000004" y="1466" width="163" height="35" as="geometry" />
        </mxCell>
        <mxCell id="pv9ZLLiu9-7sLAFe4-xA-280" value="" style="rounded=0;whiteSpace=wrap;html=1;dashed=1;strokeWidth=2;perimeterSpacing=2;" vertex="1" parent="1">
          <mxGeometry x="-760" y="1447.5" width="319.54" height="253" as="geometry" />
        </mxCell>
        <mxCell id="pv9ZLLiu9-7sLAFe4-xA-281" value="" style="image;html=1;image=img/lib/atlassian/Jira_Logo.svg;" vertex="1" parent="1">
          <mxGeometry x="-684.79" y="1532" width="139.25" height="122" as="geometry" />
        </mxCell>
        <mxCell id="pv9ZLLiu9-7sLAFe4-xA-282" value="&lt;span style=&quot;font-size: 20px;&quot;&gt;Jira&lt;/span&gt;" style="rounded=1;whiteSpace=wrap;html=1;strokeWidth=2;fillWeight=4;hachureGap=8;hachureAngle=45;fillColor=#1ba1e2;sketch=1;" vertex="1" parent="1">
          <mxGeometry x="-681.46" y="1466" width="163" height="35" as="geometry" />
        </mxCell>
        <mxCell id="pv9ZLLiu9-7sLAFe4-xA-284" value="&lt;span style=&quot;font-size: 20px;&quot;&gt;Notification&lt;/span&gt;" style="rounded=1;whiteSpace=wrap;html=1;strokeWidth=2;fillWeight=4;hachureGap=8;hachureAngle=45;fillColor=#1ba1e2;sketch=1;" vertex="1" parent="1">
          <mxGeometry x="-418.50000000000006" y="1656" width="163" height="35" as="geometry" />
        </mxCell>
        <mxCell id="pv9ZLLiu9-7sLAFe4-xA-285" value="&lt;span style=&quot;font-size: 20px;&quot;&gt;PASS&lt;/span&gt;" style="rounded=1;whiteSpace=wrap;html=1;strokeWidth=2;fillWeight=4;hachureGap=8;hachureAngle=45;fillColor=#1ba1e2;sketch=1;" vertex="1" parent="1">
          <mxGeometry x="-504.18" y="1523.5" width="124" height="35" as="geometry" />
        </mxCell>
        <mxCell id="pv9ZLLiu9-7sLAFe4-xA-286" value="&lt;span style=&quot;font-size: 20px;&quot;&gt;FAIL&lt;/span&gt;" style="rounded=1;whiteSpace=wrap;html=1;strokeWidth=2;fillWeight=4;hachureGap=8;hachureAngle=45;fillColor=#1ba1e2;sketch=1;" vertex="1" parent="1">
          <mxGeometry x="-504.17999999999995" y="1580" width="124" height="35" as="geometry" />
        </mxCell>
        <mxCell id="pv9ZLLiu9-7sLAFe4-xA-291" value="SSH &lt;br&gt;Connection" style="ellipse;shape=cloud;whiteSpace=wrap;html=1;align=center;" vertex="1" parent="1">
          <mxGeometry x="-915" y="538" width="123" height="140" as="geometry" />
        </mxCell>
        <mxCell id="pv9ZLLiu9-7sLAFe4-xA-322" style="edgeStyle=orthogonalEdgeStyle;rounded=0;orthogonalLoop=1;jettySize=auto;html=1;" edge="1" parent="1" source="pv9ZLLiu9-7sLAFe4-xA-320" target="pv9ZLLiu9-7sLAFe4-xA-92">
          <mxGeometry relative="1" as="geometry" />
        </mxCell>
        <mxCell id="pv9ZLLiu9-7sLAFe4-xA-320" value="" style="shape=image;verticalLabelPosition=bottom;verticalAlign=top;imageAspect=0;aspect=fixed;image=data:image/svg+xml,PHN2ZyB4bWxucz0iaHR0cDovL3d3dy53My5vcmcvMjAwMC9zdmciIHZpZXdCb3g9IjAgMCAxOCAxOCI+PGRlZnM+PGxpbmVhckdyYWRpZW50IGlkPSJhIiB4MT0iOS4wMSIgeTE9IjE2LjUiIHgyPSI5LjAxIiB5Mj0iMS41IiBncmFkaWVudFVuaXRzPSJ1c2VyU3BhY2VPblVzZSI+PHN0b3Agb2Zmc2V0PSIwIiBzdG9wLWNvbG9yPSIjNWU5NjQxIi8+PHN0b3Agb2Zmc2V0PSIuMzQiIHN0b3AtY29sb3I9IiM2YmFhNDIiLz48c3RvcCBvZmZzZXQ9Ii42NyIgc3RvcC1jb2xvcj0iIzczYjc0MyIvPjxzdG9wIG9mZnNldD0iMSIgc3RvcC1jb2xvcj0iIzc2YmI0MyIvPjwvbGluZWFyR3JhZGllbnQ+PC9kZWZzPjxwYXRoIGQ9Ik0xNS44OSAyLjkxaDEuMjdhLjM0LjM0IDAgMDEuMzQuMzR2My41YS4zNC4zNCAwIDAxLS4zNC4zNGgtMS4yN1YyLjkxek0xNS44OSA5aDEuMjdhLjM0LjM0IDAgMDEuMzQuMzR2NS44NmEuMzQuMzQgMCAwMS0uMzQuMzRoLTEuMjdWOXoiIGZpbGw9IiNmZmNhMDAiLz48cmVjdCB4PSIyLjEzIiB5PSIxLjUiIHdpZHRoPSIxMy43NiIgaGVpZ2h0PSIxNSIgcng9Ii42OSIgZmlsbD0idXJsKCNhKSIvPjxwYXRoIGQ9Ik01LjkgMTIuOWgtLjcxYS4yLjIgMCAwMS0uMTktLjIxVjQuMzRhLjE5LjE5IDAgMDEuMTktLjJoMS45M2EuMTkuMTkgMCAwMS4xOS4yLjIuMiAwIDAxLS4xOS4yMUg1LjM4djcuOTNoLjUyYS4yLjIgMCAwMS4xOS4yMS4yMS4yMSAwIDAxLS4xOS4yMXoiIGZpbGw9IiNiNGVjMzYiLz48cGF0aCBkPSJNNiAxMy45Mkg0LjRhLjIuMiAwIDAxLS4xOS0uMjFMNC4wOCAzLjM4YS4yLjIgMCAwMS4wNi0uMTUuMTYuMTYgMCAwMS4xMy0uMDZoMi44NXYuNDFINC40N2wuMTIgOS45Mkg2ek0xMiAxM2gtMS41OWEuMTkuMTkgMCAwMS0uMTQtLjA3LjE4LjE4IDAgMDEtLjA2LS4xNFY3LjlhLjE5LjE5IDAgMDEuMTktLjJoLjkxVjUuNDVoLjM4djIuNDRhLjIuMiAwIDAxLS4xOC4yMWgtLjkxdjQuNDJIMTJ6IiBmaWxsPSIjYjRlYzM2Ii8+PHJlY3QgeD0iNy4wNyIgeT0iMi4yOSIgd2lkdGg9IjYuMTQiIGhlaWdodD0iMy4xMSIgcng9Ii4yNiIgZmlsbD0iIzM2NTYxNSIvPjxyZWN0IHg9IjUuODYiIHk9IjEyLjY5IiB3aWR0aD0iNC45IiBoZWlnaHQ9IjEuMDkiIHJ4PSIuMjYiIHRyYW5zZm9ybT0icm90YXRlKDkwIDguMzA1IDEzLjIzNSkiIGZpbGw9IiMzNjU2MTUiLz48cmVjdCB4PSIzLjk5IiB5PSIxMi43MSIgd2lkdGg9IjQuOSIgaGVpZ2h0PSIxLjA5IiByeD0iLjI2IiB0cmFuc2Zvcm09InJvdGF0ZSg5MCA2LjQ0IDEzLjI2KSIgZmlsbD0iIzM2NTYxNSIvPjxyZWN0IHg9IjkuOTgiIHk9IjEyLjcxIiB3aWR0aD0iNC45IiBoZWlnaHQ9IjEuMDkiIHJ4PSIuMjYiIHRyYW5zZm9ybT0icm90YXRlKDkwIDEyLjQyNSAxMy4yNTUpIiBmaWxsPSIjZjJmMmYyIi8+PGVsbGlwc2UgY3g9IjguMTEiIGN5PSI4LjA2IiByeD0iMS4wNCIgcnk9IjEuMTIiIGZpbGw9IiNmMmYyZjIiLz48cGF0aCBkPSJNMi4xMSAxMi4yNUguODRhLjM0LjM0IDAgMDEtLjM0LS4zVjYuMDlhLjM0LjM0IDAgMDEuMzQtLjM0aDEuMjd2Ni41eiIgZmlsbD0iIzNiM2IzYiIvPjwvc3ZnPg==" vertex="1" parent="1">
          <mxGeometry x="-530.17" y="488.75000000000006" width="38" height="38" as="geometry" />
        </mxCell>
        <mxCell id="pv9ZLLiu9-7sLAFe4-xA-323" value="" style="shape=image;verticalLabelPosition=bottom;verticalAlign=top;imageAspect=0;image=data:image/svg+xml,PHN2ZyB4bWxucz0iaHR0cDovL3d3dy53My5vcmcvMjAwMC9zdmciIHZpZXdCb3g9IjAgMCAxOCAxOCI+PGRlZnM+PGxpbmVhckdyYWRpZW50IGlkPSJhIiB4MT0iNS41MSIgeTE9IjgwMi41IiB4Mj0iMTIuOTQiIHkyPSI4MTAuNTgiIGdyYWRpZW50VHJhbnNmb3JtPSJtYXRyaXgoMSAwIDAgMS41OSAwIC0xMjc4Ljc2KSIgZ3JhZGllbnRVbml0cz0idXNlclNwYWNlT25Vc2UiPjxzdG9wIG9mZnNldD0iMCIgc3RvcC1jb2xvcj0iIzAwNzhkNCIvPjxzdG9wIG9mZnNldD0iLjAyIiBzdG9wLWNvbG9yPSIjMGQ3ZWQ4Ii8+PHN0b3Agb2Zmc2V0PSIuMDgiIHN0b3AtY29sb3I9IiMyYjhhZTAiLz48c3RvcCBvZmZzZXQ9Ii4xNSIgc3RvcC1jb2xvcj0iIzQxOTRlNyIvPjxzdG9wIG9mZnNldD0iLjIyIiBzdG9wLWNvbG9yPSIjNTE5YmViIi8+PHN0b3Agb2Zmc2V0PSIuMjkiIHN0b3AtY29sb3I9IiM1YjlmZWUiLz48c3RvcCBvZmZzZXQ9Ii40IiBzdG9wLWNvbG9yPSIjNWVhMGVmIi8+PHN0b3Agb2Zmc2V0PSIuNTUiIHN0b3AtY29sb3I9IiM1YjlmZWUiLz48c3RvcCBvZmZzZXQ9Ii42OCIgc3RvcC1jb2xvcj0iIzUwOWFlYiIvPjxzdG9wIG9mZnNldD0iLjgiIHN0b3AtY29sb3I9IiMzZjkyZTYiLz48c3RvcCBvZmZzZXQ9Ii45MSIgc3RvcC1jb2xvcj0iIzI2ODhkZiIvPjxzdG9wIG9mZnNldD0iLjk5IiBzdG9wLWNvbG9yPSIjMTI3ZmQ5Ii8+PC9saW5lYXJHcmFkaWVudD48L2RlZnM+PGVsbGlwc2UgY3g9IjguOTYiIGN5PSIxMS44MiIgcng9IjcuNSIgcnk9IjMuMDgiIGZpbGw9IiM3NmJjMmQiLz48ZWxsaXBzZSBjeD0iOS4xNSIgY3k9IjExLjc5IiByeD0iMi40OSIgcnk9Ii42OCIgZmlsbD0iIzVlOTYyNCIvPjxlbGxpcHNlIGN4PSI4Ljk2IiBjeT0iNC45OSIgcng9IjcuNSIgcnk9IjMuMDgiIGZpbGw9InVybCgjYSkiLz48ZWxsaXBzZSBjeD0iOS4xNSIgY3k9IjQuOTUiIHJ4PSIyLjQ5IiByeT0iLjY4IiBmaWxsPSIjMDA1YmExIi8+PHBhdGggZD0iTTkgMTQuODRjNC4xNSAwIDcuNS0xLjM4IDcuNS0zLjA4djEuODJjLS4xNCAxLjY1LTMuNDQgMy03LjUgM1MxLjUgMTUuMiAxLjUgMTMuNXYtMS43NGMtLjA0IDEuNyAzLjMyIDMuMDggNy41IDMuMDh6IiBmaWxsPSIjNWU5NjI0Ii8+PHBhdGggZD0iTTkgOGM0LjE1IDAgNy41LTEuMzggNy41LTMuMDh2MS44MmMtLjE0IDEuNjUtMy40NCAzLTcuNSAzUzEuNSA4LjM2IDEuNSA2LjY2VjQuOTJDMS40NiA2LjYyIDQuODIgOCA5IDh6IiBmaWxsPSIjMDA3OGQ0Ii8+PC9zdmc+" vertex="1" parent="1">
          <mxGeometry x="-470.5399999999999" y="488.75" width="44.71" height="44.71" as="geometry" />
        </mxCell>
        <mxCell id="pv9ZLLiu9-7sLAFe4-xA-329" style="edgeStyle=orthogonalEdgeStyle;rounded=0;orthogonalLoop=1;jettySize=auto;html=1;entryX=0;entryY=0.5;entryDx=0;entryDy=0;" edge="1" parent="1" source="pv9ZLLiu9-7sLAFe4-xA-327" target="pv9ZLLiu9-7sLAFe4-xA-136">
          <mxGeometry relative="1" as="geometry">
            <mxPoint x="-745" y="571" as="targetPoint" />
            <Array as="points">
              <mxPoint x="-848" y="527" />
              <mxPoint x="-773" y="527" />
              <mxPoint x="-773" y="563" />
              <mxPoint x="-726" y="563" />
            </Array>
          </mxGeometry>
        </mxCell>
        <mxCell id="pv9ZLLiu9-7sLAFe4-xA-327" value="www.aplicaÃ§Ã£o.com" style="whiteSpace=wrap;html=1;shape=mxgraph.basic.cloud_rect" vertex="1" parent="1">
          <mxGeometry x="-910" y="470.99" width="132" height="41.12" as="geometry" />
        </mxCell>
        <mxCell id="pv9ZLLiu9-7sLAFe4-xA-334" style="edgeStyle=orthogonalEdgeStyle;rounded=0;orthogonalLoop=1;jettySize=auto;html=1;" edge="1" parent="1" source="pv9ZLLiu9-7sLAFe4-xA-328" target="pv9ZLLiu9-7sLAFe4-xA-168">
          <mxGeometry relative="1" as="geometry" />
        </mxCell>
        <mxCell id="pv9ZLLiu9-7sLAFe4-xA-328" value="my.monioramento;com" style="whiteSpace=wrap;html=1;shape=mxgraph.basic.cloud_rect" vertex="1" parent="1">
          <mxGeometry x="-913" y="693.88" width="142" height="41.12" as="geometry" />
        </mxCell>
        <mxCell id="pv9ZLLiu9-7sLAFe4-xA-332" style="edgeStyle=orthogonalEdgeStyle;rounded=0;orthogonalLoop=1;jettySize=auto;html=1;entryX=0.5;entryY=1;entryDx=0;entryDy=0;" edge="1" parent="1" source="pv9ZLLiu9-7sLAFe4-xA-330" target="pv9ZLLiu9-7sLAFe4-xA-168">
          <mxGeometry relative="1" as="geometry" />
        </mxCell>
        <mxCell id="pv9ZLLiu9-7sLAFe4-xA-330" value="my.ssologin.com" style="whiteSpace=wrap;html=1;shape=mxgraph.basic.cloud_rect" vertex="1" parent="1">
          <mxGeometry x="-913" y="743" width="142" height="41.12" as="geometry" />
        </mxCell>
        <mxCell id="pv9ZLLiu9-7sLAFe4-xA-333" style="edgeStyle=orthogonalEdgeStyle;rounded=0;orthogonalLoop=1;jettySize=auto;html=1;exitX=0.25;exitY=1;exitDx=0;exitDy=0;entryX=0.244;entryY=0.871;entryDx=0;entryDy=0;entryPerimeter=0;" edge="1" parent="1" source="pv9ZLLiu9-7sLAFe4-xA-141" target="pv9ZLLiu9-7sLAFe4-xA-141">
          <mxGeometry relative="1" as="geometry" />
        </mxCell>
        <mxCell id="pv9ZLLiu9-7sLAFe4-xA-336" value="" style="shape=image;imageAspect=0;aspect=fixed;verticalLabelPosition=bottom;verticalAlign=top;image=data:image/jpeg,/9j/4AAQSkZJRgABAQAAAQABAAD/4gKgSUNDX1BST0ZJTEUAAQEAAAKQbGNtcwQwAABtbnRyUkdCIFhZWiAH4gABABYACgA7ACphY3NwQVBQTAAAAAAAAAAAAAAAAAAAAAAAAAAAAAAAAAAA9tYAAQAAAADTLWxjbXMAAAAAAAAAAAAAAAAAAAAAAAAAAAAAAAAAAAAAAAAAAAAAAAAAAAAAAAAAAAAAAAtkZXNjAAABCAAAADhjcHJ0AAABQAAAAE53dHB0AAABkAAAABRjaGFkAAABpAAAACxyWFlaAAAB0AAAABRiWFlaAAAB5AAAABRnWFlaAAAB+AAAABRyVFJDAAACDAAAACBnVFJDAAACLAAAACBiVFJDAAACTAAAACBjaHJtAAACbAAAACRtbHVjAAAAAAAAAAEAAAAMZW5VUwAAABwAAAAcAHMAUgBHAEIAIABiAHUAaQBsAHQALQBpAG4AAG1sdWMAAAAAAAAAAQAAAAxlblVTAAAAMgAAABwATgBvACAAYwBvAHAAeQByAGkAZwBoAHQALAAgAHUAcwBlACAAZgByAGUAZQBsAHkAAAAAWFlaIAAAAAAAAPbWAAEAAAAA0y1zZjMyAAAAAAABDEoAAAXj///zKgAAB5sAAP2H///7ov///aMAAAPYAADAlFhZWiAAAAAAAABvlAAAOO4AAAOQWFlaIAAAAAAAACSdAAAPgwAAtr5YWVogAAAAAAAAYqUAALeQAAAY3nBhcmEAAAAAAAMAAAACZmYAAPKnAAANWQAAE9AAAApbcGFyYQAAAAAAAwAAAAJmZgAA8qcAAA1ZAAAT0AAACltwYXJhAAAAAAADAAAAAmZmAADypwAADVkAABPQAAAKW2Nocm0AAAAAAAMAAAAAo9cAAFR7AABMzQAAmZoAACZmAAAPXP/bAEMABQMEBAQDBQQEBAUFBQYHDAgHBwcHDwsLCQwRDxISEQ8RERMWHBcTFBoVEREYIRgaHR0fHx8TFyIkIh4kHB4fHv/bAEMBBQUFBwYHDggIDh4UERQeHh4eHh4eHh4eHh4eHh4eHh4eHh4eHh4eHh4eHh4eHh4eHh4eHh4eHh4eHh4eHh4eHv/CABEIAZABkAMBIgACEQEDEQH/xAAbAAEAAgMBAQAAAAAAAAAAAAAABgcDBAUCAf/EABoBAQADAQEBAAAAAAAAAAAAAAAEBQYDAgH/2gAMAwEAAhADEAAAAblAAAAAAAAAAAAAAAAAAAAAAAAAAAAAAAAAAAAAAAAAAAAAAAAAAAAAAAAAAAANTz620d0Y0uYIQ8dJuiG/05SBrbMmIH34AAAAAAAAAAAAAAAAANTz62+FGeTU3fT5hWXAeOgADr8h752B2am7VpTT9r7FtSB9+AAAAAAAAAAAAAADn+fXiAecWe1QRJpIZZOrYL1JksKuLpQ68YZyrIcu1TLKiNda8MQrHasCtdiZAtFqbegy4evIAAAAAAAAAAAAGOtu5F6PRj1W2vqdZure5wLGqAAAAj8ItfiVlvAX35SaHo2PU8wtKeUi6z4AAAAAAAAAAADBni/HvEfBmNimMasyyqPou88AAAAABEIra1YUWjwZsKvtbW9x+QajGh14gAAAAAAAAAAK8sOqqu4xil0MwlPP6Gmx4SIwAAAAACHzDkRpdejNa7vTusrNvM2FlVAAAAAAAAAAD4YqsncEo9EFbbWx9qn1cUVqK26fXhNnD7U2v9DpzAAAAa+xj8+qqGT2/wBtipp/aU3afPt1nwAAAAAAAADDBo0vvxLTUejCNLAAAbWq++Z73Kns+9zmyLCrAAAau1xeXaADLbMDcl0FSYdsoBObzO5hJiAAAAAANfLXUSb40TPakSD154Xfl+xb0fC6G6m12vi3XvnxOLNUeVVeK0Y9W20Rs/T6k6uCfWgAAIVLqxrLfGKTRbevOunaU1Xu/wACvtG/oPPq0diuLE0OW9iXCAAAAGh59RuM/fmY2Alv35lk5o8oHXiAAAAAAAAI1y7cyPGa1ra1Zv15SH6aXIovKHLtUyVxTOaxJ4x9+LYaO9p8eHryAAAg81q2st8YpNF0rG43a0OVCbAAAAAAAAAHA59dKJGb1g3efXbsHDm0eUCTEA+VvZPDhWECGe1Mjm1V2leZz0LKpAAA5NeTOGUGmbGv3Is2ejU4wAAAAAfD6j+WPJ7YkRgEfkDn1qZNcdFo4/P83u2pAlwgAHz6Ksw9viZXZrEruazIMkF9mgAAIjFJXFM5q0oi8o+fZiNJkwAAAAEWlMJhz44M7qp924rKtLkQkxAAAAAAAIZGZNGc3rEtiUs9eZaNFlQAAIvDrAr+g07v8DbjS7OGoxoAAAACIS+PRZkHGb1smmdc2NfZkLCsAAAAAAAgnB2tXLbJM4ZYMqH2Bf5kAADFVtrwGruOIKXQ2N04BP8AR5MJcIAAABq7Tz6qZ1OXltms2spDLgzgaDMAAAAAAOX1K/iTeMM5rPVpweeXWeC0pwAAHJ6zx7qZ3OHmNinMG99OVrON2dHlA98wAAAOFA7Erui0gV1rP+1VdgXub6gsaoAAAAcXn014R685zVjveOsm6pp8cHvwAAABgra0OfCsK2Z8Gf0/2XRB142x9rKS3NDKGjvTa4PXk0+LwkSWNRrRrLj34Ku4Mvz78x+/B9mklqbes6ey0Z7VnT7g7xxo+fW95jEag2MjiXxT3wz8u3uyNff0GYCbXgAAAAAaMCsvxDn1SlUYo9F4HGQ9eT5nxeX34Hz0PT552+3LrGq03RXFDWOpakRp76MvXmutQffeTA++fXk+fQfT3KO0fhz3a93mcCZBAAAAAAAAYM759i3EsRCsKp8WxrxZlXrMyefdY9GxfvbhFJFsptcHeOABrR2VuEiueda/yFY1OtDHx71n7s3Z9eK77koSoeDOTa8PvwAAAAAAAAAAAAAAAAAAAAAAAAAAAAAAAAAAAAAAAAAAAAAAAAAAAAAAAAAAAAAAAAAAAAAAAAAAAAAAAAAAAAAAAAAAAAAAAAAAAAAAAD//xAAtEAACAgEDAwMDAwUBAAAAAAACAwEEBQAQMBMgQAYREhQhIxUzUCIkMTKANP/aAAgBAQABBQL/AIPdZQnTMsiNFmD1+r2Nfq9jQ5gtLy1ctJsJd/E2smlWrF+y7hr5CynVTIof/C2bCq4Xb7bHLSyDUaQ5b1/wN+4FUHtNzOxNC0zQYdmow4anDho8O2NOpWldtZ7K7KVoLSvPvWhqpawms3p4tjdV6yER3WaaH6uY1qeyu40NqWAsp81pitdx5WX7LA2Hj6AV44shjhdohkS2x9mazxmCHzM7Z9y2EZIsdTGqvkylKLAT9t8FZ9x8uwyEoMpM9sJV9h5s3V9p2QyVOWUGHlZ9vsvakn6izEREczAFgWFyl22Cb86vlZdnzvbYBX9HgZ9Xse2DZ8bnlNL5t2xwdOl4GYD50NqRfC35L59k7jHsPgWo+VbYZ9p8iZ9ouZCtCt/kWoYyNBdtBpWXeOkZOszQzBRxt/b3rZGsyI+8eLcyalasWXPnhrvagsfkAscdsvjV7K9l1eaeTU3w3NBK7+QZY5YmYmqzq1+HNH8KPdQyDK+ksBq+ew4EKuWWWWbgBGSMS49KxdUdDUrDroJ0VSsWmYuqWn4lo6Ys1loRkirL6SOHPN+T9q9dr9GJAW9K0dZldwPVymQgF+0Vp29HGm7SEqQPfYSt4Fhw96dFNbisNFKWHLGbYVXTpvQp43saaeyhaKq4CEw5M3a+Z74zHwHjZm31WbVEy+xEREbZPHfLswlr4nx33/T1p+87Yan42WvdON8LW6auzM0/beJmJov+orcWcd87G2Or/U2Y+0eJkcn2Yup9S7tmImMhX+ms7YJ3wfwmUADCk2bYdPSqeJnGyurvTrHZahQJV3ZlHVq7KOVtGYIeDLn8KG1ZfVfH28XOKk621Koy0ddK0K75j3h4dJ22JP50OD1AX4NsIPyvcszEQ7K1wKtk67S7rGJWZJw4QQCIDw5sPje2wBf2/B6h/wA7en4/Ly550xG2GdLavg+oI/Pt6e4fUP8Att6e/c5c/wD+rb09/r4PqD97b09w+oB/Ftgi9rnL6hj+rb0+X5vBzhe93b0/H4eDMh8qG1NnStcueD3qbYxnSu+DbZ1bO2HD4UOBwdRRRIltjHdanyXF9atvSd163PlHdGnsMSRKCFr4cynp29sRZ6Fjlyiejc2wlnpu58tZ69nbCp6lviytfr1d8Rc6wcmZr9Wtvi7f1CuXMXOkG+Lr/T1ePL1ei/YCICx14bI8eQuBWDdRmo6FwLQceSvDXEiki2w9XrO5LCgeqyk67tomYmjlInQzBR3z9ovZQQ0ZEZdgEQFRygnqPvwFMDF7KamZmdqqDsOQoUq5b1ULSnqNLN69l1eUZcJ0q3WZ2MtV16fl1xqzbfY7FAbTYBLPetbfX0jLrnS7VdnY23WXp+XGNWLLrE7oUbmUqwVVc9ysuyu3VbWPtgiHXWd7ERF3Vq7bB0qi6oXqi7QWa7a59sEQ66zvaSme6pVbZOpWXWX4JgJjcxUxoxIC4RGSmnijLSlgoNmrBoXMUY6IZGeEAIyp4qdAIgPiOSpwvxAzpuPtr0QkM7iJFKqFpmkYiNIQlEdz0JfD8RGm0LS9EMjO4iRaVj7bNIxARpKVJHyZ++pronX0lXUV0RqIiOWYidTXROvpKuoQiNf4/wCn/wD/xAAxEQABAwIEBQIFBAMBAAAAAAACAQMEAAUQERITICEwMUEyURU0QlJhIkCR8BQjUGD/2gAIAQMBAT8B/wC4IqS5ClDb5BfTXwqRR2+QP00QqK5L+zEVJckqNaU7vfxQNi2mQplwONA4mRJnUm0/Uz/FKKiuS/sAAjLSNQ4Yxx/OEi5tNck5rR3V8u3KviEn7qbuzw+rnUe5NPcl5LhNhDITNPVRCorkvXtcXQG4XdcJ1wV1dDfbigXBQXbc7YXWLqHdHx1orO86gV2q6ydA7Q+eha5O4G2XdKVEVMlp9racUOrZwzcIsJjm48RdCC5tviuF3DJ1C9+raWiASUkwWzL99HaXk7c6cZca9aZcQLkSYXZkzQVFO3TiwzkLy7VHhNMdk58JChJktXKGLCoQdl4Y4a3RHGRCaf7pzqVDOOvPt0IURZBfigBATSNOvAyOo1p+7mXJtMqOS6fclpHDTzTdwfb+rOmbs0Sf7OS1cJqSFQR7Jw2ljUe4vjA7roeUVTlTTwPDqBaMBMdJVNiLHL8cQApkgpUdlGQQEqRIFgNRU++b5ai6TDBPHpGmWRZBAGpkjYaUvODD5sFqGo74vhrGpDKPNqC0YKBKK8NoZ1OKa+MLjI3ncvCdJlpXXEBPNR44MDpGjNATUVTJSyDz8Y26RtO5L2XC7s6XENPPDagyYz96kHttEXQWG+g6tOLDqtOIaeKS5x9OedS5pyF/HCwe42JVdgzYz9uG3fLD/fNXD5YuO2ihSEzwnAgSCROjb/lxq5fLF/fPDaizj5e1SQ3GiHjt5aZA4XYNL+fv0Y4bbQjV1LJjL34bQ7kat++E+Psur7LxCSiuaU2aOChJ5q5x91rNO6dCBH3nk9kwu7uZo37cLbitmhJ4pl0XQQxqVGSQGladaJotJcVpU9rIu3jC4QVaXcDtxNNE6WkaixhjhpSnnRaBTKnHFcJSXzxQJmwWRelaRUVM0qRGbfTI6ftboenmlEBD6kwbivO+kajWpB/U7zw1JnlXepNqQv1NcqcivNeocBAj9KUxa3T9fJKYjNsJkFKqCma1Pmf5BZD6U6ESecfl3SmJLb6ZguKCiYyrmDf6W+a1vua9zPnUW5g5yc5LioouL8lthMzWpc45HLsnSRVFc0pq6Ph350N5TyNfGA+2jvBr6Rp6U696l4GZbrPpWgvBp6hr4wH20V5TwNO3R8+3KlVVXNf/AFX/xAAuEQACAQIEBQIGAwEBAAAAAAABAgMABAUREiEQEyAwMTJBFSIzUVJhFEBCUGD/2gAIAQIBAT8B/wC4WC7mmvYF96+IQ0t7C3+qBB3H9NmCjM1PiXtHTuznNj0JIyHNTUGI+0lAgjMf0HYINRq5umnP64Q2Ekm52FJh0Q871/Cg/Gnw6I+NqmsZI9xuOFrdmE5HxSsGGY7+IXGttA8DhaWQj+Z/PVeWQb5088MPuNJ5Z71xJyoy3DDoNR5h9uxiEGhtY96ByOYqGTmIG7uJtkgXhbJoiA7F2muE8MNbOMju4lIrMMjw+KD8aXEoj52pJUk9J6m8cMNkVSwY9u4ukgG/mprqSbz46QSpzFWN0ZRpbz0zNpjJ4w3UkPjxVvcpMNvPYurkQL+6ZixzNRxNKclqLDVHr3pYI18LXLU+1PZQv7VLh0in5N6srUw7t56cSlyTR9+C4driDA71JE0ZyalYocxVrcidf31MwUajU0plfUaghaZ9IqKFYl0r2pZViXU1SymVtRq1h50mXCaFZV0tU0LQtpNQymJ9QpWDDMdOJSZIE+/Cxh5cefue1LII0LGpp3mbNqVSxyFWtuIEy9+N9DzI8/ccMNk1IU+3TiLZzZVCmuQL2BdQk5auMsfMQqa/gTZ5ZVbWiwD99MyaHK1hzZS5dN99dqsvrr137EQnLhaMWhUns3n12qx+uvTiK5TZ1A+iQHrvV1QNww584svt2Z31yFqw5c5s+nE481D8LObmx/sdTDUMjToUYqasJuXJkffsXk3Kj/Z4YZHkpf79MiB1KmpIzGxU1bzmF86jkWRdS9WI6OZt54WV3zBobz1SSLGupquJzM+o1FGZGCikQIoUdV5a84ZjzRBByNQzvCc1qLEI39W1KwbweD3EUfqNT4iW2j4ZHLPhBiJXaSkuIpPSeDMq+TUuIRp6d6mneY5tQBJyFWdryVzPnsXNms2/vUsDxH5hx1E8bewZ932FclNGjLarjD2TdNxx1HjFA8p+UVbWiw7+/aIB2NSYfE3jajhZ9mr4W/5UuGL/AKNRW8cXpHRLbxy+oU2Fr/k18Lf8qGFn3ao8PiXzvQAGw/8AVf/EADkQAAECAgYGCAUFAQEBAAAAAAECAwAREBIhMDFRICJAQWFxBBMjMkJSgaEzYnKRkhRQgrHBgNHx/9oACAEBAAY/Av8Ag/tHUjhGolavaNVlI5mO419jHca+xjWYB5GNcLRHZuJV+01W+0Vwwi1dUZJsue9XTkqJHs15H9lrOHkM4l3G/KL0JXrt5ZRXbVMfsWazgmK7ipnRsaIHzWRrvJHITi15X2ix9X2jUdSrnZGs0ZZi3Rrtnnxismw7xl+wVjao90QVrM1HQrPdmnLfHZoAOe/T10W+YYxWR2iPfQDjZkYDifUZbcVrMgILivQZUhCBNRiuuSnf6uy4zquZbjBSoSIpreA94QFAzB20dHTgLVUhKRMmLbXDib2ugdqPeJGk9HUcLU7Yt0+EQVqxJmaf1Kxae7f/AKlAx79KXE4pMJWnAie1oZG+00pb3b+USGAvyhQmCJQpo+E0ls4oPtta/l1aVvHfqjYUPDfYaannG1qX5jOlofLPYV/LbS0r5htSzkk6AGWwupzQaQdpmYW2lVdREtXQ7xixxQ9YsfX62x2iEr9okols8YmkgjheKnloAFVQ/NExs1VrtFe0dosnhuuptLIjq16jnsbt1XyHR7NdmW6KrvZq9tjK3FSAiqnUbyzvZjGG3DipN0oeYy06q9dvLKAttUwdgLizYIrLw3DLQqoSVHIRN1QbH3Ma1ZfMxYw39o+C3+MWsN/jGqFI5GJtLC+GBiq4kpPGgJSJk4QhvyiV0loeAW0q6pNarjFVaSk5HQrJtTvTnAcbMxfFajIDGK2CB3RoV3ZoR7mKrSAm4qOJmI1XyBxTFZOsvzG6U4rBIhS1YqM6axxXbFV1AVBW1ro9xoT8B7wgKSZg4Xv6dB1U97noB58a25OWzdSg6iceJpS2N+MADAUl7o4t3pz0P06zYe7zvFL34J5xM0jpLo+gf7sxYaOv4jlodcoay8OWiektD6x/tMxjCXN+Cud2Ghgj+6Qk9wWqiQ2UtdGPNf8A5oTUOzTjx4aUjaDBR4TamksnBeHO6KjgBOFLOKjOkKPeXbsoQnxn20KicN5ygNoEgNOuO83b6UpcGKTOAoYG5X81lKG/MdmCx4D7U6tid6o6tsWf3cSOELb8plS3wsuW05qnTPypJvpkyESQFL4xVM2zx06zS+r4SmIm66VDICUBKAABuuifMAaVpyVcsjnS6eF8hgb7TTJWKDLYmz8tL/p/tyz60ujgL5H0UvDiNib+ml/+P+3LSsjKkjzJvmVcxS4jNM9il5UgUuKzVK5UfKQaW3MjbfBXlVS2dxs2JxzM2Up+a25U2fEJQUnEUpPiTqm9cbzFmghzfv57ArzK1RSEjE2QlAwSJXRUMHLaaqjqLsN8oeFWsKepUdVeHPYJJOoiwU1zg3bdmXfTaNDqXD2icOIvesSNZu300Kqj2iceN91DZ11Y8BoAEa6rVXnWJGov2NIUkyIwiqqx0bs7yXecOCdALQZKEeVwYpvKiJF0+0FSjMmnrFDUR7m9La8DBbX/APaZgyMBHSfziaSCLiZip0fWV5t0FSjMnfohSCQRvgI6Rqq826LLiaiAIKOjfnEyZmkNo9TlAbRgL6qbFDumC24JEaHZrkMt0SebKeKY1Xkeploa7yPvEmUFRzNkdouzyjDQCECajBQtMlDQ7NdnlOESeQUcRbGo8g+uhrPJ9LYky2TxVE3Fk8N2gENiZiqLVHvHPYKq8dxyiSxZuVnpWEiJdav8otUTpVW08zlFlqziqLbFjBUVXE8juOlYoiJdav8AKLSTpSQLN6soqoFu857EUrSFA7jFboxn8piqtJScjdSSCTwit0jUHlGMVG0hIpqOJChFbo+uPKcYkoEHjdVUJKjwit0k/wARASgAAbhssnUBUTZclwVHw6w+W2JKSRz0JJBPKPhFP1WRN5z0TEmmwnTk62FRNlz0VFrRP02xJQI56EkpKuQj4dX6rIm84VcExJtATtVsWstn+MfAb+0WMNj+MWCV7aJxaw2f4x8Bv8YsZbH8f+oP/8QAKxABAAEBBQcEAwEBAAAAAAAAAREAECExQVEgMGFxgZGhQLHh8MHR8VCA/9oACAEBAAE/If8Ag+WkTVL2Ku/isQp3vjTPd9jjRPex9M6P7U1dSnEk8ViWaDf2/wAhuJam7j1XOtTIr8JuBhkxqMO+fONQjyZtzyf8W6f0MeSk2fEMeeu9dlaxv5GiAs7U5/4WUP7p4Uuc/jYBWAlqHdRUO8mfpUO9cjUK4PGdeI4/tUorHBeNkzFcmQ0awIPPX+BdSuWq/qkntlW0vYKCGeGv/quasb112w2M5Whbd2hc6bEEA7Jo1dA5ajT10KxytXMhhpLXZ4QKGcRZcv73ZQDEfphpsDoRytHXm41jWhBAkTM9bJvyrkWtgVAGdSGA+XwN6gMDdw6UFIImI24k3a5nrMMGTm5FPJM4tPTGXI1354SUA11tzdhzpeJMPVzkx9Iw+8LVDxMvTNRMoCA394eYVi2wc+NsoslzYfn1eJ7oDp8zbGNeuhn94ehjdh6xh94W42uU6l/79XKWb3NvFWTrf+fQ4IvgfvKbb9oiblPquJ48WgrBi0BOAj0PBAeLYNxGfUgiAGK0yFO4kvNdj+zXj6dY8Of8qiALherpiG7vQ1qwVI7yGmnPbYWPHGU70gEEcE9NKGa+X91PjMjcOm64uiZPSlQTJPZ3fCz2NmeOZneulQpGvN/rl6MImepFn7rm3pJEDImVJhgLz3V6t5H3/G2gTd1yfqhyZ49BF2wDNdCp2QcPAbBZFyJaKNBqMFPyDxXvyL71/EV7UgVja/fGp4Xq/hTctyFjdFQDOsz4Vz3UurpOZ+LR3cIiYpYA4hDsSck5VJIJ3HR3xqhympgm4aJ+9g4deB9IqEgzjF5u4h7ytTlSp6EkaSgeonLdZg458KaOZi2GK/7cvvGoiDJzOTRak8dgjGW51TXnRhhyje5pDr0dNgwNxt5PH0wX2W8fS63MWXtDOibgIC0BA4z8jjsZtOeHR13h57uOKkoireraMcwPTCvTXD489ibjH0fLZHCGRaJIgZEyo+UTTdp1Xd/N9LXAOKcNKAAQFwekUCVgoI4B9Hmm9ltbE31qBBBhsszAQjnShTjHC2Vl3PI+N1jDpdKx0wutseM3yy+8fSrFDE+78bBcYPLFQKl347ZKGR933hbhKgU7MhJubm4wPX4m3gejyoAAIDD0p/yzPN9LY4I2+wPmjUAYua1dwTlKISnUzbUscTPp8bmD+MHzbGfcR+d8yEBKuVXIvkuKBT3DK9dpBISSmqpZ+wqBBcU61htWG6+nbd+LZuPe58bl8sP2t5VJ5+N8/MB55kWz/m/dTL0Qa5j5tbAy3MWTKPxtXPNvje/V7asZh+T0Tu+L33kTal7j4tn3NPZ33Nh7FsOmux+fRY//AKn5tj0x2HzubqL/AMT+bZ8YOywfG+gsvOeT9LZ1YSfW70Wlj9GVsxcU+fxuQw4vdQgwkJbPbPcTe6qP1ZebRhkxop28R73oJ6MeV+LTZlYHGsA4jpuotXUeef3jaFyumOTvoaI7C/NslCfo+X69BjU6y5tsUF13ZfeG7uNnq+psRNwLz9p3uNDvM1pcyUeFvoa74FuNfPtOxcFfwt5nSpPIWoWVKMqKuEv9w3ie4D5nhSyrapdkiVHLsxeThvESYIe9psDpVztznc+wb0T5Ds60Y15g5DW0m4GRHCjLk5DB50NYMEZHcIRADFaCYc7K5a0hd0qz2XatIKCg9456UgChHBNwtIr1WAowvTgr8UzcjKudpIY8ga0X8H3477UCNF/Ve5xXHYnj5jvXSoxRzDtQuO0kdmhEkZLG4lrDw6EnsVN8jlTF50mwUuyAKfljB2GLzrKQabkqxsNGD2aLySxQJWCs3+il4qeU8g7VFUZC4dNifr+OLXvnC9BDiBh40vlngYbTxGMVpHpKvIQztXz2phzVGNci9+KhGmRefFXT2h4NrxlMVpHpKvN4ztXaBxMKX+yx8fRMboQVLRGtf0aWAOIQ7oO1YAlaRG7o/VHAHIteIOTSK3ZH7pOVYghN0XYcATSkiGt7tYbVg9LEL8S861PK6471OX9Z+zGp8vQRsSAugmsGJrQKJfD/AC1xSJzeu3wyJzOtKmHw/wAlYUutEkLoI2H5VpJWeTq/6qM6IjvUA/wMfVAEATjTc8+NfytNy1wNAwA0N6DADRpuWuJr+UrxvGgBAAf9P//aAAwDAQACAAMAAAAQ888888888888888888888888888888888888888888888888888888888888661x1888888888888888888+zhCCCiW98888888888888889AGS+utHCQ288888888888888YH088888ZDh8888888888888tBa8888888HQW888888888888+C+8888888tC3888888888888qTV7988888qCx88888888884gCCCCDU8888+CCj88888888vhCsufeH/8APPPKgrgg9vPPPPOY0fPPPPPPPPPOI1XbQA/fPPPOgv8AzzzzzzzzyhEWXzxwJXzzzwoRzzzzzzz/AM84Dd8888jR8888CG888888sCc88888888JV8888gU8888889C388888888LB8888JCe88888uBn8888888pCm88889JB888888tS2888886rA/88888dDic5825DHBE+81+TH08888888oBCTyCDHPLDCSjCLf888888888s9PA8v888f8AL88888888888888888888888888888888888888888888888888888888888888888888888888888888888888888888888888888888888//EACsRAQAAAwUIAwEBAQEAAAAAAAEAETEhQVFhcRAggZGxwdHhMKHw8UBQYP/aAAgBAwEBPxD/ALk3BcrYt8k1Q9xkHOB5s2knpbEiKOf+M+c1uggNbg7vjnEqYZbkhIZxKFOLs+ecMBkn+A0E1ibqur2MuuxB4dTn4nDlIyJ9ZxbT6TxCVA0l08QkaU04P82USCjjk/rIfnJK/OEqwMj30hQJsPGljx9dd4Us7jhrl002DIraszHh00+bAZbdC1gASIYEtq0w4/q/A6Jg6eqcodBMYZ65+rvr5TwElz/mxc8kaFh8D3IsnjZsEy59nqXyVhOBNJTsx2Jt6PcHzZxSfuz7hyS6t5EGJsZM2pytw+O40Vf1WAJzsTX1w3UxzG5iwCuMHxuoBenXaAsrEV98YvNVEp6fgt3YavYz6QFCQXRZwHXSEmSYtr4PuEpu4vSFJjOLDVkjBt9/cd5pPq39WAh1L3dZSssGr4Ouy0sLKZWyuTbpFsAfqwiCYxYu10ezn13ixtWRFzz9t7DPhGLhCl/BkfEGO3oYsUiD7zgr4WGvqsLO1gy+pc5MD+IYOEXuNMm5gIZIyd0LhLNX112Kobk7v674r5R/Yk51b3WEqSCsXTCh31drm1y63OwKaNup6lulni9u0SRqDzu3wnE0HL9dXbeLP7C5qnhJn4+4lqhod3PpuDKJq3g+YDOjx33ZbHPqiexy6m/LlSbxlsIaROfMHv8AD9Pux03RuybETv3hRKoy1u3ze32cxNi4EH1Z4+F1agc74N8QO/bdn1cmanrpsQwXh44bxOsM+UUyxOEk97wv88PgaYLx7HF77DKuTdX113a2anFBB/S4Q/sEo4PjGEpyTemYVWuvCfXYxC3XL10pvDzmsEbRvcX9SKLB+lFbtT3n1oycfMGkmMSXaN5C68NXl4nDMkHMlsctNaHNsh8SbApxx/VgAJEXvbWV8oQEmH1JsGnDD9SHLQzqcyzY5JFyJwuPFV5eYlO1b2HCSCF0IzcfHwMT6OGn6UWkGV5w2INjCUwNigTYMdUuPPDnF9c/67KkGGuXPjjzgRJmxKaEAFhssIMr3hDkujjr8RhZJhAMkHOvMl9zjwN9Q3a5kUyNWfiLGdMKHI3LCcMKnJgyydGXmC/XMjyN9QDJByrze0odJNcf/Vf/xAArEQEAAAIHCQEBAQEBAAAAAAABABEQITFBUXHRIDBhgZGhscHh8PFAUGD/2gAIAQIBAT8Q/wC4VNkcYqRnymxx3pFREmczzBsyZ/jQLIIZU+b6NekTQF47EzAeET0PmezTpBpJj/gWrIIwibD28aCOqW9NYHt82kfousD2+afnWD3kGlFtx2nsgA8x36TfE4vyAVkQQFPDh92hUZXjH75oeb1NmeHPznvsVwqzuhVZsC41WM/m4MxqtZ/dYQrQgDbz+997xyZ9P7QfC582vcGW8J9K6J63Pn870FJlOygCrz+RVJe7xpBEydoixwoHATlKfPd3gXD9ZDleWAs+7M8MmG1ivxNk8LGlySngbPkXKXj9buKsVqw9w/eaxKvNgubmwKjXxB9UcoRSR0giuV4VfO0XYOQwK2zsbIkbbWR98UVQDJ12cMqolfkwdeSRXioWnvad2JXD6/7GEAOa4EFg+57p2n3hDW3YULpW5fYCUSMfMoY/3IPXXcwg3ZNezLjNkfaBNF4+jdXSUThZFxB85rGIC1/YUi4Lw9lE9P4fuzlwNfcTivTcSDE/19lJXyhOVUxmS17ROFqtdNi2OByxn4ddnwvBElZx8O3iMkUOxXLwy3PeeiPO8OzM8QPr1BL2CbcgF1fRnQXHnvXuQCsVjIAvr3syUuqcn93oEVwHXntCtk1RbADKDuapzu057g1lgGvKibnAZH3xs2DLFt2RL2y8xIAJMdoyV2K/VAgtXv8AdpEkgh9YXGBFr2xZIm0Vz+/DSEQSSJ5cy5g6VZ266wNMnKgyp8vQg5KRjfywhVZsXTVjAozIOCmY388YMqfD0aBJkZwdKu7ddImlyLiDQTWAvnbw4a7guSrHrErSuN3WgUshqC0ArIh4yy90i5XB+8w05ZeawiMmgCoYVbaJe513WB5q8em6NkTIrMK4aRrI+wXg7we1ciWsVtW42vXYratxsesNtTMnpDcDvGkj7FZhXHSBZEj/ANV//8QAKxABAAEBBgYDAAIDAQAAAAAAAREhADFBUWFxEDCBkaGxIEDB0fBQ4fGA/9oACAEBAAE/EP8AwfFL+h7I+LLq8ugTqs+LPMJhN6haShmAo2k2cAbXAzhfwRtDYnIl1U+LBEsJpTuqnb/EIRAAlXCz+E0QNrj6TuWSzYmDJb3q8hARAyI1LPLEpWp0uO8aWSl5AaTsvWH/AArkspvTZD9uLF93BcGv0u05r4HpcrW9NNrPnNBcuQwf8EPkHpP/AA9sMUxLitwwAwNPgSQjABKtgVljA7NexYMncT3jYGpswfrZ+6Aj2WMWGwce1htWajFneTrFkRhIfgmKkLXKGVijkMd/2Bwf8AwGRldZ0Yu2dvyiAQyDLiEAVWAMbNPlS4dn2rpYwDCEOoVehT5piX/pF/WbLq1SxDriNTx8GWrqdUGI2SmTVsuOvxxPvB8X02Rq3WcNVqZBuP11Xi63YNV/g1sKt6mTpFx7tuXXD8FF/pW5xzs3eQ8KMHjO9EJ2BmXnUxsEIz0iEifdS5WQb2vQK7plxL+o6VNxaKBil/xHl6RzKvZgpFj1yel1y0GQEImDxSRCWcZ+BZN3L7kOC0HQ6ih1snNpGKsvG4SETTd7cab8+iuQCgruu51jN4tjBCZMTZJOtp2hHRJPtpEi5mwOqrxSTEIYFV2oapYRZArgCA55GFs0J7tXdZOIhedRD14pNEPqXyh0PtsYltmFfLiC/TuQh7lPogggRzcW6KcSIrlegex3faUCVgs02ledR/eJDkIb1f6IGgX08MPlxJTQS1AfC/aU2ZomieJMpSA1tcokbBH0RcBKlq+KSiEIYuZ+yWNpRAGa2PSnIBQlUEVwX4f9Tbxtz02SGN/rrsgD72T9STxZcR8Jm7Kd4sKQ5EBonMZcKYRiS+BvOECR7julhwtKJE0fqqAqgF62dKsiWrueneyecZR0Ap1v5VWHZlnfVGyEYUHyLnR88skmFpvOPPxOyNPcBeyHWzTRoKp09D3sIkjJ9K+DMr1wAxdLJPdYtHWert+aB9SEKKiWIoIDKUV8zyhIhn5fLwjr812u0mnm32ptYUXUwHJMHR+hGKUBsgxW17pR3+w5uPwuO6LToWaIK/xBg79LCjjifsQ9tgwZFy73lb+//lgUmt6g9QGxqpMUTtKwoCwe1LLuWvkKMHczNeBa1lVTcWqIJQXIKveeUcnU1psdAd3jPzQAVZiJvaNNLO8mEA6PwLuSDND8cn8sGajR3QYJznBtuoCyyQVT1HVj2w+FRQEFPQbmr2sZxlCdVKvXkLL0lcuavG1cr3CLcT1ajzIoOZAoe9eUjQIhMSwGqwdbT9AXVZ7cXhham8ujsLYugyEI84WqcKEU9QvNTqF/wKIseENGHawLW3UjzUxUEN1ds9tuIKgCrcFlOqD5MoemG931SNQ6qXfao3nTjPeE4YdV28xY2pBrgCA4noMR6Zhw0Y4VvRGEh4tefK9bZg135gJS+mNx2q9LLhdQlVvXi6SsybyPXfL6wjkVS5kc3je7i9EgKVvzursHxjBGyKguA998+IH1IQoqJalchAwL+9HZOW050cxAXsQ78bsYNkcWa07uFhgGAEAFx9REACVWALVA1kfk/ppnZKIqsq48ZRIisMAb46blgAABABQ+LqQCSBIRsWSqbF4bjJ0nHi0JwRbgnzLscpToccgS+rL7O9al4jBMbxUwe1er6riW3MhI6qNp+CgGC5utXIx7tqcdjNYpxX5yHWUxcHtXi78JUMxaMY75iSclpCO8lfDiQSYVGCavQmwlgAC4Pqs2ZMyIXonRPGQyGF0DPR3i1+riVxCYvICUki5GiWlnmecQaPUrxRIrOtQ9OS0pRV1DiN4mB3Y50hwSUAL1cCymSoROitXtaTw4pzZQadY+SICEIkiWlUmWAdwhpWwFIT5hJe0b2Gq0FgDlAKQeE47tM09bgD9clWJSQ3f48TaKdWqnnHbtQ4DGxIvQ4y+1hvhGWpU6H0iYkLYX8vFk2hYav+nJBjxG4/z4iQK9gX+ecZiUj0/n4z4wYykq8ePpBXVGT+tOJvckpNi2w8YOqDmo+gecpgVtIV+8SdYgDOl9KUaUwZLPoOK1ePKHJOVIIdZeFxKLHlk/0POWfEFkCPniLZo+DDyj0+ioErBaG2Wlpp4BxcJC43geByacjtygk2YQ+7BGE4lFY1YKPUh682ByYppr4CyIwkPBARAyI1LCIMcMBTyrsn0CgcUGsir0k7xxjnLmkwFvAWEA/OUrgTKKYT3rxEqQItP95Do6c5pbOhJU6SO3EI8CS0uzspufQA1UWGn7KRsHGqrMqUnQ+3lmDVMZWB5DyHwLFVioY7McyufNW+CEFUu9KPRz4pBERkTCx0wQK1ug+nXc5xCKFFU9LwVy+GYgQqKU6CDeeYzQHQFLzYbzqYcTeuvpGNshByCf0TDbmY5Jl0PZ9u6UsCWYCA4/mZUzmaWgKAqVPs9McJ5ZtizQPkyPy9u8l5U4vFDnEqKXuoF70z5tM60l+ENRtXhcmaEaP+uJ6vQ5RiNkDLsHYl25TQvsA15GBmJfyBgtKIAzWyjXBCf1PG9pUXFlXxlquWEbLFdwkfueNrDUaUSJyDenDgZq3WSOSRKG1v3e2NlUCSlTerxq3lKGpX9q0tRkxqsVqvOp3nBK5TmsSymHdBgHEfhPFGe4Cp1K2JuIve5VO7YIoV3qA2JCS5GTghEACVcLFMKvJ5x8WFuJHcYvfFlxVJKN0x3Zfh+5lTORrZpmwep/Jr8BxUZap0w3IsfcBe4pRPNjCUXE8Y+LIBBEkTHgyEF6sBYRii/xSTYi4yP1IVe5aINs9kRTrf8ABc95yGKYBY4IAYa/gGB/v6F6u0Vb9Mz/ALapWMaW+Do19/JiX839LAQUcXHtNsGvP9vkZZFLkWa/L3CzwQnhAy0d7QxCRKaDno7WUsnN6DNY7XmPy81P6WUkWMXH3ZuX839vlNO6n/7OhYjQBFX1yMjD6RNiiQGzmObTNy/Z7tneTCAdHlNeOFEaBZZd6IO43eTta4fmflzdXjePzPyZOpZZd6oGw3eDvZrxwojUeVf4/RPa2OuicugXbHcsMFoiA+rk6HxAqdGzCfgHYFQ6NkUkYSWw/FtdFtefhOncSuxZsmt7hOjXsWcTeMA/toWrgBAk7yq9/nRACFI2hU72cTeEg/to2XUPll6Fe5bWxpXZ+Gu2UvFlRGcJDp/CyKqVQ6Sqp2tMsb77c3vX7S1qvBI2mTc2+yyzNu1YIN9WMmtwQc1y63hJbVgi31YBEp5/wWfl3MvosdMLgID/ANP/AP/Z;" vertex="1" parent="1">
          <mxGeometry x="-187.49" y="984" width="106" height="106" as="geometry" />
        </mxCell>
        <mxCell id="pv9ZLLiu9-7sLAFe4-xA-337" value="&lt;span style=&quot;font-size: 20px;&quot;&gt;Stage 4&lt;/span&gt;" style="rounded=1;whiteSpace=wrap;html=1;strokeWidth=2;fillWeight=4;hachureGap=8;hachureAngle=45;fillColor=#1ba1e2;sketch=1;" vertex="1" parent="1">
          <mxGeometry x="-418.94" y="936" width="163" height="35" as="geometry" />
        </mxCell>
        <mxCell id="pv9ZLLiu9-7sLAFe4-xA-338" value="" style="shape=image;imageAspect=0;aspect=fixed;verticalLabelPosition=bottom;verticalAlign=top;image=data:image/png,iVBORw0KGgoAAAANSUhEUgAAASoAAACpCAMAAACrt4DfAAABF1BMVEX///8JHDDb29vGxsY7O2NTU3ozMVLEmn7Yt6Df39/W1tYAFiwAASONkJb29/g1P00AESkAABUACSVWXmgAACB5gIkAHTQvLU+eo6iSmJ4AABsrKU3KyskAEyoqJ0xpcn03NlsAAADAwMQAABAzNmJNT3nLrZy3kXsWEkEkIUjt7e1qaXxLSnDiv6WpqLSenap4d4k7OVlwXGOCcXVpXGmUd25ZWG+HhpW1tbqxl4yXgn9iUl9JSGI+PWDBppmggXZDR3UpL198ZWZETVohMkRja3UbGENzcoZFPVYTD0CxjHhgXnVTSl+5ubumjodiXn5vb42RgYqNc3JMQlhqaoqamq7MzNaFhZ+4uMYlJVZ8fJQVJTc7RlR4d5dNAAAMgklEQVR4nO2d+0PayhLHeciSEEghhi4SiBigNhFUtCrWByrQUvuwr9PTe+z//3fc3c3uJoGoOfe2tDH7/UVIDCUfZ2ZnZnfTVEpISEhISEhISEhISEhISEgo9lLl8OOOutzvEQNtb4cf/37H8eRKHeyEn9gBwqyC2nm1G37i6PkdDJMqBxiH4WfeGsBZ7nf5w3VkAzPU0dQBsI+W/W3+ZMkGBG9CjUd9DqAwK5+OTABefQs7U3gFhFn5VECkgB2aFXy30SlhVlyvMSozdKTbwaiEWTEho4IAGK/DzmHXhHAgzMoVMqrBvgFPw84dQrg3A7bIrYhkCM39YxO8CjuJzo2uEEaRsmMhH4PPziF4HlIwO2+AMdpE0er78r/XnycHQGO//2wAXlmLJ7+hXOE6j8zqjlw+WUJjnHkuSTMYli2gXGGwmd+EwA7NupIlZwaNF5KErMosLZ5FHOF1Pr8HzTuq6SQJ2Y19LEnHBjC2Fs/uosMH+fy1IaqbVOothO8kSXqJYvuZw5TBkmXZOYUA7uXz+Xeh7pksZUxgvuxL/RcGqgILGaosEzoKvyBUB2bCA7uqOjgbfybhqI4yAkt2ScmM1HtSAaJgtTmA5lBOap/dcRCYwikJ6tK5QQrmOVSNGkaFgxUK7MZuAx3JJC9kuVBkywD2B0nq75OCuTSPCtscgCcI1ciEp/ToHVM7j1YUFU4GsP99gdh8dudR7WJjA2ATeSCqqIcNcrTwu7/7kkVRHZlk/EMVIGghs2rIeNyT5QYSgmJBQsr47I6BtYSjwlGdjH89xGRLlq2do7dvDw93S9uNxhY6vNICcIbjOvLPRKOySK6Ag/pZ7gyZ1Ra0bQMiGaZpvMW2hlDhwH5gAmOYTTCqTOYQZ6AnCFUul8MhHPiE36ysrABsVicQHjYSjQrHdWOfGFUu13MJDc56rRal1UKosFmdoFRiLdmoMo0BBHiYy2Gh12c9/GJlxUUEyAtiYHDwPptsVPIWyQcIIGRX7g8XFYJFf5JhcKuRdFRD2yPFtRIUti+zlnRUuLQBg9z9qHDCwHL1BKMiqdVDqJD/HTUEKst40AExqqGwKhk3Wh62KrMmUMnbkVDZO8IB5Z1IscoUsQqFdQO0IoT1XYEK56A0Wbi56Xb9qDorZ70zlixsCVTyW0gKwFz3vC+d73Y9VJ0X1/n8NUN1KFDJhxyVJEn9c47qbJRHuu6wFFSgwtk6QZX7+gzrmKLqjDax3vFs3Uo8qsaMZaDdC6wus6rOJVaHoeKNhQSjGkAXVe/jPze5f3K8CdO6+XjT+tqjqMBgmPRyWbZoY6H3ykodvUkdGj2Kyt5ObT9Xj4yWmy3AYdKtCpeAkFgSPHSOdoYmYFYFgLx99M1k3T2BiqAioapnDI62bOA5IIS7uwZosXRdoOKocj0Ex+0X0xS0ZRjAKwJrAhVHdU9hI1AtourefGWoTk+D9XLiHTCTBdDX2euef+rSFPTFpkeqJcI6qQENrwnTPe57qPIjn1GJ3jqeskGoaGuh+6EvvWSo9vL5UYcblVETNWBG3jXdyeXuxae+JH3wocp/JoUNXiPj9WASjIoUzKDXvfl0LEk+VHilUH60d9oh7seL5USjki2IWB1LfUxKOg6gwrTwPLznfolGRdrrxokkBVEdUFQn0D8JmHBUpL1n7ruozhmqkUvqCkX902xWoKKocLTCy2cXUR3grZMzS6DyB3ZjnwSrZwzVNTcqX68q8aiyA4xqTwqgGnmo4LawKq8ORKheuMGqh9RqtTqbBNUeXuVo14RVsYQdr7Eiq7LdddmA7YEg4x/ga4sFKrJsAcABJtV/R1fOwgFBRdb+m7sCFUVF9ocAm6CaBVG5r7cEKlYFkvWgNilszm2I3hnQJCPgJtm65ZtaTjoqPBcPyL5APL8MPhvG1czNFQ4MvKPEN7WcdFQoWe+d8SFQ6tvmJq1q8ACI50stgYpnoD28xYaiOrcNWtXgUEWW+w9FuUxEJph7PF/v7xlkCyBNQFt4dZU/B8387u++bDm+DBT3q/BuJBtHq/5LFMrNzyxSAXe6xrOqpO2cTPlYkQw0R3YjmbP9/RnJHIzZ1dXMYPuRvBy0kczty2xLEl04i3cjQcOAAJo2dF+5+5F8OWgCTcqVwzNQMg/Rc3e2wcOdHTQmklQ0uLyxkbw93lyqTDNQd8oGszqZ2TuFAjK0E2pT3vLGpA19c3Lwwlm2bg+PgqP8O/vNG/vL5rXpQ4Vz0ASblCtV5qtB3X2mB/nr0eg6P4LM/8ju5feFZMbzoOQBn4rHHmh+uTo4uHpncv9DqAyYcOdjsoDBVi3QUdAb/YjMU/H0Kirn8CLnY+Xbt0x0+Vo4n6dttg8CwTobkMqPgeqsiOfsBSR/5ayCS9EubxKbdt6pvy5CUHUu//rd3+tP1Leb7jyqTk/E81A5f18EUV1+vD/tHC7pi/2J+p7reqg6nQcer7cW8sjH5Ej+eMFQXd480MNziolGhdKGC4IqQjyfVhKOikT3KPF8qCfdqlAB/ffFf/55MD93bhWBCkX3CPn5ejEtUEWSVUwLVJGkPmkKVNFU1dMCVSQ1tLRAFU0/ygJVNK1h9xOoIiijKAJVNK2SSCVQPSz1iSJQRZNAFVmPGZWcaYQ/fV+lRbEqNwrRJxseKyqntnqrNPViMz0Zl7IUTeF9rbS++mNSJh3f4epts6g1b6surUZpjclrLzjsYMkJQWVN15mmcV3Z4KyX9TK9MaVZ1NOr5O7Hbb1YbjaVioVuc0J/QykWa/hkZkOnanv/s1SNHqyPQ6zKKWplV1o75D+jioUsjQ7rTM1bcny17L6tW6lqXfFOu23NcZO+LU/5J03ZFcMQVOMy/4Da8m/yp8jyY3BRjckJhqoiV+uB8+0suYy+U54yD1QpcuXWWURV0mNPyinPk0pr6+QMQ9VcnbM6hVidwq7TmTsNKT2tmlpAVahwUmu/5T5/gqrsr61VNjbaFV1T0rr7Z2eo0szVPLPCLfU1diH3wCpFWsdrh4Ko1CYDG+NZiVuFmRIa2uRCbb3c3nDNhKNKa/X2xkaFv6V332ZGlnY9UH3qfpTrv0FU3DDr1d91o/+3ZAagzA9lSu7UHkelrVso+DSmPNqUV/F5FsSZBzaoj9VJchFAtcYCW3268A1ioyy7//ZCdslQacwQqkXG6il++42ZFfVA6n8kqAdR8UClx5hUKsPdqj0fbhdQOcxZFYKK+67rgepE8f+6DxXzzLQ+Xtp9/QI5fCBL6+1qYC3nAip+hKKqMbciHphh/ud+CEelrU1poNJiTSqV+uEb37T2pOaVKYuo2BBHUaWYB2rYr+iISJMyD1X6Kf0XlB/LvK9fIIsnPOR26kWeIC6iYvkBQ8XR3ao8fa/T6z1UTOU4Byqi9WAqrlTGtJZdRFWbQyUzs9KzKadCqdGrF1HFN03nWp+rbDR6tw+j4t6rl1iqTjN9PyrFGzni2lDgqil6AJYWrAHvQcVKGRSgqDPW2cjghfUqz+ubT5Z8Zz9f6tqt7q9e9AY+GgFVSnN5KBP1B3nV5KHbn1c9YR9ej29V48kal3mCSb0oCioe6Bvu1ToPR35UFs/z249ia4lc0pgbugN+FFQODezlEvE/Jc2jUaCw4TUSGSsfgWSWVSskpkRBxQpBZeIzR6IAKplbbHE9FVepQ9+fuVb816iygbRMz3ofHOgseOVj5f0S7uqXSK7cVtm8g8qawNFjVSo18Q2eyhOP+1y/6ilPHbS4ZgyNoqJVyuPqWqlWmrCIUiddlWioarqHSvdV3HNdUF4vprXVZd3bT5bbIm9qxaLuRXU3/YmGSvWSfSXta+TM99Z5wsBLn7hpzWcU7I7dtCoiKl4I0qqZaR5VwwtqxXg+2WPqtYGpykW6KSYiqgIrBNP1rO/wwuSWN5kR06R9tRKcsWnWf7AsMSIqXgj6g3rYlKnnqXosG+yqNZ3U63jet1kua3Vt7CUP440K0QZPhdbokbbu/whWCOqBNqo6adPLWTFTolfjYzGdXnYKtep0dTqeTqtDf4NdLtCnMcneb7InxPivZ51zJdid5w9zYsmByq/O/ItlIn+i/ueKY11bDOpCYWJGRcdNobtFo3o5rpnl8sQm8vXsw7+bbLFFMiJS3SdHdbJjlmkp8R7Tfq2Gt09u67wTHNO6bilSy03fxLRwv3s09a1PK44fRxv418jyTbTq47h265YhNc2dT2lPhU3do9KGRpYsKlplEtPSd2myqmOl3a5M1pP8xJfIUlVVeJ6QkJCQkJCQ0KPVfwGa6HRvctXDOQAAAABJRU5ErkJggg==;" vertex="1" parent="1">
          <mxGeometry x="-418.5" y="993.3299999999999" width="154" height="87.34" as="geometry" />
        </mxCell>
        <mxCell id="pv9ZLLiu9-7sLAFe4-xA-339" value="" style="shape=image;imageAspect=0;aspect=fixed;verticalLabelPosition=bottom;verticalAlign=top;image=data:image/png,iVBORw0KGgoAAAANSUhEUgAAASwAAACoCAMAAABt9SM9AAAAflBMVEX///8AAAB8fHyMjIzy8vJZWVmRkZGioqKEhISVlZV/f3/i4uL4+PhxcXHS0tJjY2Po6Oi0tLS9vb0vLy/JycnX19dnZ2fAwMCoqKhAQEDs7OxFRUU1NTUkJCRRUVGcnJwdHR0VFRVKSkp0dHSurq4QEBA6OjoyMjIqKioiIiJc3a3lAAAH4UlEQVR4nO2ca3uiOhSFQUFFEIWGi5cRtU51/v8fPOQGSRBtp+VynlnvlwqJEBbJzt47sZYFAAAAAAAAAAAAAAAAAAAAAAAAAAAAAAAAAAAAAAAAAAAAAAB6JPDDLM5Ishm6IWMnma9PdsVhEu+GbtFYSZa/7QbbuTN0u0ZI9NZUirPyh27byIh/tUlFSTEaazZHdeCl0yKfexNXsV62N3QTR8O10uSjSJTzDplUJXdMjoxUCjJ7IAhxZWncf8tGR/AhR1rwuIIv5cJQdP4IG/7EQyBnXmfaX7NGSXD61Bh7h1olfAz+eukaiDlg3kebxgq37dtnVQJu9QlXi/TSrFGSv9bKspb8T8jV+meDnw0fgy9qEeF6Zaz2sfNWjZQ9e/xX9sqXxr9g1aOuWzVOYvbwWVsxM+bO23Je+V/c4eqjaeODeQ3p47IdsRblH/+u1nAe+Ka769Ld3s+n2zH1skrWaDpVemDcfkS89HI7n+/79fKqxQ+7eJYet2+3i7sq6lklnyp4V9LiR/88EXv0h7crrfiEibWlVdblB17tan7FVyPwkoU4X8aU73WtpW1P6qNpXTbTv32sckG7tV4yE+eN25XX7WnCudObFQ+LnIW1svblB+GLzmfFYld9J6/qJaz4dFmv1y43gHeupC7PwraX9dG0KuOPvnXLr194ikjMJXzmsbfHtXu5sY97XlAFqjW9JNtCYYACPwkJIWHi7+ouQ6bxfFo4zoU3aEVP0fPMzNXTJx3I82qCSFZV3/qUWNRxcassh0Pnjzv/TDv0tBqVoVu9VZf6xYHASWhS5PRdIT7DhHfvSHtNt/UiJ7SV5Gify2OZZ65en/r+md7EvCb78CmxSklc9dtEXtovP1zVkrWU0TWCCPry+pie2WOXvcJr9mz74z0Pc+W4jgk99TCvuoKAPiXrEJ8Syzan4pN48sw25txQnjDFsi6823cMG4XMd09ak+8SpTlUDvtNHHjc+CvIvvEZsRypbIUrptq8slGCqmpDrHn5Zr/24H8D8zDFjfMHAv0+iA9RoplQZojFFDRrvNayLKR//06sdS2WHii0ixXXr65DXNX4BMoc/nsaZWyBVah11b+3tOvR05tYQTkDBaLVQ4jFTLdyHK345C1czvnbL+4LmPnRSDnXlVjlPc6PWz2MWEFlsmqchIR8gPlMuDMT9HKJ86J+qEQxYl2J5dttmbNhxGKGuiXUkbkre7eyPXsWhBvFZ2cqC/PblVjMW90Xmd8IL4YRK9Q9Ao1qZcxZ2Hm6dD3NwtMC4ZZ2JpYj/btb6sWJItkwYrHO8zjWqebGP2XrU39pObEagJ1qY/d9sfT0UFpZw2ChzsyHmWxAQyzP9DK6gCieg0694ppZH/bJIhO9/NdPivU+UVge1OkkvC6UNXGRU2uIddBu1BGtPYtU7SsbcaYphk2oVfhRsRoYc2+QxF56tuVlG2JRl6f7ZQGmyax5vn6CCzfmiVmDlp34x+7F4lB3hQ82ly6bS5LowtvZNYnoOyZVwogGEfRxzDBV9Tm+L1boK2zctlVvakalU2pw6CH/t6M3ai4+VDmIAz2i/oU5Y7JUk4gIf9rAt3rw9KYy3NF4y60+oLf6bZ4M1H7FLYLpi7E1HqFgr7Eh07UUaxVHgpj0tW2MBTPmzZZCK55mYr3vZlRhAbiIFz8rViOt/Fos3RKpYvXTl3SYI2MYpJ3QSkw4fLna+B7LnQovtTAfKpBlU61LplqW712kU5/GhnqejA5D5mo1XId+YMPJ6Bd8lWAvn4Arp/e+QBUwto0Fj0ieyDWVdc1P4oHbxQrN217ttuRfPzjNbsPixXO9n4aLpfsOkaoxvcZRUYtOsfvqUnKlhw/uahzO5DWfhDtlycW4Lp9TBhKLOwnaOFzbelO4WLrPx0xdlQyeMunyjIQhiT02QoUHS6etQxETknmlk30sD99m9KigaxF87D4RiyWvJ1cSJkmYFW498ocSK6pnPc7G3PzHs3+anonRH+WMUCH7ZXBQTm4DsVOAI5bLnohlLYzLyvczlFiW2W+mZjP4DjZzmUX3Zf2FksG/FIrY162Uil0hknJ9yOnsYQ5eBhX+Utlrvq+ue2yL/ruGvb1n+Q0eUqsS8rVGY1kz2CQky4jfcHroj4BIUmUsnLJaqKaogsDwvgPtjOOXl40zPZvW+I6f7vc96MdN/BO3hRl8LYBkY2vd+oUBIJcN7bXd34iZ52c7jtjIWdTHxaOONSy30pqcguxBSuCH4T7Tk31/RBeLW/fu00dfIIos2/IK68XmxR+51aun36piicCx+2Z9AS+x7Es5Tbivq34bHtC0/xggUW3W3Zw+R8A1s+zNKrJ6MFosFWo/m43TqlD8EGNkO+GdYzkM88J/f131+/AJT02g6ARyunS429NHd/8SBd2ZFL71swNQpNyPbXfLuE8uqh16adOXiLbp0e1rv3mmxxMN2F41EX3ce9vC+RWcHlsll3Pc1h8UxmLJ82OUWvVLIkOwVWMlhxLJkHhUnvtgyJ2jpYOaG90rrMP/YQLYETKvI/w/q3mWbHY7P4xnykbq28Ne929i7js3+ad/OtckebDFXDKFZTfxG2lPPgdeIdVDyOKgK+XO8R8KnhCE0Wy5StP3RZGNKnMFAAAAAAAAAAAAAAAAAAAAAAAAAAAAAAAAAAAAAAAAAAAAAAAAAAAAAP4//AcSXltQ4VH7ZAAAAABJRU5ErkJggg==;" vertex="1" parent="1">
          <mxGeometry x="-200" y="1535.8400000000001" width="147" height="82.32" as="geometry" />
        </mxCell>
        <mxCell id="pv9ZLLiu9-7sLAFe4-xA-340" value="&lt;span style=&quot;font-size: 20px;&quot;&gt;SNYK&lt;/span&gt;" style="rounded=1;whiteSpace=wrap;html=1;strokeWidth=2;fillWeight=4;hachureGap=8;hachureAngle=45;fillColor=#1ba1e2;sketch=1;arcSize=50;" vertex="1" parent="1">
          <mxGeometry x="-388" y="1110" width="107" height="35" as="geometry" />
        </mxCell>
        <mxCell id="pv9ZLLiu9-7sLAFe4-xA-353" value="" style="image;sketch=0;aspect=fixed;html=1;points=[];align=center;fontSize=12;image=img/lib/mscae/Kubernetes.svg;" vertex="1" parent="1">
          <mxGeometry x="-402.27" y="1296" width="48.96" height="47" as="geometry" />
        </mxCell>
        <mxCell id="pv9ZLLiu9-7sLAFe4-xA-354" value="" style="image;sketch=0;aspect=fixed;html=1;points=[];align=center;fontSize=12;image=img/lib/mscae/Kubernetes.svg;" vertex="1" parent="1">
          <mxGeometry x="-480.46" y="1284" width="48.96" height="47" as="geometry" />
        </mxCell>
        <mxCell id="pv9ZLLiu9-7sLAFe4-xA-355" value="" style="image;sketch=0;aspect=fixed;html=1;points=[];align=center;fontSize=12;image=img/lib/mscae/Kubernetes.svg;rotation=0;direction=south;" vertex="1" parent="1">
          <mxGeometry x="-333.00000000000006" y="1276.52" width="47" height="48.96" as="geometry" />
        </mxCell>
        <mxCell id="pv9ZLLiu9-7sLAFe4-xA-357" value="" style="image;sketch=0;aspect=fixed;html=1;points=[];align=center;fontSize=12;image=img/lib/mscae/Docker.svg;" vertex="1" parent="1">
          <mxGeometry x="-727.34" y="992" width="75.61" height="62" as="geometry" />
        </mxCell>
        <mxCell id="pv9ZLLiu9-7sLAFe4-xA-358" value="&lt;span style=&quot;font-size: 20px;&quot;&gt;Stage 5&lt;/span&gt;" style="rounded=1;whiteSpace=wrap;html=1;strokeWidth=2;fillWeight=4;hachureGap=8;hachureAngle=45;fillColor=#1ba1e2;sketch=1;" vertex="1" parent="1">
          <mxGeometry x="-668.7500000000001" y="936" width="163" height="35" as="geometry" />
        </mxCell>
        <mxCell id="pv9ZLLiu9-7sLAFe4-xA-362" value="&lt;span style=&quot;font-size: 20px;&quot;&gt;SSH KEY&lt;/span&gt;" style="rounded=1;whiteSpace=wrap;html=1;strokeWidth=2;fillWeight=4;hachureGap=8;hachureAngle=45;fillColor=#1ba1e2;sketch=1;arcSize=50;" vertex="1" parent="1">
          <mxGeometry x="-408" y="659.4" width="106.02" height="28.92" as="geometry" />
        </mxCell>
        <mxCell id="pv9ZLLiu9-7sLAFe4-xA-380" value="&lt;span style=&quot;font-size: 20px;&quot;&gt;Deploy&lt;/span&gt;" style="rounded=1;whiteSpace=wrap;html=1;strokeWidth=2;fillWeight=4;hachureGap=8;hachureAngle=45;fillColor=#1ba1e2;sketch=1;" vertex="1" parent="1">
          <mxGeometry x="-215.99" y="1379" width="163" height="35" as="geometry" />
        </mxCell>
        <mxCell id="pv9ZLLiu9-7sLAFe4-xA-382" value="Repositorio" style="whiteSpace=wrap;html=1;shape=mxgraph.basic.cloud_rect" vertex="1" parent="1">
          <mxGeometry x="-913" y="292.37" width="139" height="41.12" as="geometry" />
        </mxCell>
        <mxCell id="pv9ZLLiu9-7sLAFe4-xA-498" style="edgeStyle=orthogonalEdgeStyle;rounded=0;orthogonalLoop=1;jettySize=auto;html=1;exitX=0.75;exitY=1;exitDx=0;exitDy=0;entryX=1;entryY=0.75;entryDx=0;entryDy=0;" edge="1" parent="1" source="pv9ZLLiu9-7sLAFe4-xA-286" target="pv9ZLLiu9-7sLAFe4-xA-286">
          <mxGeometry relative="1" as="geometry" />
        </mxCell>
        <mxCell id="pv9ZLLiu9-7sLAFe4-xA-617" value="&lt;span style=&quot;font-size: 20px;&quot;&gt;Rollout , Blue Gren, Canary&amp;nbsp;&lt;/span&gt;" style="rounded=1;whiteSpace=wrap;html=1;strokeWidth=2;fillWeight=4;hachureGap=8;hachureAngle=45;fillColor=#1ba1e2;sketch=1;" vertex="1" parent="1">
          <mxGeometry x="-492.17" y="1355" width="239.17" height="46" as="geometry" />
        </mxCell>
      </root>
    </mxGraphModel>
  </diagram>
</mxfile>
